<svg width="70" height="21" viewBox="0 0 70 21" fill="none" xmlns="http://www.w3.org/2000/svg">
<g clip-path="url(#clip0_2_3829)">
<g clip-path="url(#clip1_2_3829)">
<mask id="mask0_2_3829" style="mask-type:luminance" maskUnits="userSpaceOnUse" x="0" y="0" width="70" height="21">
<path d="M69.3232 0.339844H0.956543V20.6804H69.3232V0.339844Z" fill="white"/>
</mask>
<g mask="url(#mask0_2_3829)">
<path d="M15.6969 3.81693C15.6969 4.95591 14.7736 5.87923 13.6346 5.87923C12.4956 5.87923 11.5723 4.95591 11.5723 3.81693C11.5723 2.67796 12.4956 1.75464 13.6346 1.75464C14.7736 1.75464 15.6969 2.67796 15.6969 3.81693Z" fill="black" fill-opacity="0.32"/>
<path d="M12.7548 16.5384C12.2618 16.5384 11.8623 16.1387 11.8623 15.6457V7.77117C11.8623 7.27811 12.2618 6.87842 12.7548 6.87842H14.4689C14.9618 6.87842 15.3614 7.27811 15.3614 7.77117V15.6457C15.3614 16.1387 14.9618 16.5384 14.4689 16.5384H12.7548Z" fill="black"/>
<path fill-rule="evenodd" clip-rule="evenodd" d="M3.60209 15.8527C3.60209 16.2314 3.90896 16.5384 4.28752 16.5384H6.37125C6.86416 16.5384 7.26376 16.1386 7.26376 15.6456V11.4893C7.84995 11.5796 8.44549 11.541 9.02934 11.3711L9.49738 11.235C9.76654 11.1565 9.95167 10.9097 9.95167 10.6294V8.13146C9.95167 7.72071 9.56534 7.41955 9.1671 7.51998L8.50415 7.68714C8.09306 7.80685 7.67132 7.80644 7.26376 7.68919V5.0862C7.26376 4.85433 7.28781 4.66339 7.33591 4.51336C7.39604 4.34969 7.45149 4.24969 7.55971 4.16786C7.67997 4.08603 7.84571 4.02431 8.03809 4.02431C8.30582 4.02431 8.56178 4.08511 8.75567 4.1451C8.7906 4.15592 8.82554 4.16654 8.86034 4.17696C9.32885 4.31722 9.81214 4.02618 9.93595 3.5529L10.4574 1.56011C10.5517 1.19925 10.3708 0.81765 10.0175 0.698588C9.49403 0.522225 9.045 0.446477 8.51645 0.387714C8.08595 0.339844 7.66661 0.339844 7.17357 0.339844C6.41157 0.339844 5.82073 0.537609 5.2796 0.933139C4.75049 1.31503 4.33562 1.82648 4.03498 2.46752C3.74638 3.10856 3.60209 3.81777 3.60209 4.5952V6.02688C3.03004 5.9451 2.44964 5.98582 1.88039 6.15153L1.4123 6.28778C1.14313 6.36613 0.958008 6.61287 0.958008 6.89329V9.44314C0.958008 9.87358 1.37956 10.1775 1.78779 10.0414L2.40555 9.83549C2.8019 9.72016 3.20816 9.7164 3.60209 9.82134V15.8527Z" fill="black"/>
<path d="M22.3252 20.6803C21.4583 20.6803 20.5975 20.5599 19.7427 20.319C19.2097 20.1667 18.7369 19.9855 18.3243 19.7753C17.9305 19.5748 17.8138 19.088 18.0137 18.6938L18.4874 17.7599C18.7149 17.3114 19.2786 17.1631 19.7427 17.3565C20.0316 17.477 20.3326 17.5672 20.6456 17.6275C20.9707 17.6877 21.3138 17.7178 21.675 17.7178C22.2409 17.7178 22.6984 17.6395 23.0476 17.483C23.3968 17.3385 23.6495 17.1036 23.806 16.7784C23.9746 16.4533 24.0589 16.0379 24.0589 15.532V14.4839C24.0589 14.2706 24.2419 14.1031 24.4542 14.1221C24.6745 14.1417 24.8283 14.3541 24.736 14.5551C24.6211 14.8056 24.4555 15.035 24.2395 15.243C23.9145 15.5561 23.5111 15.803 23.0295 15.9836C22.5479 16.1643 22.0363 16.2546 21.4944 16.2546C20.6396 16.2546 19.8812 16.0619 19.219 15.6765C18.5688 15.2912 18.0511 14.7553 17.6658 14.0688C17.2926 13.3703 17.106 12.5514 17.106 11.6121C17.106 10.6367 17.2926 9.78162 17.6658 9.04702C18.0391 8.30039 18.5447 7.71633 19.1828 7.29485C19.833 6.87334 20.5734 6.6626 21.4041 6.6626C21.7653 6.6626 22.1085 6.69872 22.4336 6.77098C22.7586 6.84324 23.0597 6.94559 23.3365 7.07807C23.6134 7.19852 23.8603 7.349 24.077 7.52969C24.2938 7.71032 24.4683 7.90899 24.6007 8.12578C24.6857 8.25329 24.7541 8.38708 24.8058 8.52709C24.8664 8.69158 24.7533 8.86018 24.5821 8.89778C24.368 8.94481 24.1699 8.7698 24.1904 8.55143L24.2724 7.67121C24.3152 7.2122 24.7002 6.8613 25.1611 6.8613H26.8506C27.3435 6.8613 27.7431 7.26101 27.7431 7.75407V15.5862C27.7431 16.3931 27.6167 17.1096 27.3638 17.7359C27.123 18.3741 26.7679 18.9099 26.2984 19.3435C25.8289 19.7891 25.2568 20.1202 24.5827 20.3371C23.9205 20.5659 23.168 20.6803 22.3252 20.6803ZM22.4155 13.6353C22.7887 13.6353 23.1017 13.557 23.3546 13.4005C23.6195 13.2439 23.8182 13.0211 23.9506 12.7321C24.083 12.431 24.1492 12.0697 24.1492 11.6483C24.1492 11.2268 24.083 10.8654 23.9506 10.5644C23.8182 10.2633 23.6195 10.0345 23.3546 9.87802C23.1017 9.72146 22.7887 9.64318 22.4155 9.64318C22.0423 9.64318 21.7292 9.72146 21.4764 9.87802C21.2235 10.0345 21.0309 10.2633 20.8985 10.5644C20.7661 10.8654 20.6998 11.2268 20.6998 11.6483C20.6998 12.0697 20.7661 12.431 20.8985 12.7321C21.0309 13.0211 21.2235 13.2439 21.4764 13.4005C21.7292 13.557 22.0423 13.6353 22.4155 13.6353Z" fill="black"/>
<path d="M32.989 16.7243C32.2545 16.7243 31.6345 16.5738 31.1289 16.2728C30.6232 15.9716 30.238 15.5321 29.973 14.954C29.7081 14.3639 29.5757 13.6534 29.5757 12.8224V7.75413C29.5757 7.261 29.9753 6.86133 30.4683 6.86133H32.3493C32.8422 6.86133 33.2419 7.261 33.2419 7.75413V12.5154C33.2419 12.7803 33.284 13.0031 33.3683 13.1837C33.4645 13.3644 33.597 13.5029 33.7656 13.5992C33.9341 13.6955 34.1388 13.7437 34.3796 13.7437C34.5602 13.7437 34.7227 13.7197 34.8672 13.6715C35.0237 13.6112 35.1561 13.527 35.2645 13.4185C35.3729 13.3102 35.4572 13.1898 35.5174 13.0573C35.5775 12.9128 35.6077 12.7623 35.6077 12.6056V7.75413C35.6077 7.261 36.0072 6.86133 36.5001 6.86133H38.3812C38.8741 6.86133 39.2738 7.261 39.2738 7.75413V15.6328C39.2738 16.1258 38.8741 16.5256 38.3812 16.5256H36.7135C36.2587 16.5256 35.8767 16.1835 35.8265 15.7314L35.7222 14.7932C35.7081 14.6662 35.7858 14.547 35.9076 14.5084C36.1114 14.4441 36.2989 14.6318 36.2058 14.8243C36.0734 15.0985 35.898 15.3524 35.6799 15.5862C35.3549 15.9355 34.9575 16.2125 34.488 16.4172C34.0184 16.622 33.5187 16.7243 32.989 16.7243Z" fill="black"/>
<path d="M42.1669 16.5256C41.6739 16.5256 41.2744 16.1258 41.2744 15.6328V7.75406C41.2744 7.261 41.6739 6.8613 42.1669 6.8613H43.8352C44.3048 6.8613 44.6942 7.22531 44.7258 7.69403L44.8399 9.38713C44.8592 9.67509 44.5446 9.86406 44.2997 9.7116C44.1658 9.62826 44.1018 9.46589 44.1533 9.31678C44.3091 8.86481 44.5293 8.45577 44.8141 8.08967C45.1511 7.64406 45.5546 7.29484 46.0241 7.04193C46.5057 6.78904 47.0174 6.6626 47.5592 6.6626C47.7759 6.6626 47.9806 6.68065 48.1732 6.71679C48.4408 6.75024 48.6053 7.04899 48.6053 7.31877V9.63961C48.6053 10.2978 47.7787 10.828 47.1438 10.6547C46.8909 10.5825 46.614 10.5464 46.313 10.5464C46.0962 10.5464 45.8976 10.5825 45.717 10.6547C45.5486 10.7149 45.404 10.8113 45.2836 10.9438C45.1753 11.0763 45.091 11.2328 45.0308 11.4135C44.9706 11.594 44.9405 11.8049 44.9405 12.0457V15.6328C44.9405 16.1258 44.5409 16.5256 44.048 16.5256H42.1669Z" fill="black"/>
<path d="M54.9414 16.7062C53.8217 16.7062 52.8585 16.4894 52.0518 16.0559C51.2451 15.6223 50.6251 15.0323 50.1917 14.2855C49.7583 13.527 49.5415 12.6599 49.5415 11.6843C49.5415 10.9618 49.662 10.2935 49.9028 9.67928C50.1435 9.06514 50.4806 8.53523 50.914 8.08968C51.3596 7.63204 51.8773 7.28282 52.4672 7.04194C53.0692 6.78904 53.7253 6.6626 54.4357 6.6626C55.146 6.6626 55.7901 6.78904 56.3681 7.04194C56.9581 7.28282 57.4637 7.63204 57.8851 8.08968C58.3065 8.53523 58.6255 9.06514 58.8422 9.67928C59.071 10.2935 59.1733 10.9618 59.1493 11.6843C59.1392 12.1063 58.7944 12.4431 58.3725 12.4431H52.2391C51.8431 12.4431 51.4986 12.172 51.4055 11.7869C51.2746 11.247 51.6837 10.7271 52.2391 10.7271H55.9835C56.074 10.7271 56.1206 10.8354 56.0583 10.9011C55.9941 10.9686 55.8805 10.9233 55.8805 10.8301V10.7631C55.8805 10.5343 55.8203 10.3356 55.6998 10.167C55.5915 9.98638 55.4349 9.84787 55.2303 9.75154C55.0257 9.65521 54.7849 9.60701 54.5079 9.60701C54.1587 9.60701 53.8638 9.67928 53.623 9.8238C53.3822 9.96833 53.1956 10.173 53.0631 10.4379C52.9427 10.7029 52.8825 11.0221 52.8825 11.3953C52.8825 11.8289 52.9728 12.2082 53.1535 12.5334C53.3461 12.8586 53.623 13.1114 53.9842 13.2921C54.3575 13.4727 54.8149 13.563 55.3568 13.563C55.718 13.563 56.0249 13.5209 56.2777 13.4366C56.2954 13.4302 56.3132 13.4234 56.3309 13.4166C56.7899 13.2382 57.3395 13.3104 57.6246 13.7122L58.2953 14.6572C58.5711 15.0457 58.4972 15.5901 58.0899 15.8376C57.8818 15.9641 57.6751 16.073 57.4697 16.1643C57.0483 16.3569 56.627 16.4954 56.2055 16.5797C55.7962 16.6641 55.3748 16.7062 54.9414 16.7062Z" fill="black"/>
<path d="M64.353 16.7063C63.3055 16.7063 62.3905 16.5496 61.6079 16.2365C61.1837 16.0575 60.8106 15.8548 60.4886 15.6283C60.0781 15.3397 60.1161 14.7573 60.4972 14.431L61.3462 13.7041C61.6831 13.4157 62.1758 13.4294 62.5607 13.6496C62.7778 13.7737 63.0079 13.8773 63.2513 13.9605C63.757 14.117 64.1784 14.1952 64.5155 14.1952C64.6359 14.1952 64.7383 14.1892 64.8226 14.1772C64.9189 14.1532 64.991 14.123 65.0392 14.0869C65.0717 14.061 65.0989 14.035 65.1209 14.009C65.1554 13.9682 65.1857 13.9221 65.203 13.8714C65.2143 13.8387 65.2199 13.8021 65.2199 13.7617C65.2199 13.5812 65.1235 13.4487 64.9309 13.3643C64.8226 13.3162 64.642 13.2559 64.3891 13.1837C64.1483 13.1115 63.8293 13.0271 63.4319 12.9308C62.9624 12.8104 62.5289 12.6599 62.1316 12.4792C61.7464 12.2985 61.4153 12.0878 61.1384 11.847C60.8494 11.582 60.6206 11.281 60.4521 10.9438C60.2955 10.6066 60.2173 10.2272 60.2173 9.80574C60.2173 9.312 60.3317 8.8724 60.5605 8.48709C60.7892 8.1017 61.1023 7.77655 61.4996 7.51163C61.8968 7.23461 62.3424 7.02387 62.8359 6.87935C63.3296 6.73485 63.8353 6.6626 64.353 6.6626C64.9429 6.6626 65.4907 6.7228 65.9964 6.84323C66.5142 6.95162 66.9958 7.11419 67.4412 7.33094C67.5936 7.3991 67.7413 7.47198 67.8842 7.5495C68.3398 7.79638 68.3932 8.39999 68.0476 8.78605L67.3984 9.51101C67.0792 9.86754 66.5351 9.9059 66.1192 9.66935C66.1143 9.66662 66.1095 9.66395 66.1048 9.66121C65.8399 9.50466 65.5569 9.37825 65.256 9.28185C64.967 9.17349 64.6961 9.11927 64.4434 9.11927C64.3109 9.11927 64.1964 9.13137 64.1002 9.15544C64.0159 9.16747 63.9437 9.19755 63.8835 9.24575C63.8233 9.28185 63.7751 9.33005 63.739 9.39028C63.7148 9.43841 63.7029 9.49864 63.7029 9.5709C63.7029 9.66723 63.733 9.75754 63.7932 9.84184C63.8534 9.92614 63.9497 9.9984 64.0821 10.0586C64.1904 10.1068 64.371 10.173 64.6239 10.2573C64.8888 10.3416 65.274 10.456 65.7797 10.6006C66.3215 10.7571 66.7971 10.9378 67.2065 11.1424C67.6279 11.3471 67.965 11.588 68.2177 11.865C68.3863 12.0577 68.5188 12.2745 68.6152 12.5154C68.7114 12.7562 68.7596 13.0151 68.7596 13.2921C68.7596 13.9544 68.567 14.5446 68.1816 15.0623C67.8084 15.5682 67.2907 15.9715 66.6285 16.2727C65.9663 16.5617 65.2078 16.7063 64.353 16.7063Z" fill="black"/>
</g>
</g>
</g>
<defs>
<clipPath id="clip0_2_3829">
<rect width="68.38" height="20.51" fill="white" transform="translate(0.949707 0.339844)"/>
</clipPath>
<clipPath id="clip1_2_3829">
<rect width="68.3667" height="20.51" fill="white" transform="translate(0.956543 0.339844)"/>
</clipPath>
</defs>
</svg>
