<svg width="70" height="25" viewBox="0 0 70 25" fill="none" xmlns="http://www.w3.org/2000/svg">
<g clip-path="url(#clip0_2_3925)">
<g clip-path="url(#clip1_2_3925)">
<path fill-rule="evenodd" clip-rule="evenodd" d="M24.6995 12.1798C24.6995 18.8183 19.318 24.1998 12.6796 24.1998C6.04117 24.1998 0.659668 18.8183 0.659668 12.1798C0.659668 5.54142 6.04117 0.159912 12.6796 0.159912C19.318 0.159912 24.6995 5.54142 24.6995 12.1798ZM15.553 13.4426L16.9894 13.0797C18.234 12.7654 19.5025 13.5223 19.8168 14.7669C20.1311 16.0115 19.3742 17.28 18.1296 17.5944C16.885 17.9086 15.6166 17.1517 15.3023 15.9071L14.9395 14.4707L11.6562 15.2999L12.019 16.7364C12.3333 17.981 11.5765 19.2495 10.3319 19.5638C9.08729 19.8781 7.81889 19.1212 7.50451 17.8766C7.19023 16.632 7.94716 15.3636 9.19168 15.0492L10.6281 14.6864L9.79887 11.4031L8.36246 11.7659C7.11789 12.0803 5.84943 11.3233 5.53514 10.0787C5.22077 8.83413 5.97769 7.56568 7.22223 7.25129C8.46679 6.93701 9.7353 7.69395 10.0496 8.93852L10.4124 10.375L13.6957 9.54571L13.3328 8.10925C13.0185 6.86468 13.7754 5.59618 15.02 5.28186C16.2646 4.96749 17.533 5.72444 17.8474 6.96901C18.1616 8.21363 17.4047 9.48208 16.1602 9.79636L14.7237 10.1592L15.553 13.4426ZM15.2273 6.10267C14.4352 6.30273 13.9536 7.10999 14.1537 7.90192L14.5164 9.33838L15.9529 8.97559C16.7449 8.77553 17.2265 7.96821 17.0265 7.17629C16.8265 6.38447 16.0194 5.9026 15.2273 6.10267ZM6.35594 9.87137C6.55595 10.6633 7.36305 11.1451 8.15513 10.9451L9.59159 10.5823L9.2288 9.14579C9.02879 8.35392 8.22164 7.87211 7.42956 8.07217C6.63747 8.27218 6.15592 9.07955 6.35594 9.87137ZM10.1245 18.743C10.9167 18.5429 11.3982 17.7356 11.1983 16.9437L10.8354 15.5072L9.39901 15.8701C8.60692 16.0701 8.12538 16.8774 8.32539 17.6693C8.5254 18.4612 9.33244 18.943 10.1245 18.743ZM10.6197 11.1958L11.4489 14.4791L14.7322 13.6498L13.903 10.3665L10.6197 11.1958ZM16.1231 15.6998C16.3231 16.4917 17.1302 16.9735 17.9223 16.7735C18.7144 16.5735 19.1959 15.7661 18.996 14.9743C18.796 14.1824 17.9888 13.7005 17.1967 13.9006L15.7603 14.2633L16.1231 15.6998Z" fill="#010101"/>
<path d="M38.7104 16.2408V18.2327H31.1104V5.25806H33.5241V16.2408H38.7104ZM45.8443 14.3026C45.2042 14.3326 44.6659 14.3893 44.2292 14.4731C43.7925 14.5509 43.4426 14.6526 43.1794 14.7782C42.9162 14.9038 42.7277 15.0504 42.6141 15.2178C42.5005 15.3853 42.4436 15.5678 42.4436 15.7652C42.4436 16.1541 42.5572 16.4322 42.7846 16.5996C43.0179 16.7671 43.3199 16.8509 43.6908 16.8509C44.1455 16.8509 44.5373 16.7701 44.8663 16.6086C45.2013 16.4411 45.5273 16.1899 45.8443 15.8549V14.3026ZM40.7657 10.3098C41.8245 9.34068 43.0986 8.85614 44.5881 8.85614C45.1265 8.85614 45.608 8.94589 46.0327 9.12534C46.4575 9.2988 46.8164 9.54406 47.1095 9.86112C47.4026 10.1721 47.624 10.546 47.7735 10.9827C47.9291 11.4194 48.0068 11.8979 48.0068 12.4183V18.2327H47.0018C46.7924 18.2327 46.6309 18.2028 46.5173 18.1429C46.4036 18.0771 46.3139 17.9486 46.2481 17.7571L46.0507 17.0932C45.8174 17.3026 45.5901 17.4879 45.3688 17.6495C45.1474 17.805 44.9171 17.9366 44.6779 18.0443C44.4386 18.1519 44.1813 18.2327 43.9062 18.2865C43.637 18.3463 43.3379 18.3762 43.0089 18.3762C42.62 18.3762 42.2612 18.3254 41.9322 18.2237C41.6032 18.1161 41.319 17.9576 41.0797 17.7482C40.8405 17.5388 40.655 17.2786 40.5234 16.9676C40.3919 16.6565 40.326 16.2946 40.326 15.8818C40.326 15.6485 40.3649 15.4183 40.4427 15.1909C40.5204 14.9576 40.646 14.7363 40.8195 14.5269C40.999 14.3176 41.2293 14.1201 41.5104 13.9347C41.7916 13.7493 42.1355 13.5878 42.5423 13.4502C42.955 13.3126 43.4337 13.202 43.978 13.1182C44.5223 13.0285 45.1444 12.9746 45.8443 12.9567V12.4183C45.8443 11.8022 45.7127 11.3476 45.4495 11.0545C45.1863 10.7554 44.8065 10.6058 44.31 10.6058C43.951 10.6058 43.6519 10.6477 43.4127 10.7315C43.1794 10.8152 42.973 10.9109 42.7936 11.0186C42.6141 11.1203 42.4496 11.213 42.3 11.2967C42.1565 11.3805 41.995 11.4224 41.8155 11.4224C41.6599 11.4224 41.5284 11.3835 41.4207 11.3057C41.313 11.222 41.2263 11.1263 41.1605 11.0186L40.7657 10.3098ZM57.6044 9.94183C57.6044 10.0974 57.5777 10.2499 57.5237 10.3994C57.4698 10.549 57.3982 10.6716 57.3084 10.7674L52.9385 16.5278H57.4698V18.2327H50.3633V17.3085C50.3633 17.2068 50.3872 17.0872 50.4351 16.9496C50.4829 16.806 50.5546 16.6714 50.6504 16.5458L55.0653 10.7225H50.6235V9.02661H57.6044V9.94183ZM68.5057 9.02661L63.4899 20.763C63.4242 20.9186 63.3371 21.0352 63.2297 21.1129C63.1277 21.1968 62.9696 21.2386 62.7543 21.2386H61.103L62.8259 17.5418L59.1023 9.02661H61.049C61.2227 9.02661 61.3573 9.0685 61.4529 9.15226C61.5549 9.23597 61.6292 9.3317 61.6773 9.43935L63.6336 14.2129C63.6993 14.3744 63.7533 14.5359 63.7949 14.6974C63.843 14.8589 63.8879 15.0235 63.9295 15.1909C63.9835 15.0235 64.0369 14.8589 64.0909 14.6974C64.1448 14.53 64.2047 14.3654 64.2704 14.2039L66.1188 9.43935C66.1669 9.31974 66.2443 9.22101 66.3522 9.14329C66.466 9.0655 66.5916 9.02661 66.7289 9.02661H68.5057Z" fill="black"/>
</g>
</g>
<defs>
<clipPath id="clip0_2_3925">
<rect width="68.38" height="24.04" fill="white" transform="translate(0.659668 0.159912)"/>
</clipPath>
<clipPath id="clip1_2_3925">
<rect width="68.38" height="24.0398" fill="white" transform="translate(0.659668 0.159912)"/>
</clipPath>
</defs>
</svg>
