<svg width="70" height="37" viewBox="0 0 70 37" fill="none" xmlns="http://www.w3.org/2000/svg">
<mask id="mask0_2_3780" style="mask-type:luminance" maskUnits="userSpaceOnUse" x="1" y="1" width="68" height="36">
<path d="M68.656 1.14807H1.04346V36.8118H68.656V1.14807Z" fill="white"/>
</mask>
<g mask="url(#mask0_2_3780)">
<mask id="mask1_2_3780" style="mask-type:luminance" maskUnits="userSpaceOnUse" x="1" y="1" width="68" height="36">
<path d="M68.656 1.14807H1.04346V36.8118H68.656V1.14807Z" fill="white"/>
</mask>
<g mask="url(#mask1_2_3780)">
<path fill-rule="evenodd" clip-rule="evenodd" d="M39.8521 3.46405C40.2121 3.32939 40.6127 3.35563 40.9521 3.53608L53.4503 10.1815C54.1047 10.5294 54.353 11.3419 54.0051 11.9962L53.3691 13.191L63.6474 12.292C64.3488 12.2306 64.9712 12.7205 65.0871 13.4026L65.1011 13.5119L66.3353 27.618C66.3685 27.9981 66.2384 28.3743 65.9775 28.6527L65.2833 29.3932C65.058 29.6335 64.7521 29.7826 64.4239 29.812L50.2628 31.0786L50.2469 31.0799C49.5081 31.1373 48.8627 30.5847 48.8054 29.8459L48.2588 22.8024L47.3574 24.4989C47.1981 24.7983 46.9323 25.0249 46.615 25.1357L46.4938 25.1717L45.5084 25.4146C45.1884 25.4936 44.8506 25.452 44.5594 25.2977L38.6257 22.156L38.4981 22.0884L33.0311 33.5171C32.9092 33.772 32.7104 33.981 32.4642 34.1155L32.3558 34.1686L31.4155 34.5775C31.063 34.7309 30.6617 34.7256 30.3133 34.5631L17.4844 28.581C16.8127 28.2677 16.5221 27.4694 16.8354 26.7977L18.8571 22.4606L8.56172 25.2412C7.84622 25.4344 7.10961 25.011 6.91641 24.2956L6.91237 24.2802L3.39832 10.6278C3.31781 10.3149 3.35281 9.98364 3.49689 9.69464L3.95435 8.77698C4.12585 8.43291 4.43666 8.17894 4.80798 8.07945L18.4807 4.41584C19.1966 4.22403 19.9324 4.64884 20.1241 5.36466L22.5713 14.4965L22.8197 13.9644C22.963 13.657 23.2166 13.4168 23.5276 13.2896L23.6468 13.2472L24.6183 12.953C24.9336 12.8575 25.2731 12.8814 25.572 13.02L31.9092 15.9602L38.1831 4.43843C38.3183 4.19024 38.5277 3.992 38.7807 3.87053L38.8916 3.82325L39.8521 3.46405Z" stroke="black" stroke-width="3.37022"/>
<path fill-rule="evenodd" clip-rule="evenodd" d="M39.8521 3.46405C40.2121 3.32939 40.6127 3.35563 40.9521 3.53608L53.4503 10.1815C54.1047 10.5294 54.353 11.3419 54.0051 11.9962L53.3691 13.191L63.6474 12.292C64.3488 12.2306 64.9712 12.7205 65.0871 13.4026L65.1011 13.5119L66.3353 27.618C66.3685 27.9981 66.2384 28.3743 65.9775 28.6527L65.2833 29.3932C65.058 29.6335 64.7521 29.7826 64.4239 29.812L50.2628 31.0786L50.2469 31.0799C49.5081 31.1373 48.8627 30.5847 48.8054 29.8459L48.2588 22.8024L47.3574 24.4989C47.1981 24.7983 46.9323 25.0249 46.615 25.1357L46.4938 25.1717L45.5084 25.4146C45.1884 25.4936 44.8506 25.452 44.5594 25.2977L38.6257 22.156L38.4981 22.0884L33.0311 33.5171C32.9092 33.772 32.7104 33.981 32.4642 34.1155L32.3558 34.1686L31.4155 34.5775C31.063 34.7309 30.6617 34.7256 30.3133 34.5631L17.4844 28.581C16.8127 28.2677 16.5221 27.4694 16.8354 26.7977L18.8571 22.4606L8.56172 25.2412C7.84622 25.4344 7.10961 25.011 6.91641 24.2956L6.91237 24.2802L3.39832 10.6278C3.31781 10.3149 3.35281 9.98364 3.49689 9.69464L3.95435 8.77698C4.12585 8.43291 4.43666 8.17894 4.80798 8.07945L18.4807 4.41584C19.1966 4.22403 19.9324 4.64884 20.1241 5.36466L22.5713 14.4965L22.8197 13.9644C22.963 13.657 23.2166 13.4168 23.5276 13.2896L23.6468 13.2472L24.6183 12.953C24.9336 12.8575 25.2731 12.8814 25.572 13.02L31.9092 15.9602L38.1831 4.43843C38.3183 4.19024 38.5277 3.992 38.7807 3.87053L38.8916 3.82325L39.8521 3.46405Z" stroke="black" stroke-width="1.49788"/>
<path fill-rule="evenodd" clip-rule="evenodd" d="M40.8368 3.48166L40.9521 3.53608L53.4503 10.1815C54.0703 10.5111 54.3258 11.2577 54.0552 11.8917L54.0051 11.9962L53.3691 13.191L63.6474 12.292C64.3488 12.2306 64.9712 12.7205 65.0871 13.4026L65.1011 13.5119L66.3353 27.618C66.3648 27.9559 66.2653 28.2907 66.0595 28.5564L65.9775 28.6527L65.2833 29.3932C65.0861 29.6035 64.8273 29.7439 64.5458 29.7954L64.4238 29.812L50.2628 31.0787L50.2469 31.0799C49.545 31.1343 48.9274 30.6384 48.8184 29.9552L48.8054 29.8459L48.2588 22.8024L47.3574 24.4989C47.1981 24.7983 46.9323 25.0249 46.615 25.1357L46.4938 25.1717L45.5084 25.4146C45.2284 25.4837 44.9348 25.4604 44.6707 25.3502L44.5594 25.2977L38.6257 22.156L38.4981 22.0884L33.0311 33.5171C32.9092 33.772 32.7104 33.981 32.4642 34.1155L32.3558 34.1686L31.4155 34.5775C31.1022 34.7138 30.7503 34.7248 30.4312 34.6115L30.3133 34.5631L17.4844 28.581C16.8481 28.2842 16.5537 27.5521 16.7908 26.9048L16.8354 26.7977L18.8571 22.4606L8.56172 25.2412C7.84622 25.4344 7.10961 25.011 6.91641 24.2956L6.91237 24.2802L3.39832 10.6278C3.31781 10.315 3.35281 9.98372 3.49689 9.69464L3.95435 8.77698C4.12585 8.43291 4.43666 8.17894 4.80798 8.07945L18.4807 4.41584C19.1966 4.22403 19.9324 4.64883 20.1241 5.36467L22.5713 14.4965L22.8197 13.9644C22.963 13.657 23.2166 13.4168 23.5276 13.2896L23.6468 13.2472L24.6183 12.953C24.8942 12.8695 25.1885 12.8773 25.458 12.9734L25.572 13.02L31.9092 15.9602L38.1831 4.43843C38.3183 4.19025 38.5277 3.992 38.7807 3.87052L38.8916 3.82325L39.8521 3.46405C40.1721 3.34436 40.5242 3.35178 40.8368 3.48166ZM24.5935 16.0547C24.22 15.8804 23.7757 16.0421 23.6015 16.4158L18.9021 26.4939C18.7279 26.8675 18.8895 27.3116 19.2631 27.4858L29.3411 32.1853C29.7148 32.3595 30.1589 32.1979 30.3331 31.8242L35.0326 21.7462C35.2069 21.3725 35.0452 20.9285 34.6716 20.7542L24.5935 16.0547ZM62.6546 14.1298L52.393 15.0276L51.0434 17.565L51.8676 26.9853C51.9035 27.396 52.2656 27.6997 52.6763 27.6639L63.7539 26.6947C64.1646 26.6587 64.4684 26.2967 64.4324 25.886L63.4632 14.8084C63.4274 14.3977 63.0653 14.094 62.6546 14.1298ZM40.7888 6.27021L35.5684 16.0886C35.3749 16.4526 35.513 16.9045 35.877 17.0981L45.6953 22.3185C46.0594 22.5121 46.5113 22.3739 46.7049 22.01L51.9254 12.1916C52.1188 11.8276 51.9807 11.3756 51.6168 11.182L41.7984 5.96158C41.4344 5.76804 40.9824 5.90622 40.7888 6.27021ZM18.7364 6.92592C18.6296 6.52772 18.2203 6.29141 17.8222 6.39811L7.08109 9.27611C6.68289 9.38287 6.44657 9.79215 6.55328 10.1904L9.43137 20.9314C9.53805 21.3295 9.94733 21.5659 10.3456 21.4592L20.6043 18.7104L21.4227 16.9519L18.7364 6.92592Z" fill="black"/>
<path fill-rule="evenodd" clip-rule="evenodd" d="M53.6543 16.7804L60.7291 16.1613L60.9012 18.1346L56.4893 18.52L56.6171 19.9751L60.4896 19.6322L60.6549 21.5017L56.7806 21.8398L56.919 23.4242L61.5012 23.0231L61.6739 24.9969L54.4264 25.6306L53.6543 16.7804Z" fill="black"/>
<path fill-rule="evenodd" clip-rule="evenodd" d="M14.7867 18.9182C16.0204 18.5876 16.8733 18.0261 17.3454 17.2338C17.8175 16.4414 17.8871 15.424 17.5542 14.1815L16.0525 8.57727L9.91455 10.2219L10.5361 12.5418L13.6377 11.7108L14.5667 15.1776C14.6667 15.5512 14.6577 15.8563 14.5395 16.0929C14.4213 16.3293 14.2015 16.4907 13.88 16.5768C13.6281 16.6443 13.3651 16.6357 13.0909 16.5508C12.8168 16.466 12.5173 16.3041 12.1926 16.0651L11.0613 18.4636C11.5537 18.8067 12.1195 19.0159 12.7589 19.0912C13.3985 19.1667 14.0744 19.109 14.7867 18.9182Z" fill="black"/>
<path fill-rule="evenodd" clip-rule="evenodd" d="M25.0715 28.4367C26.3155 29.0167 27.4414 29.134 28.4492 28.7884C29.457 28.4429 30.2427 27.6656 30.8063 26.4568L32.8798 22.0103L30.1909 20.7564L28.1551 25.1221C27.8787 25.7149 27.5714 26.0966 27.2333 26.267C26.8951 26.4373 26.5251 26.4289 26.1233 26.2415C25.7215 26.0542 25.4772 25.7762 25.3904 25.4077C25.3035 25.0391 25.3983 24.5584 25.6748 23.9655L27.7105 19.5999L24.9753 18.3243L22.9019 22.7709C22.3382 23.9797 22.2478 25.0812 22.631 26.0753C23.0139 27.0694 23.8276 27.8566 25.0715 28.4367Z" fill="black"/>
<path fill-rule="evenodd" clip-rule="evenodd" d="M37.9927 15.8988L40.2322 17.0914L42.3233 13.1576L43.57 18.8656L45.5042 19.8949L49.4993 12.3811L47.2578 11.19L45.1667 15.1237L43.9198 9.41379L41.985 8.38574L37.9927 15.8988Z" fill="black"/>
</g>
</g>
</svg>
