<svg width="69" height="14" viewBox="0 0 69 14" fill="none" xmlns="http://www.w3.org/2000/svg">
<g clip-path="url(#clip0_2_3900)">
<g clip-path="url(#clip1_2_3900)">
<mask id="mask0_2_3900" style="mask-type:luminance" maskUnits="userSpaceOnUse" x="0" y="0" width="69" height="13">
<path d="M68.6223 0.909912H0.276855V12.9978H68.6223V0.909912Z" fill="white"/>
</mask>
<g mask="url(#mask0_2_3900)">
<path d="M5.14274 12.9979C3.75424 12.9979 2.59306 12.5287 1.6592 11.5903C0.737638 10.6518 0.276855 9.49108 0.276855 8.10811C0.276856 6.72508 0.737641 5.5644 1.65921 4.62594C2.59307 3.68749 3.75424 3.21826 5.14274 3.21826C6.03974 3.21827 6.85687 3.43436 7.59409 3.86654C8.33137 4.29872 8.89043 4.87908 9.27135 5.60762L7.22548 6.81154C7.04118 6.42876 6.75857 6.12624 6.37766 5.90397C6.00899 5.68171 5.59124 5.57057 5.12431 5.57057C4.41163 5.57057 3.82183 5.81136 3.3549 6.29293C2.88797 6.76216 2.65451 7.36719 2.6545 8.10811C2.6545 8.83662 2.88796 9.4417 3.3549 9.92325C3.82182 10.3925 4.41162 10.6271 5.1243 10.6271C5.60352 10.6271 6.02744 10.5221 6.39605 10.3123C6.77696 10.09 7.05957 9.78742 7.24393 9.40462L9.30819 10.5901C8.90273 11.3186 8.33137 11.9051 7.59409 12.3496C6.85687 12.7819 6.03974 12.9979 5.14274 12.9979Z" fill="black"/>
<path d="M25.857 3.23438C26.8708 3.23438 27.7053 3.57258 28.3606 4.249C29.0281 4.92541 29.3619 5.86009 29.3619 7.05302V12.7165H26.9697V7.34822C26.9697 6.73328 26.8028 6.26593 26.469 5.94618C26.1352 5.61412 25.6901 5.44809 25.1338 5.44809C24.5156 5.44809 24.0211 5.63872 23.6502 6.01996C23.2793 6.40122 23.0939 6.97312 23.0939 7.73562V12.7165H20.7017V3.49264H23.0939V4.52571C23.675 3.66482 24.596 3.23438 25.857 3.23438Z" fill="black"/>
<path d="M36.1593 5.78009H34.0638V9.61718C34.0638 9.93698 34.1441 10.1706 34.3048 10.3182C34.4655 10.4658 34.7005 10.5519 35.0095 10.5765C35.3186 10.5888 35.7018 10.5826 36.1593 10.558V12.7164C34.515 12.9009 33.3529 12.7471 32.6729 12.2552C32.0053 11.7633 31.6715 10.8839 31.6715 9.61718V5.78009L30.0581 5.78008V3.49258H31.6715V1.62937L34.0638 0.909912V3.49258H36.1593V5.78009Z" fill="black"/>
<path d="M40.383 5.07907C40.6055 4.48875 40.9702 4.04601 41.4771 3.75085C41.9963 3.45569 42.5712 3.3081 43.2017 3.30811V5.96456C42.4723 5.87848 41.8171 6.02606 41.236 6.4073C40.6673 6.78855 40.383 7.42194 40.383 8.30742V12.7164H37.9907V3.49258H40.383V5.07907Z" fill="black"/>
<path fill-rule="evenodd" clip-rule="evenodd" d="M53.3906 3.49264H51.0593V4.58105C50.3423 3.68327 49.3347 3.23438 48.0366 3.23438C46.8003 3.23438 45.737 3.70786 44.8469 4.65484C43.9692 5.58952 43.5303 6.73943 43.5303 8.10458C43.5303 9.46966 43.9692 10.6257 44.8469 11.5727C45.737 12.5074 46.8003 12.9747 48.0366 12.9747C49.3347 12.9747 50.3423 12.5258 51.0593 11.6281V12.7165H53.3906V3.49264ZM46.4688 10.0195C46.9557 10.5067 47.5736 10.7504 48.3227 10.7504C49.0717 10.7504 49.6896 10.5067 50.1765 10.0195C50.6758 9.51978 50.9255 8.88263 50.9255 8.10805C50.9255 7.33347 50.6758 6.70258 50.1765 6.21532C49.6896 5.71559 49.0717 5.46572 48.3227 5.46572C47.5736 5.46572 46.9557 5.71558 46.4688 6.21532C45.982 6.70258 45.7386 7.33347 45.7386 8.10805C45.7386 8.88263 45.982 9.51978 46.4688 10.0195Z" fill="black"/>
<path d="M57.2671 6.1122C57.2671 6.35817 57.4277 6.5611 57.7489 6.72098C58.0832 6.86855 58.4847 7.00381 58.9546 7.12684C59.4245 7.2375 59.8944 7.38507 60.3637 7.56954C60.8335 7.74177 61.2294 8.03691 61.5506 8.45507C61.8844 8.87318 62.0512 9.39591 62.0512 10.0231C62.0512 10.9701 61.693 11.7018 60.9759 12.2184C60.2714 12.7226 59.3875 12.9747 58.3241 12.9747C56.4201 12.9747 55.122 12.2429 54.4297 10.7794L56.5066 9.61723C56.7787 10.4166 57.3844 10.8164 58.3241 10.8164C59.1773 10.8164 59.6033 10.5519 59.6033 10.0231C59.6033 9.77716 59.4364 9.58038 59.1027 9.43275C58.7815 9.27288 58.3856 9.13147 57.9163 9.0085C57.4465 8.88548 56.9765 8.73176 56.5066 8.54728C56.0369 8.36281 55.6351 8.07382 55.3013 7.68026C54.9798 7.27441 54.8191 6.77019 54.8191 6.16755C54.8191 5.25746 55.1529 4.54415 55.8205 4.02762C56.5005 3.49879 57.3411 3.23438 58.3423 3.23438C59.097 3.23438 59.7827 3.40655 60.4013 3.75091C61.0192 4.08296 61.5073 4.56261 61.8661 5.18982L59.826 6.29668C59.5293 5.66946 59.0349 5.35585 58.3423 5.35585C58.0337 5.35585 57.7739 5.42349 57.5638 5.55878C57.3661 5.69406 57.2671 5.87854 57.2671 6.1122Z" fill="black"/>
<path d="M68.6225 5.78009H66.5271V9.61718C66.5271 9.93698 66.6074 10.1706 66.768 10.3182C66.9286 10.4658 67.1638 10.5519 67.4725 10.5765C67.7818 10.5888 68.1651 10.5826 68.6225 10.558V12.7164C66.9782 12.9009 65.8163 12.7471 65.1363 12.2552C64.4688 11.7633 64.1344 10.8839 64.1344 9.61718V5.78009L62.5215 5.78008V3.49258H64.1344V1.62937L66.5271 0.909912V3.49258H68.6225V5.78009Z" fill="black"/>
<path fill-rule="evenodd" clip-rule="evenodd" d="M19.6211 8.10789C19.6211 5.40728 17.4217 3.21802 14.7088 3.21802C11.9957 3.21802 9.79639 5.40728 9.79639 8.10789C9.79639 10.8084 11.9957 12.9977 14.7088 12.9977C17.4217 12.9977 19.6211 10.8084 19.6211 8.10789ZM17.6201 8.10789C17.6201 9.70837 16.3167 11.0059 14.7088 11.0059C13.8023 11.0059 12.9927 10.5936 12.4588 9.94712L16.5565 5.86819C17.2059 6.3997 17.6201 7.20562 17.6201 8.10789Z" fill="black"/>
</g>
</g>
</g>
<defs>
<clipPath id="clip0_2_3900">
<rect width="68.38" height="12.53" fill="white" transform="translate(0.259766 0.909912)"/>
</clipPath>
<clipPath id="clip1_2_3900">
<rect width="68.3455" height="12.53" fill="white" transform="translate(0.276855 0.909912)"/>
</clipPath>
</defs>
</svg>
