<svg width="69" height="20" viewBox="0 0 69 20" fill="none" xmlns="http://www.w3.org/2000/svg">
<g clip-path="url(#clip0_2_3812)">
<mask id="mask0_2_3812" style="mask-type:luminance" maskUnits="userSpaceOnUse" x="0" y="0" width="69" height="19">
<path d="M68.6281 0.0200195H0.270996V18.5847H68.6281V0.0200195Z" fill="white"/>
</mask>
<g mask="url(#mask0_2_3812)">
<path fill-rule="evenodd" clip-rule="evenodd" d="M50.3206 3.71941C50.0438 3.99608 49.7955 4.29972 49.5793 4.62583C49.363 4.29972 49.1148 3.99608 48.838 3.71941C48.293 3.17429 47.6459 2.7419 46.9337 2.44692C46.2216 2.15194 45.4583 2.00017 44.6874 2.00024H32.4891V3.49245C31.4138 2.53147 30.0222 2.00027 28.5801 2.00024H22.2515C20.6948 2.00024 19.2019 2.61864 18.101 3.71941C17.8243 3.99608 17.576 4.29972 17.3598 4.62583C17.1435 4.29972 16.8952 3.99608 16.6184 3.71941C15.5177 2.61864 14.0247 2.00024 12.4679 2.00024H0.270996V18.4847H12.4693C13.2402 18.4847 14.0035 18.3328 14.7157 18.0378C15.4278 17.7426 16.0749 17.3101 16.6199 16.7648C16.8969 16.4884 17.1452 16.1848 17.3612 15.8584C17.577 16.1848 17.8254 16.4884 18.1024 16.7648C18.6474 17.3101 19.2943 17.7426 20.0065 18.0378C20.7187 18.3328 21.4821 18.4847 22.253 18.4847H28.5815C30.0237 18.4847 31.4152 17.9535 32.4906 16.9925V18.4847H42.5032V15.3225H44.6889C45.4597 15.3227 46.223 15.1708 46.9352 14.8759C47.6473 14.5809 48.2943 14.1486 48.8394 13.6034C48.9148 13.5279 48.9879 13.451 49.0587 13.3723H52.6304V18.4847H62.6431V13.3723H66.6687V2.00024H54.4705C53.6997 2.00018 52.9365 2.15197 52.2244 2.44695C51.5124 2.74193 50.8655 3.17432 50.3206 3.71941Z" fill="black" fill-opacity="0.25"/>
<path d="M14.4267 1.02148H3.20703V15.5487H14.4267C15.724 15.5485 16.9683 15.0332 17.886 14.1162C18.803 13.1985 19.3183 11.9544 19.3185 10.657V5.91316C19.3185 4.61601 18.8032 3.37199 17.886 2.45469C17.4317 2.00035 16.8925 1.63993 16.2989 1.39402C15.7054 1.1481 15.0692 1.02152 14.4267 1.02148Z" fill="white"/>
<path fill-rule="evenodd" clip-rule="evenodd" d="M2.22803 0.0429688H14.4264C15.9831 0.0429695 17.4761 0.661374 18.577 1.76214C19.6777 2.8629 20.2961 4.35587 20.2961 5.91258V10.6571C20.2961 12.2138 19.6777 13.7067 18.577 14.8075C17.4761 15.9083 15.9831 16.5268 14.4264 16.5268H2.22803V0.0429688ZM4.18463 1.99952V14.5702H14.4264C14.9403 14.5702 15.4491 14.469 15.9239 14.2725C16.3988 14.0759 16.8302 13.7877 17.1936 13.4242C17.557 13.061 17.8452 12.6295 18.0418 12.1547C18.2385 11.6799 18.3395 11.171 18.3395 10.6571V5.91327C18.3393 4.87548 17.9272 3.88019 17.1936 3.14609C16.8302 2.78274 16.3988 2.49452 15.9239 2.29791C15.4491 2.1013 14.9403 2.00015 14.4264 2.00021L4.18463 1.99952Z" fill="black"/>
<path fill-rule="evenodd" clip-rule="evenodd" d="M12.2441 11.9462V5.49146H14.2007V11.9462H12.2441Z" fill="black"/>
<path d="M46.647 1.02148H35.4268V15.5487H43.4828V12.3867H46.647C47.9443 12.3865 49.1883 11.8712 50.1056 10.9541C51.0228 10.0368 51.5381 8.79278 51.5381 7.49564V5.91316C51.5381 4.61601 51.0228 3.37199 50.1056 2.45469C49.6515 2.0003 49.1124 1.63987 48.519 1.39394C47.9255 1.14803 47.2894 1.02146 46.647 1.02148Z" fill="white"/>
<path fill-rule="evenodd" clip-rule="evenodd" d="M34.4482 0.0429688H46.6466C48.2034 0.0429695 49.6963 0.661374 50.7972 1.76214C51.898 2.8629 52.5165 4.35587 52.5165 5.91258V7.49575C52.5165 9.05245 51.898 10.5454 50.7972 11.6461C49.6963 12.7469 48.2034 13.3654 46.6466 13.3654H44.4602V16.5268H34.4482V0.0429688ZM36.405 1.99952V14.5702H42.5037V11.4088H46.6466C47.6845 11.4086 48.6797 10.9965 49.4139 10.2629C50.1474 9.52876 50.5597 8.53348 50.5597 7.49575V5.91327C50.5597 4.87548 50.1474 3.88019 49.4139 3.14609C48.6797 2.41253 47.6845 2.00039 46.6466 2.00021L36.405 1.99952Z" fill="black"/>
<path fill-rule="evenodd" clip-rule="evenodd" d="M44.4683 9.4412V5.48926H46.4256V9.4412H44.4683Z" fill="black"/>
<path d="M30.54 1.02148H24.2114C23.5691 1.02137 22.9331 1.14782 22.3397 1.39363C21.7462 1.63943 21.207 1.99974 20.7529 2.454C20.2986 2.90811 19.9383 3.44728 19.6924 4.0407C19.4467 4.63412 19.3202 5.27016 19.3203 5.91247V10.657C19.3203 11.2994 19.4468 11.9356 19.6926 12.5291C19.9383 13.1226 20.2987 13.6619 20.7529 14.1162C21.6703 15.0334 22.9142 15.5487 24.2114 15.5487H30.54C31.8374 15.5485 33.0816 15.0332 33.9993 14.1162C34.9164 13.1985 35.4317 11.9544 35.4318 10.657V5.91316C35.4318 4.61601 34.9164 3.37199 33.9993 2.4547C33.545 2.00036 33.0058 1.63993 32.4121 1.39402C31.8187 1.1481 31.1825 1.02152 30.54 1.02148Z" fill="white"/>
<path fill-rule="evenodd" clip-rule="evenodd" d="M20.0593 1.76214C21.1599 0.661374 22.653 0.0429695 24.2097 0.0429688H30.5396C32.0965 0.0429695 33.5894 0.661374 34.6903 1.76214C35.7911 2.8629 36.4095 4.35587 36.4095 5.91258V10.6571C36.4095 12.2138 35.7911 13.7067 34.6903 14.8075C33.5894 15.9083 32.0965 16.5268 30.5396 16.5268H24.2111C22.6544 16.5268 21.1615 15.9083 20.0606 14.8075C18.9597 13.7067 18.3413 12.2138 18.3413 10.6571V5.91327C18.3411 5.14244 18.4927 4.37911 18.7874 3.66686C19.0822 2.95461 19.5144 2.30737 20.0593 1.76214ZM24.2097 1.99952C23.172 1.99969 22.1766 2.41183 21.4425 3.14539C20.7089 3.87951 20.2968 4.87477 20.2965 5.91258V10.6571C20.2965 11.171 20.3977 11.6799 20.5943 12.1547C20.7909 12.6295 21.0792 13.061 21.4425 13.4242C22.1766 14.1578 23.172 14.57 24.2097 14.5702H30.5396C31.5776 14.5702 32.5729 14.158 33.307 13.4242C33.6703 13.061 33.9585 12.6295 34.1552 12.1547C34.3518 11.6799 34.4529 11.171 34.4528 10.6571V5.91327C34.4527 4.87548 34.0405 3.88019 33.307 3.14609C32.9436 2.78274 32.5122 2.49452 32.0373 2.29791C31.5625 2.1013 31.0535 2.00015 30.5396 2.00021L24.2097 1.99952Z" fill="black"/>
<path fill-rule="evenodd" clip-rule="evenodd" d="M26.3932 5.49146V11.9462H24.4365V5.49146H26.3932Z" fill="black"/>
<path d="M67.6498 1.02148H56.428C55.7856 1.02137 55.1495 1.14782 54.5562 1.39363C53.9627 1.63943 53.4235 1.99974 52.9693 2.454C52.515 2.90807 52.1546 3.44722 51.9087 4.04065C51.6627 4.63406 51.5361 5.27011 51.5361 5.91247V10.4363H55.5617V15.5487H63.6178V10.4363H67.6435L67.6498 1.02148Z" fill="white"/>
<path fill-rule="evenodd" clip-rule="evenodd" d="M52.2794 1.76214C53.3803 0.661374 54.8733 0.0429695 56.43 0.0429688H68.6283V11.4143H64.6028V16.5268H54.5901V11.4143H50.5645V5.91327C50.5631 4.3569 51.1801 2.86375 52.2794 1.76214ZM56.43 1.99952C55.9161 1.99946 55.4073 2.10061 54.9325 2.29722C54.4576 2.49383 54.0262 2.78204 53.6628 3.14539C52.9292 3.87951 52.5171 4.87477 52.5168 5.91258V9.4578H56.5424V14.5702H62.6419V9.4578H66.6676V1.99952H56.43Z" fill="black"/>
</g>
</g>
<defs>
<clipPath id="clip0_2_3812">
<rect width="68.3571" height="19.14" fill="white" transform="translate(0.270996 0.0200195)"/>
</clipPath>
</defs>
</svg>
