<svg width="106" height="40" viewBox="0 0 106 40" fill="none" xmlns="http://www.w3.org/2000/svg">
<g clip-path="url(#clip0_2_5345)">
<path d="M0 5.54062H12.1887L20.5915 13.946V22.9971L6.88068 9.3589L6.8379 34.461H0V5.54062Z" fill="black"/>
<path d="M30.6384 34.4609H18.4523L10.0508 26.0542V16.9992L23.7616 30.6348L23.8031 5.53918H30.6384V34.4609Z" fill="black"/>
</g>
<path d="M52.3212 27H48.1679L42.9215 17.8189V27H38.9868V11.6982H43.1401L48.3865 20.8793V11.6982H52.3212V27ZM59.2173 17.9282C58.6344 17.9282 58.3429 18.2197 58.3429 18.8026V20.0049H62.0591V18.8026C62.0591 18.2197 61.7676 17.9282 61.1847 17.9282H59.2173ZM65.4473 26.7814C62.6347 27.0729 60.0844 27.2186 57.7964 27.2186C56.8054 27.2186 56.0112 26.9199 55.4137 26.3224C54.8162 25.7249 54.5174 24.9306 54.5174 23.9397V18.6933C54.5174 17.6004 54.8235 16.7478 55.4356 16.1357C56.0622 15.5091 56.922 15.1958 58.015 15.1958H62.3869C63.4799 15.1958 64.3325 15.5091 64.9445 16.1357C65.5712 16.7478 65.8845 17.6004 65.8845 18.6933V22.7374H58.3429V23.6118C58.3429 23.8304 58.4158 24.0125 58.5615 24.1583C58.7072 24.304 58.8894 24.3769 59.108 24.3769C60.5507 24.3769 62.6638 24.2676 65.4473 24.049V26.7814ZM74.4064 15.4144H78.669L75.1715 21.2072L78.7783 27H74.5157L72.5483 23.5025L70.5809 27H66.3183L69.9251 21.2072L66.4276 15.4144H70.6902L72.5483 18.9119L74.4064 15.4144ZM85.0041 24.049C85.7764 24.049 86.6508 23.9032 87.6272 23.6118V15.4144H91.4527V27H88.0644L87.8458 25.907C87.1609 26.3588 86.4541 26.694 85.7254 26.9126C85.0114 27.1166 84.4066 27.2186 83.9111 27.2186H82.9274C81.9364 27.2186 81.1422 26.9199 80.5447 26.3224C79.9472 25.7249 79.6484 24.9306 79.6484 23.9397V15.4144H83.4739V23.2839C83.4739 23.5025 83.5468 23.6846 83.6925 23.8304C83.8382 23.9761 84.0204 24.049 84.239 24.049H85.0041ZM93.1938 23.9397C96.1521 24.1583 98.4838 24.2676 100.189 24.2676C100.407 24.2676 100.59 24.1947 100.735 24.049C100.881 23.9032 100.954 23.7211 100.954 23.5025V22.7374H96.2541C95.2632 22.7374 94.4689 22.4386 93.8714 21.8411C93.2739 21.2436 92.9752 20.4494 92.9752 19.4584V18.6933C92.9752 17.7024 93.2739 16.9081 93.8714 16.3106C94.4689 15.7131 95.2632 15.4144 96.2541 15.4144H103.686V18.2561H97.5657C97.3471 18.2561 97.165 18.329 97.0192 18.4747C96.8735 18.6205 96.8006 18.8026 96.8006 19.0212C96.8006 19.2398 96.8735 19.422 97.0192 19.5677C97.165 19.7135 97.3471 19.7863 97.5657 19.7863H101.5C102.491 19.7863 103.286 20.0851 103.883 20.6826C104.481 21.2801 104.779 22.0743 104.779 23.0653V23.9397C104.779 24.9306 104.481 25.7249 103.883 26.3224C103.286 26.9199 102.491 27.2186 101.5 27.2186C98.921 27.2186 96.1521 27.0729 93.1938 26.7814V23.9397Z" fill="#171618"/>
<defs>
<clipPath id="clip0_2_5345">
<rect width="30.6383" height="30.6383" fill="white" transform="translate(0 4.68088)"/>
</clipPath>
</defs>
</svg>
