<svg width="70" height="21" viewBox="0 0 70 21" fill="none" xmlns="http://www.w3.org/2000/svg">
<g clip-path="url(#clip0_2_3843)">
<g clip-path="url(#clip1_2_3843)">
<mask id="mask0_2_3843" style="mask-type:luminance" maskUnits="userSpaceOnUse" x="0" y="0" width="70" height="21">
<path d="M69.0267 0.901611H0.672852V20.2686H69.0267V0.901611Z" fill="white"/>
</mask>
<g mask="url(#mask0_2_3843)">
<path fill-rule="evenodd" clip-rule="evenodd" d="M20.8713 0.945312V15.8216H16.9203V0.945312H20.8713ZM16.0376 6.72081V15.8216H0.672852V10.0295L8.35521 6.72081V10.0295L16.0376 6.72081Z" fill="black"/>
<path d="M27.3641 15.8213V9.14827H29.2684V7.06409H27.3641V5.89402C27.3641 5.05303 27.7608 4.63253 28.5543 4.63253C28.8473 4.63253 29.1768 4.68128 29.543 4.77879V2.74945C29.0547 2.61538 28.5482 2.54834 28.0233 2.54834C26.9979 2.54834 26.2167 2.81953 25.6796 3.36191C25.1425 3.90428 24.874 4.69348 24.874 5.72948V7.06409H23.6289V9.14827H24.874V15.8213H27.3641ZM33.6644 16.1139C34.8728 16.1139 35.825 15.6507 36.5207 14.7244H36.594V15.8213H38.9743V7.06409H36.594V8.19759H36.5207C35.8982 7.2835 35.0071 6.82642 33.8475 6.82642C32.6878 6.82642 31.7021 7.25302 30.8904 8.10621C30.0787 8.95935 29.6727 10.0685 29.6727 11.4336C29.6727 12.2258 29.7979 12.9327 30.0481 13.5544C30.2983 14.1759 30.628 14.6665 31.0368 15.0261C31.4458 15.3856 31.873 15.6568 32.3186 15.8397C32.7641 16.0225 33.2127 16.1139 33.6644 16.1139ZM34.2397 13.9748C33.456 13.9748 32.8516 13.728 32.4266 13.2344C32.0015 12.7408 31.789 12.1466 31.789 11.4519C31.789 10.7693 32.0048 10.1782 32.4365 9.67846C32.8682 9.17875 33.4759 8.92892 34.2596 8.92892C34.937 8.92892 35.5015 9.16351 35.9532 9.63274C36.4048 10.102 36.6306 10.7145 36.6306 11.4702C36.6306 12.1892 36.3948 12.7865 35.9233 13.2618C35.4517 13.7372 34.8905 13.9748 34.2397 13.9748ZM45.0161 16.1139C46.1269 16.1139 47.0942 15.6873 47.9182 14.8341C48.7422 13.9809 49.1542 12.8657 49.1542 11.4884C49.1542 10.7206 49.029 10.0258 48.7788 9.40426C48.5285 8.78263 48.205 8.29206 47.8084 7.93253C47.4116 7.57294 46.9874 7.29874 46.5358 7.10981C46.0841 6.92089 45.6386 6.82642 45.1992 6.82642C44.0517 6.82642 43.0874 7.25302 42.3062 8.10621H42.2329V2.65804H39.8526V15.8213H42.2695V14.8524H42.3428C42.9898 15.6934 43.8808 16.1139 45.0161 16.1139ZM44.5003 14.0114C43.8603 14.0114 43.3163 13.7738 42.8683 13.2984C42.4203 12.823 42.1963 12.2197 42.1963 11.4884C42.1963 10.745 42.4171 10.1386 42.8587 9.66933C43.3003 9.2001 43.8411 8.96545 44.4811 8.96545C45.2491 8.96545 45.8379 9.20923 46.2474 9.69678C46.6571 10.1843 46.8618 10.7815 46.8618 11.4884C46.8618 12.1588 46.6539 12.7469 46.2379 13.2527C45.8218 13.7585 45.2427 14.0114 44.5003 14.0114ZM52.2795 15.8213V11.5616C52.2795 10.7693 52.4656 10.1569 52.8379 9.72418C53.2102 9.29148 53.7565 9.07516 54.4767 9.07516C54.8429 9.07516 55.2335 9.11174 55.6485 9.18486V6.88128C55.441 6.83253 55.1724 6.80816 54.8429 6.80816C54.2936 6.80816 53.7931 6.9605 53.3414 7.26518C52.8898 7.56991 52.5358 7.95382 52.2795 8.417H52.2245V7.06409H49.8076V15.8213H52.2795ZM58.8902 15.8213V7.06409H56.4184V15.8213H58.8902ZM69.0273 20.1177V7.06409H66.6102V8.06963H66.5368C65.8779 7.20428 64.9989 6.77157 63.9002 6.77157C62.7409 6.77157 61.7549 7.2073 60.943 8.07876C60.1317 8.95021 59.7255 10.0685 59.7255 11.4336C59.7255 12.2258 59.8538 12.9327 60.1099 13.5544C60.3665 14.1759 60.6959 14.6665 61.0988 15.0261C61.5016 15.3856 61.9291 15.6599 62.3807 15.8488C62.8323 16.0377 63.2777 16.1322 63.717 16.1322C64.9014 16.1322 65.8533 15.7116 66.5738 14.8707H66.6466V20.1177H69.0273ZM64.1344 8.87407C64.7876 8.87407 65.3311 9.11779 65.7664 9.60535C66.2018 10.0929 66.4192 10.7145 66.4192 11.4702C66.4192 12.1892 66.1923 12.7895 65.7379 13.271C65.2835 13.7524 64.7428 13.9931 64.1153 13.9931C63.3601 13.9931 62.7779 13.7433 62.3684 13.2436C61.9588 12.7438 61.7537 12.1466 61.7537 11.4519C61.7537 10.7571 61.9588 10.1538 62.3684 9.64193C62.7908 9.13001 63.3797 8.87407 64.1344 8.87407ZM58.9636 2.87742V5.23585H56.3635V2.87742H58.9636Z" fill="black"/>
</g>
</g>
</g>
<defs>
<clipPath id="clip0_2_3843">
<rect width="68.38" height="20.17" fill="white" transform="translate(0.659668 0.5)"/>
</clipPath>
<clipPath id="clip1_2_3843">
<rect width="68.3539" height="20.17" fill="white" transform="translate(0.672852 0.5)"/>
</clipPath>
</defs>
</svg>
