<svg width="50" height="51" viewBox="0 0 50 51" fill="none" xmlns="http://www.w3.org/2000/svg">
<g clip-path="url(#clip0_107_226)">
<g clip-path="url(#clip1_107_226)">
<path d="M17.5771 48.6836C26.1672 48.6836 33.1308 41.7199 33.1308 33.1299C33.1308 24.5398 26.1672 17.5762 17.5771 17.5762C8.98707 17.5762 2.02344 24.5398 2.02344 33.1299C2.02344 41.7199 8.98707 48.6836 17.5771 48.6836Z" fill="#27E2A0" stroke="black" stroke-width="4"/>
<path d="M32.4209 33.9985C41.011 33.9985 47.9746 27.0349 47.9746 18.4448C47.9746 9.85474 41.011 2.89111 32.4209 2.89111C23.8308 2.89111 16.8672 9.85474 16.8672 18.4448C16.8672 27.0349 23.8308 33.9985 32.4209 33.9985Z" fill="#F2BBFB" stroke="black" stroke-width="4"/>
<path fill-rule="evenodd" clip-rule="evenodd" d="M16.8902 17.5913C17.118 17.5814 17.347 17.5764 17.5771 17.5764C26.1672 17.5764 33.1309 24.54 33.1309 33.1301C33.1309 33.4165 33.1231 33.7011 33.1078 33.9837C32.8801 33.9936 32.6511 33.9986 32.4209 33.9986C23.8308 33.9986 16.8672 27.0349 16.8672 18.4449C16.8672 18.1585 16.8749 17.8739 16.8902 17.5913Z" fill="white"/>
<path d="M16.8902 17.5913L16.8034 15.5932L14.9911 15.6719L14.8931 17.4833L16.8902 17.5913ZM33.1078 33.9837L33.1947 35.9818L35.007 35.903L35.1049 34.0917L33.1078 33.9837ZM16.977 19.5894C17.1759 19.5808 17.3759 19.5764 17.5771 19.5764V15.5764C17.318 15.5764 17.06 15.582 16.8034 15.5932L16.977 19.5894ZM17.5771 19.5764C25.0627 19.5764 31.1309 25.6446 31.1309 33.1301H35.1309C35.1309 23.4354 27.2718 15.5764 17.5771 15.5764V19.5764ZM31.1309 33.1301C31.1309 33.3804 31.1241 33.629 31.1108 33.8757L35.1049 34.0917C35.1221 33.7732 35.1309 33.4525 35.1309 33.1301H31.1309ZM33.021 31.9856C32.8222 31.9942 32.6221 31.9986 32.4209 31.9986V35.9986C32.6801 35.9986 32.938 35.9929 33.1947 35.9818L33.021 31.9856ZM32.4209 31.9986C24.9354 31.9986 18.8672 25.9304 18.8672 18.4449H14.8672C14.8672 28.1395 22.7263 35.9986 32.4209 35.9986V31.9986ZM18.8672 18.4449C18.8672 18.1945 18.874 17.9459 18.8873 17.6993L14.8931 17.4833C14.8759 17.8018 14.8672 18.1224 14.8672 18.4449H18.8672Z" fill="black"/>
</g>
</g>
<defs>
<clipPath id="clip0_107_226">
<rect width="50" height="50" fill="white" transform="translate(0 0.867432)"/>
</clipPath>
<clipPath id="clip1_107_226">
<rect width="50" height="50" fill="white" transform="translate(0 0.867432)"/>
</clipPath>
</defs>
</svg>
