<svg width="21" height="21" viewBox="0 0 21 21" fill="none" xmlns="http://www.w3.org/2000/svg">
<g clip-path="url(#clip0_2_1546)">
<path d="M4.97739 12.0149C2.70192 12.0149 0.859863 13.8571 0.859863 16.1325C0.859863 18.408 2.70192 20.25 4.97739 20.25C7.25286 20.25 9.09492 18.408 9.09492 16.1325V14.3655H12.6248V16.1325C12.6248 18.408 14.4669 20.25 16.7424 20.25C19.0179 20.25 20.8599 18.408 20.8599 16.1325C20.8599 13.8571 19.0179 12.0149 16.7424 12.0149H14.9753V8.48505H16.7424C19.0179 8.48505 20.8599 6.643 20.8599 4.36753C20.8599 2.09205 19.0179 0.25 16.7424 0.25C14.4669 0.25 12.6248 2.09205 12.6248 4.36753V6.13456H9.09492V4.36753C9.09492 2.09205 7.25286 0.25 4.97739 0.25C2.70192 0.25 0.859863 2.08788 0.859863 4.36336C0.859863 6.63883 2.70192 8.48088 4.97739 8.48088H6.74442V12.0107H4.97739V12.0149ZM6.74442 16.1325C6.74442 17.1077 5.95259 17.8995 4.97739 17.8995C4.00218 17.8995 3.21035 17.1077 3.21035 16.1325C3.21035 15.1573 4.00218 14.3655 4.97739 14.3655H6.74442V16.1325ZM14.9794 4.36336C14.9794 3.38816 15.7713 2.59633 16.7465 2.59633C17.7218 2.59633 18.5135 3.38816 18.5135 4.36336C18.5135 5.33856 17.7218 6.13039 16.7465 6.13039H14.9794V4.36336ZM14.9794 14.3655H16.7465C17.7218 14.3655 18.5135 15.1573 18.5135 16.1325C18.5135 17.1077 17.7218 17.8995 16.7465 17.8995C15.7713 17.8995 14.9794 17.1077 14.9794 16.1325V14.3655ZM9.09492 8.48088H12.6248V12.0107H9.09492V8.48088ZM4.97739 6.13039C4.00218 6.13039 3.21035 5.33856 3.21035 4.36336C3.21035 3.38816 4.00218 2.59633 4.97739 2.59633C5.95259 2.59633 6.74442 3.38816 6.74442 4.36336V6.13039H4.97739Z" fill="#171618"/>
</g>
<defs>
<clipPath id="clip0_2_1546">
<rect width="20" height="20" fill="white" transform="translate(0.859863 0.25)"/>
</clipPath>
</defs>
</svg>
