<svg width="22" height="21" viewBox="0 0 22 21" fill="none" xmlns="http://www.w3.org/2000/svg">
<g clip-path="url(#clip0_2_5215)">
<path d="M11.2695 1.26172C5.92781 1.26172 1.58203 5.6075 1.58203 10.9492C1.58203 16.2909 5.92781 20.6367 11.2695 20.6367C16.6112 20.6367 20.957 16.2909 20.957 10.9492C20.957 5.6075 16.6112 1.26172 11.2695 1.26172ZM17.6746 5.72914C18.827 7.13719 19.5249 8.93059 19.5431 10.8836C19.2703 10.8259 16.5346 10.2711 13.7813 10.6173C13.5566 10.0688 13.3446 9.58633 13.0541 8.99176C16.1135 7.74266 17.5001 5.96512 17.6746 5.72914ZM16.7547 4.77227C16.6059 4.98426 15.3603 6.65844 12.4179 7.76129C11.062 5.27004 9.55918 3.22348 9.33047 2.91723C11.9545 2.28469 14.7197 2.96684 16.7547 4.77227ZM7.7516 3.47344C7.96976 3.77262 9.4484 5.82172 10.8194 8.25895C6.94887 9.2868 3.53976 9.27199 3.16969 9.26711C3.70625 6.69942 5.43664 4.56535 7.7516 3.47344ZM2.99492 10.9618C2.99492 10.8772 2.9966 10.793 2.99914 10.709C3.36117 10.7164 7.37101 10.7681 11.5033 9.53141C11.7401 9.995 11.9664 10.4656 12.1741 10.9357C9.18199 11.7784 6.46344 14.1984 5.12215 16.4945C3.80055 15.0275 2.99492 13.0871 2.99492 10.9618ZM6.19051 17.4897C7.05484 15.7228 9.40058 13.4419 12.7365 12.3039C13.8982 15.3228 14.3787 17.8528 14.5017 18.5788C11.8411 19.7121 8.6418 19.4012 6.19051 17.4897ZM15.8928 17.8213C15.808 17.3179 15.3676 14.8956 14.2853 11.9215C16.8783 11.5065 19.1564 12.1859 19.4395 12.2753C19.0707 14.5776 17.7491 16.566 15.8928 17.8213Z" fill="#171618"/>
</g>
<defs>
<clipPath id="clip0_2_5215">
<rect width="21" height="20" fill="white" transform="translate(0.769531 0.949219)"/>
</clipPath>
</defs>
</svg>
