<svg width="18" height="18" viewBox="0 0 18 18" fill="none" xmlns="http://www.w3.org/2000/svg">
<g clip-path="url(#clip0_2_5218)">
<path d="M17.6881 17.2118L17.6921 17.2111V11.1467C17.6921 8.1799 17.0627 5.89453 13.6446 5.89453C12.0014 5.89453 10.8987 6.80951 10.4486 7.67694H10.401V6.17151H7.16016V17.2111H10.5348V11.7447C10.5348 10.3054 10.8037 8.91368 12.5602 8.91368C14.291 8.91368 14.3168 10.5562 14.3168 11.837V17.2118H17.6881Z" fill="#171618"/>
<path d="M1.66211 6.16797H5.04083V17.2076H1.66211V6.16797Z" fill="#171618"/>
<path d="M3.35142 0.675781C2.27112 0.675781 1.39453 1.56527 1.39453 2.66145C1.39453 3.75762 2.27112 4.66571 3.35142 4.66571C4.43171 4.66571 5.3083 3.75762 5.3083 2.66145C5.30762 1.56527 4.43103 0.675781 3.35142 0.675781Z" fill="#171618"/>
</g>
<defs>
<clipPath id="clip0_2_5218">
<rect width="17" height="17" fill="white" transform="translate(0.769531 0.449219)"/>
</clipPath>
</defs>
</svg>
