<svg width="20" height="17" viewBox="0 0 20 17" fill="none" xmlns="http://www.w3.org/2000/svg">
<g clip-path="url(#clip0_2_5212)">
<path d="M19.5399 3.23119C18.845 3.53604 18.1044 3.73811 17.3324 3.83622C18.1266 3.36201 18.7328 2.6168 19.0178 1.71859C18.2773 2.16011 17.4597 2.47197 16.5883 2.64601C15.8852 1.8973 14.883 1.43359 13.7897 1.43359C11.6686 1.43359 9.96099 3.15526 9.96099 5.26589C9.96099 5.56957 9.98669 5.86158 10.0498 6.13957C6.86456 5.98422 4.04611 4.45761 2.15274 2.13207C1.82219 2.70557 1.6283 3.36201 1.6283 4.06866C1.6283 5.39554 2.31159 6.57174 3.33011 7.2527C2.71456 7.24102 2.11069 7.06231 1.5991 6.78082C1.5991 6.7925 1.5991 6.80768 1.5991 6.82286C1.5991 8.6847 2.92714 10.2312 4.66867 10.5874C4.35681 10.6727 4.01691 10.7136 3.66417 10.7136C3.41888 10.7136 3.17126 10.6995 2.93882 10.6481C3.43523 12.1654 4.84387 13.2809 6.51882 13.3171C5.2153 14.3368 3.56021 14.9511 1.76846 14.9511C1.45426 14.9511 1.15291 14.9371 0.851562 14.8986C2.5487 15.993 4.56004 16.6179 6.72907 16.6179C13.7792 16.6179 17.6337 10.7778 17.6337 5.71558C17.6337 5.54621 17.6279 5.38269 17.6197 5.22033C18.3801 4.68071 19.019 4.00676 19.5399 3.23119Z" fill="#171618"/>
</g>
<defs>
<clipPath id="clip0_2_5212">
<rect width="19" height="16" fill="white" transform="translate(0.769531 0.949219)"/>
</clipPath>
</defs>
</svg>
