<svg width="69" height="21" viewBox="0 0 69 21" fill="none" xmlns="http://www.w3.org/2000/svg">
<g clip-path="url(#clip0_2_3929)">
<g clip-path="url(#clip1_2_3929)">
<mask id="mask0_2_3929" style="mask-type:luminance" maskUnits="userSpaceOnUse" x="0" y="0" width="69" height="20">
<path d="M68.7329 0.209961H0.367188V19.6945H68.7329V0.209961Z" fill="white"/>
</mask>
<g mask="url(#mask0_2_3929)">
<path fill-rule="evenodd" clip-rule="evenodd" d="M8.61363 0.264228C8.48818 0.291137 8.34826 0.327127 8.30268 0.344127C8.17615 0.391394 7.68346 0.636232 7.65999 0.663473C7.64859 0.676741 7.61128 0.699795 7.57704 0.714763C7.54285 0.729689 7.44025 0.788027 7.34904 0.844332C7.25777 0.900643 7.13653 0.97262 7.0795 1.0043C7.02248 1.03593 6.90591 1.10223 6.82034 1.15157C6.47578 1.35035 6.09999 1.56267 5.89781 1.67288C5.8522 1.69776 5.80555 1.72741 5.79416 1.73881C5.76754 1.76543 5.62275 1.84782 5.34515 1.99435C5.22363 2.05849 5.07436 2.14547 5.01345 2.18764C4.95254 2.22981 4.87472 2.27683 4.84051 2.29209C4.8063 2.30735 4.70368 2.36614 4.61246 2.42274C4.52125 2.47938 4.38131 2.55758 4.30149 2.59655C4.22168 2.63553 4.14704 2.6777 4.13564 2.6903C4.11433 2.71381 4.0526 2.74996 3.72429 2.9312C3.61985 2.98887 3.48779 3.06666 3.43077 3.10414C3.37376 3.14162 3.27114 3.19954 3.20273 3.23288C3.13432 3.26626 3.06901 3.30291 3.05761 3.31431C3.0358 3.33621 2.9579 3.38136 2.64626 3.55277C2.54182 3.61019 2.43774 3.67135 2.41494 3.68868C2.39213 3.70601 2.30353 3.7595 2.21799 3.80751C2.13245 3.85557 1.9972 3.93219 1.91739 3.9778C1.83757 4.02341 1.70227 4.10011 1.61678 4.14829C1.06155 4.46096 0.740712 4.84247 0.487291 5.49119C0.362778 5.80996 0.359212 5.95069 0.372314 10.0106C0.385748 14.1831 0.387904 14.2401 0.543638 14.5523C0.580872 14.6269 0.611306 14.7131 0.611306 14.7438C0.611306 14.7745 0.625403 14.7996 0.642652 14.7996C0.6599 14.7996 0.700161 14.8587 0.732129 14.9309C0.803362 15.0919 1.29088 15.5914 1.4613 15.6781C1.71384 15.8066 1.95942 15.9404 1.97958 15.9606C2.00052 15.9815 2.12088 16.0527 2.31128 16.1569C2.36829 16.1881 2.48957 16.2601 2.58079 16.3169C2.67201 16.3737 2.77927 16.4309 2.8192 16.444C2.85913 16.4571 2.89176 16.4842 2.89176 16.5044C2.89176 16.5245 2.92907 16.541 2.97468 16.541C3.0203 16.541 3.05778 16.555 3.05794 16.5721C3.05811 16.5892 3.10011 16.6234 3.15123 16.6481C3.29204 16.7161 3.63846 16.9143 3.82467 17.0335C3.91589 17.0919 4.06516 17.1791 4.15637 17.2272C4.33172 17.3198 4.48049 17.4048 4.82198 17.6074C4.93716 17.6757 5.1159 17.7788 5.21911 17.8364C5.57042 18.0325 5.60757 18.0544 5.62831 18.0773C5.63971 18.0899 5.71434 18.1328 5.79416 18.1727C5.87397 18.2125 6.02324 18.2987 6.12586 18.3643C6.22847 18.4297 6.3358 18.4847 6.36428 18.4865C6.39277 18.4883 6.41607 18.505 6.41607 18.5235C6.41607 18.5421 6.48142 18.5828 6.56124 18.6142C6.64105 18.6455 6.70634 18.6817 6.70634 18.6947C6.70634 18.7077 6.76696 18.745 6.84108 18.7775C6.9152 18.8101 7.07751 18.9016 7.20182 18.9808C7.50514 19.1742 8.10784 19.4963 8.30268 19.5691C8.75429 19.738 9.67415 19.7358 9.99166 19.5651C10.0313 19.5438 10.0919 19.5264 10.1265 19.5264C10.161 19.5264 10.1892 19.5098 10.1892 19.4897C10.1892 19.4696 10.2219 19.4424 10.2618 19.4294C10.3016 19.4163 10.4183 19.3561 10.5209 19.2955C11.2837 18.8453 11.446 18.7519 11.7162 18.6083C11.8378 18.5437 11.987 18.4563 12.0479 18.4141C12.1088 18.3719 12.1867 18.3249 12.2209 18.3097C12.2551 18.2944 12.3577 18.2346 12.4489 18.1768C12.5402 18.1189 12.6474 18.0609 12.6873 18.0478C12.7273 18.0347 12.7599 18.0075 12.7599 17.9874C12.7599 17.9673 12.7972 17.9508 12.8428 17.9508C12.8884 17.9508 12.9259 17.9368 12.9261 17.9196C12.9263 17.9026 12.9682 17.8684 13.0194 17.8437C13.1769 17.7676 13.5212 17.5698 13.637 17.4887C13.6975 17.4464 13.7676 17.4117 13.7925 17.4117C13.8175 17.4117 13.8379 17.3975 13.8379 17.3801C13.8379 17.3626 13.9079 17.3159 13.9934 17.2762C14.1518 17.2027 14.2839 17.129 14.5428 16.97C14.7248 16.8583 14.9562 16.7277 15.2406 16.5765C15.3621 16.5119 15.5114 16.4246 15.5723 16.3824C15.6332 16.3403 15.711 16.2932 15.7452 16.278C15.7794 16.2627 15.882 16.2029 15.9733 16.1451C16.0645 16.0873 16.1718 16.0292 16.2117 16.0162C16.2516 16.0031 16.2843 15.9758 16.2843 15.9557C16.2843 15.9356 16.3216 15.9191 16.3672 15.9191C16.4128 15.9191 16.4501 15.9026 16.4501 15.8825C16.4501 15.8623 16.4828 15.8348 16.5226 15.8214C16.6745 15.7703 17.0677 15.5098 17.219 15.3603C17.4787 15.1033 17.7996 14.493 17.8735 14.1154C17.8959 14.0014 17.9211 13.2178 17.9297 12.374C17.9467 10.6961 17.9347 10.5797 17.7209 10.3611C17.6132 10.2509 17.5748 10.2387 17.3379 10.2387C17.1452 10.2387 17.0325 10.2625 16.9178 10.3275C16.7076 10.4465 16.407 10.6147 16.3049 10.6703C16.2594 10.6952 16.2127 10.7248 16.2013 10.7362C16.1899 10.7476 16.136 10.782 16.0816 10.8127C16.0272 10.8433 15.9199 10.904 15.8432 10.9474C15.7665 10.9909 15.6338 11.0658 15.5483 11.1138C15.4628 11.1619 15.3741 11.2154 15.3513 11.2327C15.3043 11.2683 14.9772 11.4522 14.7294 11.5821C14.6382 11.63 14.5542 11.6798 14.5428 11.6929C14.5314 11.7059 14.4941 11.7289 14.4599 11.7439C14.4257 11.7588 14.323 11.8171 14.2318 11.8734C14.1406 11.9297 14.0193 12.0017 13.9623 12.0334C13.9053 12.065 13.7887 12.1313 13.7032 12.1807C13.4351 12.3353 13.2432 12.4443 13.0502 12.5516C12.9475 12.6087 12.8137 12.6902 12.7528 12.7329C12.6919 12.7755 12.5427 12.8633 12.4211 12.9278C12.2996 12.9925 12.1255 13.0886 12.0343 13.1414C11.9431 13.1943 11.8218 13.2635 11.7648 13.2951C11.7078 13.3268 11.5865 13.3982 11.4953 13.4537C11.4041 13.5093 11.2641 13.5867 11.1843 13.6257C11.1045 13.6646 11.0298 13.7068 11.0185 13.7194C10.9971 13.7429 10.9354 13.7791 10.6071 13.9603C10.5027 14.018 10.3706 14.0968 10.3136 14.1356C10.2566 14.1743 10.1493 14.2322 10.0752 14.2642C10.0011 14.2961 9.94044 14.3364 9.94044 14.3536C9.94044 14.3708 9.91714 14.3854 9.8886 14.3859C9.86011 14.3864 9.79015 14.4233 9.73312 14.4679C9.67609 14.5125 9.58858 14.5494 9.53862 14.5499C9.48866 14.5504 9.43624 14.5694 9.42217 14.5923C9.38622 14.6503 8.96047 14.6441 8.78244 14.5828C8.70097 14.5548 8.55974 14.4887 8.46852 14.4359C8.37731 14.383 8.26998 14.3291 8.2301 14.3161C8.19022 14.303 8.15752 14.2759 8.15752 14.2557C8.15752 14.2356 8.14043 14.2191 8.11952 14.2191C8.09855 14.2191 7.93943 14.1351 7.7659 14.0325C7.5923 13.9299 7.43216 13.846 7.41 13.846C7.38783 13.846 7.3696 13.8319 7.36943 13.8149C7.36926 13.7977 7.32722 13.7631 7.27611 13.738C7.05501 13.6292 6.69113 13.4263 6.58904 13.3548C6.47549 13.2754 6.19195 13.1128 5.89781 12.9586C5.80659 12.9107 5.72574 12.8576 5.71816 12.8405C5.71052 12.8233 5.67893 12.8094 5.64795 12.8094C5.56043 12.8094 5.0953 12.3592 5.03261 12.2138C5.00176 12.1423 4.95528 12.0316 4.92928 11.9678C4.86281 11.8048 4.86281 8.09202 4.92928 7.92908C5.05628 7.61761 5.09717 7.5517 5.26567 7.38705C5.44118 7.21545 5.65467 7.06978 5.80452 7.01936C5.84441 7.00591 5.87708 6.97839 5.87708 6.95828C5.87708 6.93817 5.9144 6.92165 5.96 6.92165C6.00562 6.92165 6.0431 6.90769 6.04326 6.89054C6.04343 6.87345 6.08541 6.83927 6.13657 6.8146C6.2945 6.73837 6.63849 6.54063 6.75488 6.45916C6.81578 6.41654 6.96505 6.32881 7.08657 6.2642C7.38932 6.1032 7.59532 5.98487 7.84343 5.82949C7.9592 5.75701 8.10983 5.67048 8.17826 5.63718C8.24668 5.60388 8.37731 5.52872 8.46852 5.47013C8.73396 5.29959 9.27279 5.19718 9.33922 5.30461C9.35335 5.32741 9.41972 5.34607 9.48678 5.34607C9.55389 5.34607 9.60875 5.36473 9.60875 5.38754C9.60875 5.41034 9.64453 5.429 9.68823 5.429C9.73192 5.429 9.77385 5.44297 9.78149 5.46009C9.78907 5.47722 9.8878 5.53784 10.0008 5.59485C10.3914 5.79188 10.5543 6.03951 10.4935 6.34368C10.4658 6.48183 10.26 6.71433 10.1653 6.71433C10.1328 6.71433 10.1063 6.72863 10.1063 6.74601C10.1063 6.76344 10.0363 6.80987 9.95081 6.84924C9.86529 6.88855 9.7207 6.96746 9.62949 7.02454C9.53822 7.08168 9.43561 7.14099 9.40143 7.15643C9.36719 7.17181 9.26459 7.23311 9.17338 7.29271C9.08216 7.3523 8.95164 7.42841 8.88339 7.46197C8.81508 7.49547 8.57204 7.63482 8.34325 7.77167C8.1145 7.90845 7.87181 8.04838 7.80401 8.08256C7.73621 8.11674 7.67138 8.15406 7.65999 8.16545C7.62928 8.19622 7.45774 8.29307 7.23526 8.40524C6.86649 8.59114 6.87219 8.56687 6.87219 9.94598C6.87219 11.0079 6.88062 11.1666 6.94192 11.2603C7.02897 11.3931 7.31417 11.5791 7.81512 11.8299C7.86628 11.8555 7.90827 11.8904 7.90844 11.9076C7.90861 11.9247 7.9461 11.9387 7.99167 11.9387C8.03731 11.9387 8.07462 11.9573 8.07462 11.9801C8.07462 12.0029 8.09508 12.0216 8.12003 12.0216C8.14498 12.0216 8.215 12.0567 8.27556 12.0996C8.33607 12.1425 8.51308 12.2451 8.66889 12.3277C8.89376 12.4467 8.99859 12.4777 9.17679 12.4777C9.30031 12.4777 9.40143 12.459 9.40143 12.4362C9.40143 12.4134 9.43721 12.3947 9.48091 12.3947C9.5246 12.3947 9.56653 12.3804 9.57417 12.363C9.58836 12.3305 10.0948 12.0216 10.1339 12.0216C10.1459 12.0216 10.2084 11.9841 10.2729 11.9382C10.3372 11.8923 10.4894 11.8019 10.6109 11.7373C10.9136 11.5763 11.1196 11.458 11.3678 11.3026C11.4835 11.2301 11.6341 11.143 11.7023 11.1091C11.7706 11.075 12.0172 10.9324 12.2503 10.7922C12.4834 10.6519 12.7307 10.5121 12.7999 10.4815C12.8691 10.4508 12.9257 10.4138 12.9257 10.3992C12.9257 10.3847 12.9584 10.3616 12.9983 10.348C13.0698 10.3236 13.3065 10.191 13.7827 9.90878C13.9157 9.82987 14.0991 9.72573 14.1904 9.67725C14.4941 9.5159 14.7696 9.35695 14.8816 9.27862C14.9837 9.20717 15.3475 9.00424 15.5687 8.89543C15.6198 8.8703 15.6618 8.83572 15.662 8.81857C15.6621 8.80148 15.6818 8.78747 15.7058 8.78747C15.7296 8.78747 15.8463 8.72559 15.9649 8.64999C16.0835 8.57439 16.2412 8.48586 16.3153 8.45327C16.3895 8.42074 16.4501 8.38211 16.4501 8.36759C16.4501 8.353 16.4828 8.32993 16.5226 8.31631C16.5625 8.3027 16.7072 8.22664 16.844 8.14728C16.9808 8.06786 17.1602 7.96577 17.2427 7.92036C17.5802 7.73452 17.8173 7.45507 17.879 7.17045C17.9761 6.72219 17.949 6.12912 17.8081 5.61558C17.6826 5.15837 17.1695 4.44542 16.847 4.28027C16.777 4.24436 16.7103 4.20361 16.6988 4.18968C16.6875 4.17579 16.6035 4.12528 16.5123 4.07748C16.292 3.96204 16.064 3.83301 15.7867 3.66687C15.3148 3.38414 15.1835 3.31008 15.1129 3.28699C15.0731 3.27393 15.0404 3.24677 15.0404 3.22662C15.0404 3.20651 15.003 3.19001 14.9575 3.19001C14.9118 3.19001 14.8745 3.17135 14.8745 3.14855C14.8745 3.12574 14.8541 3.10708 14.829 3.10708C14.8041 3.10708 14.7341 3.07242 14.6736 3.03009C14.6131 2.98775 14.4781 2.90595 14.3737 2.84827C14.0546 2.67214 13.9839 2.63109 13.9623 2.60944C13.9509 2.59804 13.8856 2.56089 13.8172 2.52693C13.7488 2.49298 13.5957 2.40437 13.4771 2.33003C13.3585 2.25573 13.2419 2.1949 13.218 2.1949C13.1941 2.1949 13.1745 2.18064 13.1745 2.16322C13.1745 2.14581 13.1046 2.09904 13.0191 2.05936C12.9335 2.01964 12.8076 1.95375 12.7392 1.91295C11.987 1.46428 11.6731 1.28517 11.5886 1.25635C11.5487 1.24271 11.516 1.21965 11.516 1.20506C11.516 1.19051 11.4554 1.1519 11.3812 1.11936C11.3071 1.08677 11.1494 0.998241 11.0308 0.922657C10.9122 0.847027 10.8036 0.785167 10.7895 0.785167C10.7754 0.785167 10.6859 0.73313 10.5906 0.669526C9.98288 0.264103 9.2831 0.120642 8.61363 0.264228ZM22.9183 5.26045C22.8841 5.28404 22.8045 5.30361 22.7415 5.30399C22.6785 5.30432 22.5945 5.32107 22.5549 5.34122C22.5153 5.36137 22.4303 5.40254 22.366 5.43273C22.1401 5.53871 21.8817 5.90255 21.8817 6.11459C21.8817 6.16809 21.8655 6.22193 21.8456 6.23418C21.7892 6.26904 21.7512 6.63127 21.722 7.41047C21.7007 7.97972 21.6823 8.13594 21.6329 8.16921C21.5984 8.19251 21.418 8.20425 21.2272 8.1957L20.8836 8.18026L20.8955 8.53155L20.9073 8.88295L21.2764 8.87395C21.5443 8.8674 21.6549 8.87993 21.68 8.91953C21.6991 8.94949 21.7149 10.2195 21.7152 11.7417L21.7159 14.5093H22.1305H22.5451V11.7151C22.5451 9.20524 22.5518 8.91816 22.6107 8.8956C22.6468 8.88175 23.0728 8.87042 23.5573 8.87042H24.4382L24.443 8.52836L24.4476 8.18625L23.5833 8.2002C22.9986 8.2096 22.6908 8.19906 22.632 8.16767C22.5509 8.12426 22.5453 8.08757 22.5473 7.61471C22.5494 7.12367 22.6119 6.64272 22.7026 6.41842C22.7581 6.28112 22.9355 6.10178 23.0784 6.0382C23.1411 6.01034 23.4949 5.98054 23.9059 5.96841L24.6241 5.94727L24.6315 5.62984L24.639 5.31236L24.3073 5.28815C23.5071 5.22965 22.9782 5.21911 22.9183 5.26045ZM50.4496 6.79141V8.2161L50.2941 8.19097C49.7109 8.09686 49.3624 8.06718 48.8532 8.0682C48.2501 8.06951 47.8517 8.10882 47.8134 8.17086C47.8011 8.19075 47.7492 8.20698 47.698 8.20698C47.5314 8.20698 47.1778 8.41721 46.9337 8.66127C46.6932 8.90175 46.3862 9.43358 46.3862 9.60968C46.3862 9.65651 46.3676 9.7063 46.3448 9.72037C46.3219 9.7345 46.3033 9.8158 46.3033 9.90114C46.3033 9.98649 46.2864 10.074 46.2659 10.0956C46.1192 10.2501 46.14 12.3991 46.2943 13.0374C46.3972 13.4633 46.6504 13.9393 46.8862 14.1507C47.0995 14.3417 47.3897 14.5093 47.5072 14.5093C47.5493 14.5093 47.5937 14.5253 47.6058 14.5449C47.6829 14.6697 49.1944 14.6698 49.2715 14.5451C49.2836 14.5254 49.3473 14.5093 49.413 14.5093C49.4787 14.5093 49.544 14.4907 49.5581 14.4679C49.5722 14.4451 49.6165 14.4264 49.6566 14.4264C49.6966 14.4264 49.8753 14.3523 50.0536 14.2616C50.232 14.1709 50.394 14.1067 50.4137 14.1189C50.4335 14.1311 50.4496 14.2239 50.4496 14.3252V14.5093H50.8642H51.2789V9.93806V5.3668H50.8642H50.4496V6.79141ZM27.5828 8.08102C27.5373 8.10147 27.4217 8.11953 27.3261 8.12118C27.2306 8.12272 27.1409 8.14272 27.1268 8.16557C27.1127 8.18835 27.0474 8.20698 26.9816 8.20698C26.9159 8.20698 26.8506 8.22567 26.8365 8.24846C26.8224 8.27125 26.7823 8.28993 26.7474 8.28993C26.6485 8.28993 26.218 8.6088 26.0727 8.78969C25.7032 9.24939 25.5572 9.72784 25.4814 10.7263C25.4344 11.3462 25.4791 12.3678 25.5715 12.7886C25.5966 12.9027 25.6283 13.051 25.6419 13.1184C25.7268 13.5372 26.2373 14.2076 26.5881 14.361C26.6791 14.4009 26.786 14.4505 26.8256 14.4714C26.8652 14.4922 26.9434 14.5093 26.9993 14.5093C27.0553 14.5093 27.1109 14.5253 27.123 14.5447C27.202 14.6725 29.083 14.6729 29.1619 14.5452C29.1741 14.5255 29.2379 14.5093 29.3035 14.5093C29.3693 14.5093 29.4346 14.4907 29.4487 14.4679C29.4628 14.4451 29.5198 14.4264 29.5755 14.4264C29.6312 14.4264 29.6767 14.4078 29.6767 14.385C29.6767 14.3622 29.7046 14.3435 29.7386 14.3435C29.8887 14.3435 30.3073 13.9049 30.4481 13.5999C30.5067 13.473 30.5717 13.3367 30.5925 13.2972C30.6133 13.2576 30.6304 13.1887 30.6304 13.1441C30.6304 13.0995 30.6465 13.053 30.6663 13.0408C30.6861 13.0286 30.7141 12.9389 30.7286 12.8414C30.743 12.744 30.7727 12.543 30.7945 12.3947C30.8478 12.0316 30.8491 10.6106 30.7964 10.3009C30.7731 10.1641 30.7424 9.97236 30.7281 9.87494C30.7139 9.77751 30.6861 9.68779 30.6663 9.67554C30.6465 9.66329 30.6304 9.6168 30.6304 9.57225C30.6304 9.5277 30.6137 9.45882 30.5934 9.41922C30.5732 9.37963 30.5126 9.25395 30.4589 9.13989C30.354 8.91702 30.3403 8.89856 30.0813 8.63267C29.9102 8.45703 29.4598 8.20698 29.3145 8.20698C29.272 8.20698 29.2195 8.19018 29.1978 8.16955C29.1097 8.08586 27.7394 8.01072 27.5828 8.08102ZM41.8875 8.08091C41.8419 8.10142 41.7357 8.11953 41.6515 8.12118C41.5674 8.12272 41.487 8.14272 41.4729 8.16557C41.4588 8.18835 41.4014 8.20698 41.3455 8.20698C41.2895 8.20698 41.2113 8.22345 41.1717 8.24362C41.1321 8.26378 41.0531 8.29882 40.9961 8.32161C40.939 8.34434 40.7927 8.41185 40.6709 8.47156C40.3469 8.63039 40.2984 8.62008 40.2831 8.38884L40.2704 8.19753L39.8559 8.19468L39.4412 8.19189L39.4316 11.3506L39.422 14.5093H39.8763H40.3307L40.3308 11.9155C40.3308 10.4889 40.3413 9.30454 40.3542 9.28369C40.3671 9.26284 40.4468 9.21578 40.5314 9.17903C40.6159 9.14228 40.7175 9.09511 40.7571 9.07426C40.7967 9.05335 40.8656 9.03626 40.9101 9.03626C40.9547 9.03626 41.0027 9.01757 41.0168 8.99478C41.0309 8.972 41.1055 8.95331 41.1827 8.95331C41.2597 8.95331 41.3332 8.93667 41.3458 8.91628C41.4033 8.82319 42.429 8.75653 42.6722 8.83008C42.9324 8.9087 43.0819 8.98088 43.2012 9.0856C43.3285 9.19732 43.4838 9.46258 43.4838 9.5682C43.4838 9.60859 43.5008 9.65936 43.5215 9.68101C43.5981 9.76122 43.6179 10.227 43.6343 12.3429L43.6511 14.5093H44.066H44.481L44.4647 12.26C44.4549 10.9071 44.4305 9.91151 44.4036 9.76185C44.379 9.625 44.3473 9.44776 44.3331 9.36795C44.3085 9.22888 44.2626 9.0983 44.1839 8.94357C44.1637 8.90397 44.1472 8.85105 44.1472 8.82604C44.1472 8.75579 43.732 8.33716 43.594 8.26834C43.5264 8.23456 43.4377 8.20698 43.397 8.20698C43.3562 8.20698 43.3125 8.19035 43.2999 8.16995C43.2874 8.14956 43.1976 8.12044 43.1005 8.10529C42.7991 8.05817 41.9747 8.04165 41.8875 8.08091ZM55.1348 8.08079C55.1007 8.10387 55.0038 8.12306 54.9196 8.12346C54.8355 8.12381 54.7551 8.14272 54.7409 8.16557C54.7269 8.18835 54.681 8.20698 54.6391 8.20698C54.5407 8.20698 54.1322 8.42194 53.9377 8.57605C53.7432 8.73004 53.3872 9.25184 53.3126 9.49237C53.2807 9.59498 53.2392 9.69667 53.2204 9.71832C53.2015 9.74003 53.1861 9.80623 53.1861 9.86554C53.1861 9.92479 53.1691 9.99104 53.1483 10.0127C53.0835 10.0801 53.0536 10.5164 53.0516 11.4203C53.0497 12.3036 53.0836 12.7924 53.1497 12.8332C53.1697 12.8456 53.1861 12.9188 53.1861 12.9959C53.1861 13.0731 53.2048 13.1477 53.2276 13.1618C53.2504 13.1759 53.269 13.2167 53.269 13.2524C53.269 13.3826 53.5345 13.8521 53.7208 14.0513C53.9227 14.2673 54.3313 14.5093 54.494 14.5093C54.5473 14.5093 54.6009 14.5254 54.613 14.5451C54.6462 14.5987 55.1424 14.648 55.6324 14.6462C56.09 14.6445 57.0389 14.5734 57.9664 14.4715C57.9847 14.4695 57.9938 14.3251 57.987 14.1506L57.975 13.8334L57.6092 13.8423C57.4081 13.8472 57.1378 13.8686 57.0082 13.8898C56.6985 13.9405 55.3629 13.94 55.2 13.8891C55.13 13.8672 54.9798 13.8252 54.8663 13.7958C54.7087 13.7549 54.6057 13.6884 54.4305 13.5142C54.0557 13.1416 53.8877 12.6717 53.8748 11.9594L53.8703 11.7106L56.016 11.6998L58.1619 11.6891L58.1681 11.3474C58.1801 10.7224 58.1539 10.0526 58.1163 10.0127C58.0958 9.99104 58.0787 9.90354 58.0787 9.81819C58.0787 9.73285 58.0599 9.65155 58.0371 9.63748C58.0143 9.62335 57.9961 9.57538 57.9961 9.53077C57.9961 9.48622 57.979 9.41734 57.9579 9.37775C57.9368 9.33815 57.8907 9.24045 57.8553 9.16063C57.7784 8.98726 57.5209 8.66122 57.3665 8.54089C57.2072 8.41687 56.7973 8.20698 56.7145 8.20698C56.6758 8.20698 56.6264 8.19023 56.6047 8.16978C56.5121 8.08222 55.2462 8.00559 55.1348 8.08079ZM62.9093 8.08261C62.895 8.1054 62.8204 8.12409 62.7435 8.12409C62.666 8.12409 62.5914 8.14272 62.5777 8.16557C62.5635 8.18835 62.5076 8.20698 62.4529 8.20698C62.3988 8.20698 62.343 8.22567 62.3287 8.24846C62.3145 8.27125 62.2695 8.28993 62.229 8.28993C62.188 8.28993 62.1009 8.3162 62.0342 8.34833C61.9681 8.3804 61.7738 8.47355 61.6029 8.55525C61.2406 8.72833 61.0788 8.82154 60.9648 8.92226C60.9193 8.96214 60.8395 8.99478 60.7865 8.99478C60.6931 8.99478 60.6908 8.98533 60.6908 8.59052V8.18625H60.2556H59.8203V11.3478V14.5093H60.2749H60.7296L60.7307 12.1978C60.7313 10.9264 60.7318 9.85357 60.7318 9.81369C60.7324 9.76988 60.7637 9.74111 60.8116 9.74111C60.8555 9.74111 60.8976 9.72715 60.905 9.71C60.9267 9.66203 61.5579 9.36761 61.9037 9.24438C62.012 9.20581 62.1134 9.16183 62.1282 9.14673C62.1436 9.13157 62.1983 9.11921 62.2501 9.11921C62.302 9.11921 62.3561 9.10052 62.3703 9.07773C62.384 9.05489 62.4467 9.03626 62.5093 9.03626C62.572 9.03626 62.6409 9.01883 62.6626 8.99758C62.6842 8.97633 62.7765 8.95297 62.8677 8.94573L63.0335 8.93263L63.054 8.48677C63.0728 8.08757 63.0677 8.04097 63.005 8.04108C62.9663 8.04108 62.9235 8.05983 62.9093 8.08261ZM65.7288 8.08074C65.6832 8.10136 65.5767 8.11953 65.4924 8.12118C65.4086 8.12272 65.3283 8.14272 65.314 8.16557C65.2998 8.18835 65.2537 8.20698 65.2115 8.20698C65.0782 8.20698 64.6161 8.46239 64.431 8.63871C64.231 8.82888 64.0726 9.13032 64.0259 9.40942C63.965 9.77045 64.0111 10.5418 64.096 10.5944C64.1159 10.6067 64.1325 10.652 64.1325 10.6951C64.1325 10.8649 64.7016 11.3167 64.9158 11.3167C64.9546 11.3167 65.0041 11.3322 65.0258 11.3512C65.1101 11.4248 65.6599 11.5579 66.0188 11.5915C66.1327 11.6022 66.2638 11.6277 66.3093 11.6481C66.3549 11.6685 66.4711 11.6956 66.568 11.7082C66.9685 11.7607 67.0779 11.7834 67.0995 11.8187C67.1121 11.8391 67.1582 11.8557 67.2015 11.8557C67.4117 11.8557 67.8219 12.2037 67.8225 12.3819C67.8225 12.4319 67.8413 12.4843 67.8641 12.4984C67.9222 12.5345 67.9142 12.9665 67.8521 13.1454C67.7746 13.3673 67.6094 13.5914 67.4807 13.6492C67.4174 13.6774 67.3662 13.7144 67.3662 13.7317C67.3662 13.7489 67.3212 13.763 67.2653 13.763C67.2095 13.763 67.1537 13.7792 67.1417 13.7991C67.0767 13.9038 66.0803 13.9315 65.314 13.8499C65.0634 13.8233 64.7272 13.7913 64.5677 13.779C64.4082 13.7667 64.2595 13.7394 64.2379 13.7183C64.1615 13.6441 64.1439 13.6832 64.1211 13.9807C64.108 14.146 64.0846 14.314 64.0692 14.3539C64.0453 14.4144 64.0641 14.4264 64.182 14.4264C64.2595 14.4264 64.341 14.4435 64.3626 14.4644C64.3843 14.4852 64.5136 14.5126 64.6503 14.5252C64.7876 14.5378 65.1141 14.5697 65.3762 14.5962C65.9988 14.6589 66.6062 14.6616 66.993 14.6032C67.5234 14.5231 67.5633 14.5119 67.9188 14.3407C68.1267 14.2407 68.5688 13.8033 68.5688 13.6979C68.5688 13.6647 68.5854 13.6051 68.6053 13.5655C68.7004 13.3773 68.7346 13.1624 68.7329 12.765C68.7312 12.3673 68.6708 11.9855 68.5984 11.913C68.5819 11.8967 68.5688 11.853 68.5688 11.816C68.5688 11.7055 68.2361 11.4197 67.9416 11.2773C67.6727 11.1474 67.4727 11.0816 67.2215 11.041C67.1531 11.0299 67.0597 11.0044 67.0141 10.9843C66.9685 10.9643 66.8472 10.9387 66.7446 10.9274C66.5116 10.9018 65.9635 10.7927 65.62 10.7035C65.3517 10.6337 65.0338 10.434 64.9472 10.2801C64.8828 10.1659 64.8657 10.0603 64.868 9.78401C64.8691 9.56752 64.8879 9.42708 64.9158 9.41774C64.9409 9.40937 64.9614 9.37946 64.9614 9.35126C64.9614 9.23543 65.2992 8.95331 65.4377 8.95331C65.4724 8.95331 65.5003 8.93673 65.5003 8.91639C65.5003 8.89611 65.5704 8.86557 65.6559 8.84854C65.8906 8.80177 67.0391 8.81305 67.5325 8.86683C67.7718 8.89298 68.0937 8.92465 68.2475 8.93724L68.5272 8.96015V8.69061C68.5272 8.54237 68.5375 8.39402 68.5506 8.36098C68.5785 8.28834 68.4891 8.25735 68.092 8.20163C67.2488 8.08324 65.8781 8.01311 65.7288 8.08074ZM32.5507 10.5082C32.5594 11.9115 32.5825 12.9203 32.609 13.0582C32.6699 13.3737 32.8148 13.7918 32.9346 13.9984C33.0495 14.1964 33.3092 14.4264 33.4179 14.4264C33.4582 14.4264 33.4913 14.4451 33.4913 14.4679C33.4913 14.4907 33.5462 14.5093 33.6133 14.5093C33.6803 14.5093 33.7451 14.5253 33.7572 14.5449C33.7863 14.592 34.2273 14.6467 34.59 14.6481C34.8971 14.6493 35.2675 14.6076 35.4401 14.5522C35.4971 14.5339 35.6277 14.4942 35.7303 14.4639C35.8329 14.4336 36.0539 14.3381 36.2213 14.2517C36.3887 14.1654 36.5427 14.0947 36.5634 14.0947C36.5841 14.0947 36.601 14.188 36.601 14.302V14.5093H37.026H37.451L37.4414 11.3535L37.4318 8.19764L37.0164 8.19194L36.601 8.18625L36.601 10.8023V13.4183L36.4041 13.5122C36.2958 13.564 36.1747 13.6229 36.1351 13.6431C36.0955 13.6635 36.0267 13.6801 35.9821 13.6801C35.9375 13.6801 35.8895 13.6987 35.8754 13.7215C35.8613 13.7444 35.796 13.763 35.7303 13.763C35.6646 13.763 35.6008 13.7792 35.5885 13.7991C35.5355 13.8848 34.6387 13.9341 34.3206 13.8688C33.9799 13.7988 33.6745 13.5628 33.5726 13.2907C33.5461 13.2198 33.5087 13.1245 33.4895 13.0789C33.4113 12.8934 33.3965 12.5276 33.3814 10.4045L33.3655 8.18625H32.9509H32.5363L32.5507 10.5082ZM56.3269 8.82507C56.3668 8.84615 56.4667 8.89252 56.5488 8.92813C56.733 9.00789 57.0085 9.30084 57.1029 9.51721C57.1417 9.60614 57.1906 9.71131 57.2115 9.75091C57.2324 9.79051 57.2495 9.88736 57.2495 9.96615C57.2495 10.0449 57.2681 10.1209 57.2909 10.135C57.3143 10.1494 57.3324 10.3497 57.3324 10.5936V11.0265H55.5865H53.8405L53.8653 10.7259C53.9064 10.2277 53.9385 10.0127 53.9779 9.97122C53.9986 9.94963 54.0154 9.90006 54.0154 9.86115C54.0154 9.63201 54.4437 9.1028 54.7476 8.9565C55.0538 8.80906 55.1027 8.79145 55.2593 8.77186C55.4823 8.74388 56.2452 8.78194 56.3269 8.82507ZM28.7853 8.82894C28.7994 8.85173 28.8559 8.87042 28.9108 8.87042C29.1482 8.87042 29.5507 9.20706 29.704 9.53379C29.9076 9.96803 29.9801 10.4186 29.9842 11.2752C29.9875 11.9785 29.9129 12.7452 29.8363 12.7925C29.817 12.8045 29.8011 12.868 29.8011 12.9337C29.8011 12.9995 29.7824 13.0648 29.7597 13.0789C29.7368 13.093 29.7182 13.1422 29.7182 13.1883C29.7182 13.3213 29.2719 13.7363 29.0651 13.7955C28.9683 13.8232 28.819 13.8659 28.7334 13.8903C28.5511 13.9424 27.651 13.9209 27.4371 13.8595C27.1865 13.7875 26.9849 13.675 26.8317 13.5219C26.6682 13.3584 26.4841 13.0111 26.4841 12.8663C26.4841 12.8148 26.4677 12.7627 26.4478 12.7504C26.3794 12.7081 26.3467 12.2488 26.3471 11.3375C26.3476 10.2683 26.3862 9.9874 26.5927 9.54866C26.7495 9.21578 27.0249 8.99017 27.4585 8.83954C27.6214 8.78291 28.7513 8.77391 28.7853 8.82894ZM50.0142 8.84842C50.151 8.86255 50.3051 8.89514 50.3567 8.92089L50.4503 8.96772L50.4396 11.1888L50.4288 13.4099L50.263 13.5002C50.1718 13.5499 50.0562 13.592 50.0063 13.5938C49.9563 13.5957 49.9039 13.6159 49.8898 13.6386C49.8758 13.6614 49.8198 13.6801 49.7655 13.6801C49.7111 13.6801 49.6552 13.6987 49.641 13.7215C49.627 13.7444 49.5643 13.763 49.5018 13.763C49.4392 13.763 49.3704 13.7799 49.3487 13.8004C49.2595 13.8853 48.4167 13.9306 48.1284 13.866C47.9162 13.8186 47.7161 13.6941 47.5494 13.5062C47.3714 13.3053 47.2155 13.0414 47.2155 12.9409C47.2155 12.9005 47.1987 12.8497 47.1783 12.8281C47.1089 12.7546 47.0815 12.4181 47.0641 11.4239C47.0527 10.7726 47.0614 10.4176 47.0896 10.3894C47.1132 10.3658 47.1325 10.2858 47.1325 10.2116C47.1325 10.1374 47.1536 10.0245 47.1792 9.96074C47.2048 9.89698 47.2396 9.80748 47.2566 9.76185C47.4235 9.31172 47.7425 9.00937 48.2313 8.838C48.3592 8.79322 49.5461 8.80011 50.0142 8.84842Z" fill="black"/>
</g>
</g>
</g>
<defs>
<clipPath id="clip0_2_3929">
<rect width="68.38" height="19.94" fill="white" transform="translate(0.359863 0.209961)"/>
</clipPath>
<clipPath id="clip1_2_3929">
<rect width="68.3657" height="19.94" fill="white" transform="translate(0.367188 0.209961)"/>
</clipPath>
</defs>
</svg>
