<svg width="69" height="19" viewBox="0 0 69 19" fill="none" xmlns="http://www.w3.org/2000/svg">
<g clip-path="url(#clip0_2_3851)">
<g clip-path="url(#clip1_2_3851)">
<mask id="mask0_2_3851" style="mask-type:luminance" maskUnits="userSpaceOnUse" x="0" y="0" width="69" height="19">
<path d="M68.7399 0.379883H0.359863V18.7899H68.7399V0.379883Z" fill="white"/>
</mask>
<g mask="url(#mask0_2_3851)">
<path d="M63.1745 16.0341C63.0423 16.0341 62.9042 16.0296 62.7603 16.0204C61.7234 15.9552 61.0522 15.4924 60.6718 15.1154C60.2576 14.7052 60.0916 14.3108 60.0846 14.2939C60.0703 14.2572 60.0711 14.2164 60.0865 14.1802C60.1019 14.144 60.1309 14.1152 60.1672 14.1001C60.2035 14.085 60.2443 14.0847 60.2808 14.0993C60.3174 14.1139 60.3467 14.1422 60.3627 14.1782C60.364 14.1814 60.5182 14.5419 60.8931 14.9101C61.392 15.4004 62.0265 15.6727 62.7791 15.721C63.7113 15.7798 64.3534 15.6456 64.6879 15.3203C64.874 15.1397 64.9634 14.8955 64.954 14.5942C64.9312 13.872 63.478 13.6719 62.0732 13.4784C61.5816 13.4093 61.0733 13.3402 60.612 13.2459C59.5011 13.021 58.605 12.5255 58.0191 11.8129C57.4806 11.1579 57.2297 10.3405 57.3123 9.51115C57.4098 8.53483 57.9465 7.63274 58.8238 6.9707C59.8029 6.23175 61.1435 5.84068 62.6995 5.83936H62.7061C64.2155 5.83936 65.4514 6.09051 66.3791 6.58586C67.6001 7.23771 68.2859 8.3074 68.4174 9.76554C68.4213 9.80538 68.4088 9.84503 68.3832 9.8758C68.3575 9.90651 68.3207 9.92577 68.2813 9.92939C68.2412 9.933 68.2017 9.92064 68.1708 9.895C68.1399 9.86936 68.1208 9.83254 68.1175 9.79269C68.0531 9.08088 67.8467 8.46448 67.5034 7.96103C67.1957 7.50847 66.769 7.13626 66.2378 6.85211C65.3537 6.38071 64.1662 6.14105 62.7061 6.14105H62.6996C61.2096 6.14105 59.9319 6.51176 59.0052 7.21115C58.1955 7.82184 57.7011 8.6491 57.6119 9.54061C57.5365 10.2894 57.7644 11.0281 58.252 11.6205C58.7935 12.2792 59.6303 12.7388 60.672 12.9499C61.123 13.0412 61.6266 13.1106 62.1137 13.1775C62.8936 13.285 63.6303 13.3863 64.2036 13.5734C64.8971 13.7998 65.2411 14.1299 65.2554 14.5828C65.2676 14.9726 65.1474 15.2929 64.8976 15.535C64.5565 15.8669 63.9769 16.034 63.1745 16.0341Z" fill="black"/>
<path d="M63.2546 16.892C63.0824 16.892 62.9025 16.8865 62.715 16.8755C62.0406 16.8366 61.4286 16.6761 60.8963 16.3986C60.4703 16.1769 60.0903 15.8761 59.7765 15.5124C59.2389 14.8901 59.0668 14.2922 59.0597 14.2679C59.0488 14.2294 59.0537 14.1881 59.0733 14.1532C59.0929 14.1183 59.1255 14.0926 59.1639 14.0818C59.2025 14.0709 59.2436 14.0758 59.2785 14.0954C59.3133 14.115 59.339 14.1477 59.3498 14.1862C59.3513 14.1915 59.5151 14.7538 60.0131 15.3259C60.3023 15.6588 60.6519 15.9339 61.0432 16.1367C61.5357 16.3918 62.104 16.5394 62.7325 16.5757C63.7991 16.6388 64.6211 16.5108 65.176 16.1948C65.7251 15.8821 66.0244 15.3891 66.0914 14.6874C66.153 14.0403 65.8324 13.587 65.0819 13.2609C64.3832 12.9574 63.412 12.8084 62.473 12.6646C62.1195 12.6104 61.754 12.5543 61.4121 12.4911C60.4205 12.3076 59.6183 11.9066 59.0919 11.3326C58.6066 10.8027 58.3764 10.142 58.4436 9.47223C58.5208 8.70295 58.9708 7.99831 59.7115 7.48802C60.5294 6.92426 61.6432 6.63953 62.9332 6.66159C65.6648 6.71288 67.2096 7.78429 67.4002 9.75587C67.4029 9.77579 67.4009 9.79605 67.3956 9.81544C67.3897 9.83477 67.3805 9.85279 67.368 9.8685C67.3555 9.88422 67.3398 9.89723 67.3227 9.90677C67.3049 9.91637 67.2852 9.92229 67.2655 9.92426C67.2451 9.92616 67.2253 9.92413 67.2056 9.91814C67.1866 9.91216 67.1688 9.90243 67.1537 9.88941C67.1386 9.87646 67.1254 9.86055 67.1162 9.8426C67.1077 9.82471 67.1017 9.80512 67.1004 9.78506C67.0051 8.80454 66.5429 8.06807 65.726 7.59776C65.0342 7.19918 64.0928 6.98536 62.9277 6.96255C60.233 6.91501 58.8696 8.24474 58.7435 9.50168C58.6849 10.0847 58.8876 10.6622 59.314 11.1278C59.7959 11.6537 60.5403 12.0221 61.467 12.1938C61.8043 12.2561 62.1675 12.3118 62.5188 12.3655C63.4767 12.5124 64.4675 12.6644 65.202 12.9834C66.0773 13.3637 66.4666 13.9303 66.3916 14.7153C66.316 15.5108 65.9568 16.0967 65.3251 16.4563C64.8111 16.7482 64.1305 16.892 63.2546 16.892Z" fill="black"/>
<path d="M63.2921 17.7572C63.0787 17.7572 62.8568 17.7509 62.6265 17.7383C61.7352 17.6895 60.9369 17.477 60.2541 17.1069C59.7081 16.8118 59.2278 16.4087 58.842 15.9221C58.181 15.0896 58.0027 14.291 57.9948 14.2573C57.9898 14.2377 57.9889 14.2173 57.9921 14.1973C57.9952 14.1773 58.0023 14.1582 58.0129 14.141C58.0236 14.1238 58.0376 14.1089 58.0541 14.0973C58.0706 14.0856 58.0892 14.0774 58.109 14.0732C58.1288 14.0689 58.1491 14.0686 58.169 14.0724C58.1889 14.0762 58.2077 14.0839 58.2245 14.0952C58.2413 14.1064 58.2557 14.1209 58.2668 14.1378C58.2779 14.1547 58.2854 14.1737 58.2891 14.1936C58.2908 14.201 58.4636 14.9667 59.0855 15.7448C59.446 16.1973 59.8944 16.5718 60.4035 16.8457C61.0453 17.1919 61.7983 17.3908 62.6416 17.437C65.4705 17.5956 66.9142 16.7582 67.1844 14.8C67.3238 13.7925 66.9622 13.1058 66.0466 12.6388C65.2143 12.2141 64.0509 12.0354 62.9257 11.8615C62.6747 11.8229 62.4153 11.7829 62.1671 11.7412C61.2942 11.5943 60.5855 11.2864 60.1203 10.8506C59.6861 10.4449 59.4767 9.94064 59.5308 9.43094C59.5905 8.86812 59.9565 8.36244 60.5611 8.0066C61.2161 7.62117 62.1022 7.44227 63.1234 7.48862C64.046 7.53313 64.7889 7.73715 65.3315 8.09523C65.9203 8.48368 66.2593 9.04144 66.3396 9.75266C66.3422 9.77232 66.3402 9.79224 66.335 9.8113C66.3297 9.83037 66.3205 9.84812 66.308 9.86364C66.2955 9.87909 66.2804 9.89205 66.2633 9.90165C66.2455 9.91124 66.2265 9.91729 66.2067 9.91953C66.1877 9.92176 66.1673 9.92006 66.1482 9.9146C66.1292 9.90914 66.1114 9.89994 66.0961 9.88764C66.0806 9.87528 66.0677 9.86003 66.0581 9.84267C66.0485 9.82531 66.0425 9.80631 66.0403 9.78658C65.9444 8.93545 65.3579 7.89837 63.1093 7.78995C62.1467 7.74616 61.3183 7.911 60.7137 8.26684C60.1935 8.57284 59.8797 8.99765 59.8303 9.46283C59.7865 9.87594 59.9621 10.2904 60.3259 10.63C60.7488 11.026 61.4027 11.3066 62.217 11.4437C62.4631 11.485 62.7216 11.5248 62.9715 11.5632C64.12 11.7403 65.308 11.9233 66.1837 12.3698C67.2147 12.8961 67.6401 13.7047 67.483 14.8415C67.3232 15.997 66.7623 16.8182 65.8166 17.2822C65.1693 17.6003 64.3384 17.7572 63.2921 17.7572Z" fill="black"/>
<path d="M63.3605 18.6353C63.0747 18.6353 62.7957 18.6258 62.5257 18.6115C61.4177 18.5525 60.4333 18.2881 59.5999 17.8256C58.9344 17.4574 58.354 16.9524 57.8972 16.3437C57.1128 15.3021 56.9279 14.3033 56.9204 14.2615C56.9168 14.2419 56.9172 14.2219 56.9215 14.2026C56.9257 14.1833 56.9337 14.1649 56.945 14.1487C56.9563 14.1324 56.9707 14.1185 56.9874 14.1079C57.004 14.0971 57.0226 14.0898 57.0421 14.0864C57.0615 14.0829 57.0815 14.0833 57.1009 14.0875C57.1201 14.0918 57.1385 14.0998 57.1547 14.1111C57.1709 14.1224 57.1847 14.1368 57.1954 14.1535C57.2061 14.1701 57.2134 14.1888 57.2169 14.2083C57.2185 14.2179 57.4003 15.1888 58.1459 16.1729C58.578 16.7454 59.126 17.2201 59.7538 17.5661C60.5446 18.0036 61.4832 18.254 62.5417 18.3104C64.1214 18.3943 65.2767 18.2453 66.1772 17.8412C66.7288 17.5939 67.1799 17.2441 67.5178 16.8015C67.8959 16.3067 68.1484 15.6762 68.268 14.9278C68.414 14.0122 68.2864 13.2976 67.8801 12.7424C67.5106 12.2384 66.8971 11.8599 66.0057 11.585C65.2007 11.3371 64.2752 11.2021 63.3801 11.0716C63.2234 11.0487 63.0677 11.0258 62.9134 11.0029C61.1025 10.7309 60.5393 9.97534 60.6075 9.41094C60.6512 9.04892 60.9359 8.7395 61.4088 8.53943C61.8999 8.33205 62.5564 8.25867 63.3073 8.32771C63.9534 8.38728 64.4518 8.57112 64.7883 8.87449C65.0423 9.10343 65.2038 9.39871 65.2681 9.75205C65.2717 9.77165 65.2715 9.7917 65.2675 9.81123C65.2634 9.83069 65.2556 9.84917 65.2443 9.8656C65.2331 9.88204 65.2187 9.89605 65.202 9.90683C65.1853 9.91768 65.1667 9.92511 65.1471 9.92866C65.1275 9.93227 65.1075 9.93188 65.088 9.92767C65.0686 9.92346 65.0502 9.91538 65.0339 9.904C65.0176 9.89263 65.0037 9.8781 64.993 9.86133C64.9824 9.8445 64.9751 9.82576 64.9717 9.80617C64.8461 9.11645 64.2769 8.72024 63.2798 8.62845C62.1892 8.52772 60.9871 8.78079 60.9074 9.44737C60.8794 9.68098 61.0262 9.92669 61.3216 10.1394C61.688 10.4034 62.2544 10.5988 62.9597 10.705C63.1134 10.728 63.2684 10.7509 63.425 10.7735C64.3313 10.9055 65.2686 11.0422 66.0959 11.2971C67.0517 11.5917 67.7151 12.0061 68.1247 12.5642C68.5823 13.1876 68.727 13.9766 68.5665 14.9759C68.0682 18.0856 65.5444 18.6353 63.3605 18.6353Z" fill="black"/>
<path d="M51.9582 18.304C51.918 18.304 51.8794 18.2881 51.851 18.2598C51.8226 18.2315 51.8066 18.1931 51.8066 18.1532V6.11666C51.8066 6.07665 51.8226 6.03829 51.851 6.01C51.8794 5.98171 51.918 5.96582 51.9582 5.96582C51.9984 5.96582 52.0369 5.98171 52.0653 6.01C52.0937 6.03829 52.1097 6.07665 52.1097 6.11666V18.1532C52.1097 18.1931 52.0937 18.2315 52.0653 18.2598C52.0369 18.2881 51.9984 18.304 51.9582 18.304Z" fill="black"/>
<path d="M52.968 18.304C52.9277 18.304 52.8892 18.2881 52.8608 18.2598C52.8324 18.2315 52.8164 18.1931 52.8164 18.1532V6.11666C52.8164 6.07665 52.8324 6.03829 52.8608 6.01C52.8892 5.98171 52.9277 5.96582 52.968 5.96582C53.0081 5.96582 53.0467 5.98171 53.0751 6.01C53.1035 6.03829 53.1195 6.07665 53.1195 6.11666V18.1532C53.1195 18.1931 53.1035 18.2315 53.0751 18.2598C53.0467 18.2881 53.0081 18.304 52.968 18.304Z" fill="black"/>
<path d="M53.9142 18.304C53.874 18.304 53.8355 18.2881 53.807 18.2598C53.7786 18.2315 53.7627 18.1931 53.7627 18.1532V6.11666C53.7627 6.07665 53.7786 6.03829 53.807 6.01C53.8355 5.98171 53.874 5.96582 53.9142 5.96582C53.9544 5.96582 53.9929 5.98171 54.0213 6.01C54.0497 6.03829 54.0657 6.07665 54.0657 6.11666V18.1532C54.0657 18.1931 54.0497 18.2315 54.0213 18.2598C53.9929 18.2881 53.9544 18.304 53.9142 18.304Z" fill="black"/>
<path d="M54.9235 18.304C54.8833 18.304 54.8448 18.2881 54.8164 18.2598C54.788 18.2315 54.772 18.1931 54.772 18.1532V6.11666C54.772 6.07665 54.788 6.03829 54.8164 6.01C54.8448 5.98171 54.8833 5.96582 54.9235 5.96582C54.9637 5.96582 55.0022 5.98171 55.0306 6.01C55.059 6.03829 55.075 6.07665 55.075 6.11666V18.1532C55.075 18.1931 55.059 18.2315 55.0306 18.2598C55.0022 18.2881 54.9637 18.304 54.9235 18.304Z" fill="black"/>
<path d="M53.5633 4.68272C53.1536 4.68272 52.7532 4.56108 52.4126 4.33317C52.072 4.10525 51.8066 3.78132 51.6498 3.40232C51.4931 3.02332 51.4521 2.60627 51.532 2.20393C51.6119 1.80158 51.8091 1.432 52.0988 1.14193C52.3884 0.851854 52.7575 0.65431 53.1592 0.574279C53.561 0.494247 53.9774 0.535323 54.3559 0.69231C54.7343 0.849298 55.0578 1.11515 55.2853 1.45624C55.5129 1.79733 55.6344 2.19834 55.6344 2.60857C55.6337 3.15847 55.4153 3.68566 55.027 4.0745C54.6388 4.46334 54.1124 4.68208 53.5633 4.68272ZM53.5633 0.836119C53.2133 0.836119 52.871 0.940072 52.58 1.13483C52.289 1.32959 52.0621 1.60641 51.9281 1.93028C51.7942 2.25416 51.7591 2.61054 51.8275 2.95436C51.8957 3.29818 52.0643 3.61401 52.3118 3.86189C52.5593 4.10977 52.8747 4.27858 53.218 4.34697C53.5614 4.41536 53.9172 4.38026 54.2405 4.24611C54.564 4.11196 54.8404 3.88477 55.0349 3.5933C55.2294 3.30182 55.3331 2.95913 55.3331 2.60857C55.3326 2.13866 55.1459 1.68814 54.8142 1.35586C54.4824 1.02358 54.0325 0.836668 53.5633 0.836119Z" fill="black"/>
<path d="M53.5593 3.91958C53.2311 3.91898 52.915 3.79533 52.6733 3.57298C52.4316 3.35063 52.2817 3.04571 52.2533 2.71827C52.2312 2.45943 52.2861 2.19982 52.4113 1.97227C52.5364 1.74472 52.7261 1.55945 52.9565 1.43988C53.1867 1.32031 53.4473 1.27182 53.7051 1.30053C53.9629 1.32924 54.2064 1.43388 54.4049 1.6012C54.6033 1.76852 54.7478 1.99101 54.8199 2.24054C54.8921 2.49007 54.8887 2.75543 54.8103 3.00306C54.7319 3.25069 54.5819 3.46947 54.3794 3.63173C54.1768 3.79401 53.9307 3.89247 53.6722 3.91468C53.6344 3.91788 53.5965 3.91958 53.5593 3.91958ZM52.5535 2.69244C52.5705 2.89182 52.6463 3.08165 52.771 3.23793C52.8959 3.39421 53.0642 3.50991 53.2546 3.57042C53.4451 3.63092 53.6492 3.6335 53.8411 3.57783C54.0331 3.52216 54.2042 3.41074 54.3329 3.25767C54.4616 3.10459 54.5421 2.91674 54.5642 2.71785C54.5863 2.51896 54.5491 2.31798 54.4571 2.14031C54.3651 1.96265 54.2226 1.81629 54.0476 1.71972C53.8726 1.62317 53.6729 1.58076 53.4738 1.59785C53.207 1.62116 52.9603 1.74947 52.7877 1.95465C52.6152 2.15984 52.531 2.42515 52.5535 2.69244Z" fill="black"/>
<path d="M53.5923 3.22364C53.4452 3.22363 53.3036 3.16825 53.1954 3.0685C53.0872 2.96875 53.0204 2.83192 53.0083 2.68517C52.9962 2.53841 53.0397 2.39247 53.13 2.27629C53.2204 2.16011 53.351 2.0822 53.4961 2.05802C53.6411 2.03384 53.7899 2.06515 53.913 2.14574C54.0361 2.22632 54.1244 2.35031 54.1604 2.49307C54.1964 2.63584 54.1775 2.78695 54.1075 2.91641C54.0374 3.04588 53.9213 3.14423 53.7822 3.19196C53.7211 3.21292 53.6569 3.22361 53.5923 3.22364ZM53.5923 2.35005C53.5606 2.35013 53.5291 2.35541 53.4992 2.3657C53.432 2.38902 53.3759 2.43679 53.3422 2.49954C53.3085 2.56229 53.2995 2.63545 53.3172 2.70449C53.3348 2.77354 53.3777 2.83345 53.4373 2.87233C53.4969 2.91122 53.5689 2.92624 53.6391 2.91444C53.7093 2.90263 53.7725 2.86485 53.8161 2.80858C53.8598 2.75231 53.8808 2.68167 53.8749 2.61065C53.8689 2.53964 53.8367 2.47343 53.7843 2.42517C53.7319 2.37689 53.6634 2.35009 53.5923 2.35005Z" fill="black"/>
<path d="M42.0146 3.65354C42.0146 3.61353 41.9988 3.57516 41.9705 3.54687C41.9423 3.51858 41.904 3.50269 41.864 3.50269C41.8241 3.50269 41.7858 3.51858 41.7575 3.54687C41.7293 3.57516 41.7134 3.61353 41.7134 3.65354C41.7134 4.4023 41.7134 5.23743 41.7134 6.10028H42.0146C42.0148 5.23705 42.0146 4.4023 42.0146 3.65354Z" fill="black"/>
<path d="M42.9609 3.40109C42.9609 3.36109 42.945 3.32272 42.9167 3.29443C42.8885 3.26614 42.8502 3.25024 42.8103 3.25024C42.7703 3.25024 42.732 3.26614 42.7038 3.29443C42.6755 3.32272 42.6597 3.36109 42.6597 3.40109C42.6597 4.16325 42.6597 5.09416 42.6597 6.07995H42.9609C42.9611 5.09416 42.9609 4.16325 42.9609 3.40109Z" fill="black"/>
<path d="M43.9702 6.08131C43.9702 4.9741 43.9702 3.9506 43.9702 3.21163C43.9702 3.17163 43.9543 3.13326 43.926 3.10498C43.8978 3.07668 43.8595 3.06079 43.8196 3.06079C43.7796 3.06079 43.7413 3.07668 43.7131 3.10498C43.6848 3.13326 43.6689 3.17163 43.6689 3.21163C43.6689 3.95136 43.6689 4.9741 43.6689 6.08131V6.1228H43.9702V6.08131Z" fill="black"/>
<path d="M44.9165 2.95896C44.9165 2.91895 44.9006 2.88058 44.8724 2.85229C44.8441 2.824 44.8058 2.80811 44.7659 2.80811C44.7259 2.80811 44.6876 2.824 44.6594 2.85229C44.6311 2.88058 44.6152 2.91895 44.6152 2.95896V6.10223H44.9165V2.95896Z" fill="black"/>
<path d="M49.8647 17.7141C49.8546 17.6969 49.8413 17.6819 49.8254 17.6699C49.8096 17.658 49.7915 17.6492 49.7722 17.6443C49.753 17.6393 49.7329 17.6382 49.7133 17.6411C49.6936 17.6439 49.6747 17.6506 49.6576 17.6608C49.2274 17.9144 48.353 18.1953 47.1896 18.2229C46.0194 18.2506 44.9113 18.0002 44.0703 17.5176C43.4388 17.1554 42.9448 16.6635 42.6017 16.0554C42.2108 15.3626 42.0133 14.5127 42.0146 13.5287C42.0159 12.6185 42.0159 10.9499 42.0156 9.12354H41.7143C41.7143 10.9499 41.7143 12.6183 41.7134 13.5283C41.712 14.5644 41.9227 15.4643 42.3394 16.203C42.7096 16.8592 43.2416 17.3892 43.9209 17.7786C44.9806 18.3861 46.1547 18.526 47.0107 18.526C47.0745 18.526 47.1368 18.526 47.1971 18.5238C48.2187 18.4997 49.2202 18.2683 49.8108 17.9204C49.8453 17.9002 49.8703 17.8671 49.8804 17.8284C49.8905 17.7897 49.8848 17.7486 49.8647 17.7141Z" fill="black"/>
<path d="M42.6597 13.0595C42.6584 14.5318 43.0594 15.6726 43.8517 16.4499C44.2723 16.8626 44.8006 17.1686 45.422 17.3572C45.913 17.508 46.4532 17.5835 47.0299 17.5835C47.0776 17.5835 47.1254 17.5829 47.1733 17.5819C48.2516 17.5585 49.2396 17.2501 49.7012 16.9731C49.7356 16.9525 49.7603 16.9192 49.7699 16.8804C49.7797 16.8415 49.7736 16.8004 49.7531 16.7661C49.7326 16.7318 49.6993 16.7071 49.6605 16.6973C49.6218 16.6875 49.5808 16.6937 49.5465 16.7142C49.1042 16.9795 48.1447 17.2591 47.167 17.2799C45.5191 17.3153 44.5687 16.7306 44.0633 16.2339C43.331 15.5156 42.9605 14.4475 42.9619 13.0593C42.9619 12.2932 42.9619 10.7814 42.9619 9.12354H42.6606C42.6604 10.7818 42.6604 12.2934 42.6597 13.0595Z" fill="black"/>
<path d="M43.6697 12.5898C43.6697 14.0497 44.0366 15.1354 44.7617 15.8196C45.3399 16.3643 46.1539 16.6476 47.1302 16.6476C47.2377 16.6476 47.3474 16.644 47.4589 16.6372C48.2841 16.5858 49.2408 16.279 49.6539 16.0252C49.6879 16.0043 49.7122 15.9706 49.7215 15.9317C49.7308 15.8928 49.7243 15.8518 49.7033 15.8177C49.6824 15.7836 49.6488 15.7592 49.6099 15.75C49.5711 15.7407 49.5301 15.7473 49.4961 15.7682C49.176 15.9656 48.3003 16.2826 47.4402 16.3361C47.3323 16.3428 47.2284 16.3459 47.1279 16.3459C46.0074 16.3459 45.3392 15.95 44.9681 15.5998C44.3055 14.9759 43.9701 13.9631 43.9701 12.59C43.9701 11.9474 43.9701 10.6307 43.9701 9.12354H43.6689C43.6697 10.6307 43.6697 11.9472 43.6697 12.5898Z" fill="black"/>
<path d="M44.6152 12.1207C44.6152 13.5726 44.9434 14.6004 45.5906 15.1754C46.0014 15.5399 46.5412 15.7235 47.1996 15.7235C47.3617 15.7229 47.5236 15.7127 47.6844 15.6927C48.3651 15.6102 49.2409 15.2732 49.5448 15.0775C49.5616 15.0668 49.5761 15.0529 49.5874 15.0367C49.5988 15.0204 49.6068 15.002 49.6111 14.9826C49.6154 14.9633 49.6158 14.9431 49.6123 14.9236C49.6088 14.9041 49.6015 14.8854 49.5907 14.8686C49.58 14.8519 49.5661 14.8375 49.5498 14.8262C49.5335 14.8149 49.5151 14.8069 49.4957 14.8028C49.4763 14.7985 49.4563 14.7983 49.4367 14.8018C49.4172 14.8055 49.3986 14.8129 49.382 14.8237C49.1487 14.9746 48.3254 15.3111 47.6483 15.3933C46.8556 15.4895 46.2305 15.3401 45.7903 14.9494C45.2106 14.4349 44.9165 13.4834 44.9165 12.1211V9.12354H44.6152V12.1207Z" fill="black"/>
<path d="M49.2355 9.29929H39.592C39.5521 9.29929 39.5137 9.28337 39.4855 9.2551C39.4573 9.22683 39.4414 9.18843 39.4414 9.14846C39.4414 9.10841 39.4573 9.07008 39.4855 9.04174C39.5137 9.01347 39.5521 8.99756 39.592 8.99756H49.2355C49.2754 8.99756 49.3136 9.01347 49.3419 9.04174C49.3702 9.07008 49.386 9.10841 49.386 9.14846C49.386 9.18843 49.3702 9.22683 49.3419 9.2551C49.3136 9.28337 49.2754 9.29929 49.2355 9.29929Z" fill="black"/>
<path d="M49.2355 8.28854H39.592C39.5521 8.28854 39.5137 8.27263 39.4855 8.24436C39.4573 8.21609 39.4414 8.17769 39.4414 8.13771C39.4414 8.09767 39.4573 8.05934 39.4855 8.031C39.5137 8.00273 39.5521 7.98682 39.592 7.98682H49.2355C49.2754 7.98682 49.3136 8.00273 49.3419 8.031C49.3702 8.05934 49.386 8.09767 49.386 8.13771C49.386 8.17769 49.3702 8.21609 49.3419 8.24436C49.3136 8.27263 49.2754 8.28854 49.2355 8.28854Z" fill="black"/>
<path d="M49.2355 7.34152H39.592C39.5521 7.34152 39.5137 7.32561 39.4855 7.29734C39.4573 7.269 39.4414 7.23067 39.4414 7.19063C39.4414 7.15065 39.4573 7.11225 39.4855 7.08398C39.5137 7.05571 39.5521 7.03979 39.592 7.03979H49.2355C49.2754 7.03979 49.3136 7.05571 49.3419 7.08398C49.3702 7.11225 49.386 7.15065 49.386 7.19063C49.386 7.23067 49.3702 7.269 49.3419 7.29734C49.3136 7.32561 49.2754 7.34152 49.2355 7.34152Z" fill="black"/>
<path d="M49.2355 6.33075H39.592C39.5521 6.33075 39.5137 6.31485 39.4855 6.28656C39.4573 6.25827 39.4414 6.21991 39.4414 6.1799C39.4414 6.13989 39.4573 6.10152 39.4855 6.07323C39.5137 6.04494 39.5521 6.02905 39.592 6.02905H49.2355C49.2754 6.02905 49.3136 6.04494 49.3419 6.07323C49.3702 6.10152 49.386 6.13989 49.386 6.1799C49.386 6.21991 49.3702 6.25827 49.3419 6.28656C49.3136 6.31485 49.2754 6.33075 49.2355 6.33075Z" fill="black"/>
<path d="M34.9871 18.2942C34.9471 18.2942 34.9088 18.2784 34.8805 18.2501C34.8523 18.2217 34.8364 18.1834 34.8364 18.1434V1.50607C34.8364 1.46607 34.8523 1.42769 34.8805 1.39941C34.9088 1.37112 34.9471 1.35522 34.9871 1.35522C35.027 1.35522 35.0653 1.37112 35.0935 1.39941C35.1218 1.42769 35.1377 1.46607 35.1377 1.50607V18.1434C35.1377 18.1834 35.1218 18.2217 35.0935 18.2501C35.0653 18.2784 35.027 18.2942 34.9871 18.2942Z" fill="black"/>
<path d="M35.9963 18.2942C35.9564 18.2942 35.918 18.2784 35.8898 18.2501C35.8615 18.2217 35.8457 18.1834 35.8457 18.1434V1.50607C35.8457 1.46607 35.8615 1.42769 35.8898 1.39941C35.918 1.37112 35.9564 1.35522 35.9963 1.35522C36.0362 1.35522 36.0746 1.37112 36.1028 1.39941C36.1311 1.42769 36.1469 1.46607 36.1469 1.50607V18.1434C36.1469 18.1834 36.1311 18.2217 36.1028 18.2501C36.0746 18.2784 36.0362 18.2942 35.9963 18.2942Z" fill="black"/>
<path d="M36.9431 18.2942C36.9031 18.2942 36.8648 18.2784 36.8366 18.2501C36.8083 18.2217 36.7925 18.1834 36.7925 18.1434V1.50607C36.7925 1.46607 36.8083 1.42769 36.8366 1.39941C36.8648 1.37112 36.9031 1.35522 36.9431 1.35522C36.983 1.35522 37.0214 1.37112 37.0496 1.39941C37.0778 1.42769 37.0937 1.46607 37.0937 1.50607V18.1434C37.0937 18.1834 37.0778 18.2217 37.0496 18.2501C37.0214 18.2784 36.983 18.2942 36.9431 18.2942Z" fill="black"/>
<path d="M37.9524 18.2942C37.9124 18.2942 37.8741 18.2784 37.8459 18.2501C37.8176 18.2217 37.8018 18.1834 37.8018 18.1434V1.50607C37.8018 1.46607 37.8176 1.42769 37.8459 1.39941C37.8741 1.37112 37.9124 1.35522 37.9524 1.35522C37.9923 1.35522 38.0306 1.37112 38.0589 1.39941C38.0871 1.42769 38.103 1.46607 38.103 1.50607V18.1434C38.103 18.1834 38.0871 18.2217 38.0589 18.2501C38.0306 18.2784 37.9923 18.2942 37.9524 18.2942Z" fill="black"/>
<path d="M29.2282 16.8236C29.2282 16.561 29.2205 16.2983 29.2094 16.0358C29.1731 16.0404 29.1397 16.058 29.1155 16.0855C29.0913 16.1128 29.0778 16.1481 29.0776 16.1847C29.0754 16.9119 28.5722 17.3727 28.1507 17.631C27.567 17.9893 26.7806 18.1856 25.935 18.1856H25.9265C25.3713 18.1847 24.8195 18.0973 24.2911 17.9265C23.7305 17.7426 23.2324 17.4704 22.81 17.117C22.3494 16.7323 21.9823 16.2475 21.7369 15.6994C21.4601 15.0861 21.3198 14.3769 21.3198 13.5919V6.11666C21.3198 6.07665 21.3039 6.03829 21.2757 6.01C21.2474 5.98171 21.2091 5.96582 21.1692 5.96582C21.1292 5.96582 21.0909 5.98171 21.0627 6.01C21.0344 6.03829 21.0186 6.07665 21.0186 6.11666V13.5912C21.0186 15.1739 21.5712 16.4731 22.6163 17.3478C23.0682 17.7249 23.5999 18.0166 24.1968 18.2123C24.7549 18.3943 25.3383 18.4868 25.9254 18.4865H25.9344C26.8346 18.4865 27.6772 18.274 28.3068 17.8877C28.7487 17.6169 29.0633 17.2707 29.233 16.8789C29.2293 16.8607 29.2278 16.8421 29.2282 16.8236Z" fill="black"/>
<path d="M29.0996 14.5788C29.0841 14.5929 29.0719 14.61 29.0634 14.6291C29.0549 14.6482 29.0505 14.6688 29.0504 14.6897C29.0489 15.6153 28.5461 16.1901 28.1245 16.5093C27.5596 16.9364 26.8052 17.1715 25.9969 17.1715H25.9933C24.1383 17.1698 22.2666 15.9194 22.2666 13.1299V6.11666C22.2666 6.07665 22.2508 6.03829 22.2225 6.01C22.1942 5.98171 22.1559 5.96582 22.116 5.96582C22.0761 5.96582 22.0377 5.98171 22.0094 6.01C21.9812 6.03829 21.9653 6.07665 21.9653 6.11666V13.1299C21.9653 14.5142 22.4091 15.6566 23.2488 16.4359C23.9695 17.1038 24.9434 17.473 25.9929 17.473H25.9969C26.8701 17.473 27.6899 17.2162 28.3059 16.7497C28.6311 16.5046 28.886 16.2085 29.0638 15.8727C29.1005 15.8033 29.1336 15.7326 29.1632 15.6606C29.1438 15.3006 29.1197 14.9397 29.0996 14.5788Z" fill="black"/>
<path d="M29.0948 13.1441C29.089 13.1602 29.0859 13.1773 29.0859 13.1944C29.0859 14.0948 28.7754 14.8611 28.1897 15.4107C27.6689 15.8993 26.9489 16.1795 26.2138 16.1795H26.2131C24.7512 16.1795 23.2759 15.0928 23.2759 12.6678V6.11666C23.2759 6.07665 23.26 6.03829 23.2318 6.01C23.2035 5.98171 23.1652 5.96582 23.1252 5.96582C23.0853 5.96582 23.047 5.98171 23.0187 6.01C22.9905 6.03829 22.9746 6.07665 22.9746 6.11666V12.6672C22.9746 13.8653 23.3235 14.8605 23.9836 15.5456C24.5645 16.149 25.356 16.4802 26.2125 16.4806H26.2138C27.0246 16.4806 27.8197 16.1706 28.3957 15.6302C28.7166 15.3298 28.9684 14.963 29.1337 14.5555C29.1076 14.085 29.0886 13.6143 29.0948 13.1441Z" fill="black"/>
<path d="M29.1482 11.9664C29.1532 11.9248 29.166 11.8846 29.1858 11.8477C29.1677 11.7551 29.1496 11.6627 29.1314 11.5703C29.1093 11.5838 29.091 11.6026 29.0782 11.6252C29.0655 11.6478 29.0588 11.6732 29.0587 11.6991C29.0587 13.062 28.6029 13.8851 28.2205 14.3358C27.7498 14.8907 27.1053 15.2089 26.4533 15.2089C25.8617 15.2089 25.3172 14.9507 24.9201 14.4821C24.4635 13.9432 24.2221 13.156 24.2221 12.2058V6.11666C24.2221 6.07665 24.2063 6.03829 24.178 6.01C24.1498 5.98171 24.1114 5.96582 24.0715 5.96582C24.0316 5.96582 23.9932 5.98171 23.965 6.01C23.9367 6.03829 23.9209 6.07665 23.9209 6.11666V12.2058C23.9209 13.2286 24.1869 14.0831 24.6904 14.6772C25.1458 15.2147 25.7719 15.5107 26.4533 15.5107C27.1938 15.5107 27.9219 15.1535 28.4491 14.5311C28.6592 14.2835 28.8896 13.9334 29.0661 13.4595C29.0633 12.961 29.0827 12.4628 29.1482 11.9664Z" fill="black"/>
<path d="M29.1824 18.3106C29.1424 18.3106 29.1041 18.2948 29.0759 18.2664C29.0476 18.2382 29.0317 18.1998 29.0317 18.1598V6.1799C29.0317 6.13989 29.0476 6.10152 29.0759 6.07324C29.1041 6.04494 29.1424 6.02905 29.1824 6.02905C29.2223 6.02905 29.2606 6.04494 29.2888 6.07324C29.3171 6.10152 29.3329 6.13989 29.3329 6.1799V18.1598C29.3329 18.1998 29.3171 18.2382 29.2888 18.2664C29.2606 18.2948 29.2223 18.3106 29.1824 18.3106Z" fill="black"/>
<path d="M30.1921 18.3106C30.1522 18.3106 30.1138 18.2948 30.0856 18.2664C30.0574 18.2382 30.0415 18.1998 30.0415 18.1598V6.1799C30.0415 6.13989 30.0574 6.10152 30.0856 6.07324C30.1138 6.04494 30.1522 6.02905 30.1921 6.02905C30.232 6.02905 30.2704 6.04494 30.2986 6.07324C30.3269 6.10152 30.3427 6.13989 30.3427 6.1799V18.1598C30.3427 18.1998 30.3269 18.2382 30.2986 18.2664C30.2704 18.2948 30.232 18.3106 30.1921 18.3106Z" fill="black"/>
<path d="M31.1384 18.3106C31.0984 18.3106 31.0602 18.2948 31.0319 18.2664C31.0036 18.2382 30.9878 18.1998 30.9878 18.1598V6.1799C30.9878 6.13989 31.0036 6.10152 31.0319 6.07324C31.0602 6.04494 31.0984 6.02905 31.1384 6.02905C31.1783 6.02905 31.2167 6.04494 31.2449 6.07324C31.2731 6.10152 31.2891 6.13989 31.2891 6.1799V18.1598C31.2891 18.1998 31.2731 18.2382 31.2449 18.2664C31.2167 18.2948 31.1783 18.3106 31.1384 18.3106Z" fill="black"/>
<path d="M32.1477 18.3106C32.1077 18.3106 32.0694 18.2948 32.0412 18.2664C32.0129 18.2382 31.9971 18.1998 31.9971 18.1598V6.1799C31.9971 6.13989 32.0129 6.10152 32.0412 6.07324C32.0694 6.04494 32.1077 6.02905 32.1477 6.02905C32.1876 6.02905 32.2259 6.04494 32.2542 6.07324C32.2824 6.10152 32.2983 6.13989 32.2983 6.1799V18.1598C32.2983 18.1998 32.2824 18.2382 32.2542 18.2664C32.2259 18.2948 32.1876 18.3106 32.1477 18.3106Z" fill="black"/>
<path d="M18.7822 8.47851C18.5514 7.91135 18.2023 7.40014 17.7584 6.97888C16.9676 6.22995 15.8637 5.76477 14.6485 5.66879C13.5476 5.58168 12.4605 5.79777 11.5874 6.27671C10.983 6.60839 10.5211 7.05095 10.2305 7.5657C10.283 7.611 10.3328 7.65946 10.3796 7.71068C10.4023 7.7356 10.4257 7.76236 10.4491 7.79122C10.5248 7.64533 10.6144 7.50699 10.7164 7.37805C10.9742 7.05134 11.3159 6.76979 11.7331 6.54145C12.5428 6.09664 13.5971 5.88828 14.6259 5.96955C15.7724 6.06005 16.8117 6.49638 17.5524 7.19803C17.9652 7.59003 18.2898 8.06573 18.5045 8.59337C18.745 9.17789 18.867 9.84558 18.867 10.5761V18.1814C18.867 18.2214 18.8828 18.2597 18.9111 18.288C18.9394 18.3164 18.9777 18.3322 19.0176 18.3322C19.0575 18.3322 19.0959 18.3164 19.1241 18.288C19.1523 18.2597 19.1683 18.2214 19.1683 18.1814V10.5761C19.1673 9.80594 19.0377 9.10018 18.7822 8.47851Z" fill="black"/>
<path d="M11.7287 7.54714C12.4108 7.08721 13.2862 6.85927 14.1939 6.9049C15.1743 6.9543 16.0724 7.32201 16.7227 7.94025C17.4702 8.65114 17.8652 9.67014 17.8652 10.8874V18.1869C17.8652 18.227 17.8811 18.2653 17.9093 18.2936C17.9376 18.3219 17.9759 18.3378 18.0158 18.3378C18.0558 18.3378 18.0941 18.3219 18.1223 18.2936C18.1506 18.2653 18.1665 18.227 18.1665 18.1869V10.8874C18.1665 9.58637 17.7389 8.49071 16.9302 7.72157C16.2277 7.05368 15.2614 6.65657 14.209 6.60358C13.2368 6.55437 12.2962 6.80081 11.5606 7.29689C11.2105 7.52886 10.9086 7.82664 10.6719 8.17373C10.7278 8.28354 10.7759 8.39722 10.8157 8.51386C11.0714 8.06623 11.4216 7.75418 11.7287 7.54714Z" fill="black"/>
<path d="M11.0428 9.58918C11.2107 9.18383 11.4738 8.82503 11.8098 8.54322C12.366 8.0764 13.0992 7.82957 13.8753 7.84726C14.6813 7.86613 15.4277 8.17101 15.9771 8.70425C16.6013 9.30994 16.9311 10.175 16.9311 11.2048V18.1991C16.9311 18.2392 16.947 18.2775 16.9753 18.3059C17.0035 18.3341 17.0418 18.35 17.0817 18.35C17.1217 18.35 17.16 18.3341 17.1882 18.3059C17.2165 18.2775 17.2323 18.2392 17.2323 18.1991V11.2055C17.2323 10.0917 16.8708 9.15214 16.1866 8.48839C15.5828 7.90236 14.7645 7.56782 13.8824 7.5456C13.0331 7.52673 12.2286 7.79788 11.6159 8.31205C11.3693 8.5187 11.1572 8.76342 10.9878 9.03707C11.0143 9.19717 11.0315 9.35866 11.0391 9.52073C11.0407 9.54433 11.0416 9.56636 11.0428 9.58918Z" fill="black"/>
<path d="M11.8386 9.46158C12.0527 9.22975 12.3125 9.04506 12.6017 8.91914C12.8909 8.79323 13.203 8.72886 13.5182 8.73011C13.8267 8.72913 14.1322 8.78975 14.4169 8.90843C14.7015 9.02717 14.9598 9.20161 15.1763 9.42161C15.6714 9.92203 15.9332 10.6284 15.9332 11.4663V18.1541C15.9332 18.1941 15.949 18.2325 15.9773 18.2608C16.0055 18.289 16.0438 18.305 16.0838 18.305C16.1237 18.305 16.1621 18.289 16.1903 18.2608C16.2185 18.2325 16.2344 18.1941 16.2344 18.1541V11.4663C16.2344 9.4723 14.868 8.42898 13.5181 8.42898C13.1614 8.42747 12.8082 8.50019 12.481 8.64267C12.1539 8.78508 11.8599 8.9941 11.6177 9.25638C11.3758 9.51885 11.1838 9.82314 11.0508 10.1545C11.0651 10.5316 11.0766 10.9168 11.086 11.2859C11.1611 10.5392 11.4172 9.91407 11.8386 9.46158Z" fill="black"/>
<path d="M0.664786 18.3995C0.624838 18.3995 0.586525 18.3836 0.558277 18.3553C0.53003 18.3271 0.51416 18.2887 0.51416 18.2487V10.4423C0.51416 8.94987 1.08485 7.7022 2.16427 6.83388C3.11341 6.07041 4.39881 5.64992 5.78325 5.64992C6.45758 5.6483 7.1281 5.75127 7.771 5.95519C8.42995 6.16524 9.01743 6.47298 9.51936 6.86952C10.6461 7.75992 11.2414 9.0191 11.2414 10.5087V18.1703C11.2414 18.2102 11.2255 18.2486 11.1973 18.2769C11.169 18.3052 11.1307 18.3211 11.0908 18.3211C11.0508 18.3211 11.0125 18.3052 10.9843 18.2769C10.956 18.2486 10.9402 18.2102 10.9402 18.1703V10.5083C10.9402 9.11299 10.3844 7.93751 9.33276 7.10637C8.85943 6.73224 8.30305 6.44168 7.67948 6.24256C7.06616 6.0482 6.42652 5.95006 5.78325 5.95161C4.46716 5.95161 3.24878 6.34759 2.35293 7.06902C1.34712 7.87814 0.815412 9.04455 0.815412 10.4423V18.2487C0.815412 18.2887 0.799543 18.3271 0.771295 18.3553C0.743047 18.3836 0.704735 18.3995 0.664786 18.3995Z" fill="black"/>
<path d="M1.61108 18.3854C1.57113 18.3854 1.53281 18.3695 1.50457 18.3412C1.47631 18.3129 1.46045 18.2745 1.46045 18.2345V10.7614C1.46045 9.46993 1.93115 8.38762 2.82267 7.6313C3.60838 6.96512 4.66916 6.59741 5.81091 6.59741C6.97186 6.59741 8.05903 6.97452 8.87243 7.65806C9.79273 8.43115 10.2793 9.52819 10.2793 10.8283V18.1844C10.2793 18.2243 10.2634 18.2627 10.2352 18.291C10.2069 18.3193 10.1686 18.3352 10.1286 18.3352C10.0887 18.3352 10.0503 18.3193 10.0221 18.291C9.99386 18.2627 9.97801 18.2243 9.97801 18.1844V10.8283C9.97801 9.62024 9.52874 8.60328 8.67886 7.88904C8.29698 7.56851 7.84798 7.31866 7.34413 7.14817C6.85008 6.98202 6.33224 6.89788 5.81109 6.89912C4.74108 6.89912 3.74902 7.24094 3.01755 7.86077C2.19607 8.55844 1.76189 9.5604 1.76189 10.7604V18.2336C1.76201 18.2535 1.7582 18.2732 1.75068 18.2916C1.74315 18.3101 1.73206 18.3268 1.71804 18.3409C1.70402 18.3551 1.68735 18.3662 1.669 18.3739C1.65063 18.3815 1.63095 18.3854 1.61108 18.3854Z" fill="black"/>
<path d="M2.55785 18.3715C2.5179 18.3715 2.4796 18.3556 2.45134 18.3273C2.4231 18.2991 2.40723 18.2607 2.40723 18.2207V11.0807C2.40723 9.99104 2.77777 9.07481 3.47893 8.43086C4.10027 7.85995 4.93794 7.54468 5.83605 7.54468C6.74564 7.5454 7.59294 7.86593 8.22611 8.44861C8.94009 9.10591 9.31816 10.0395 9.31816 11.1488V18.199C9.31816 18.239 9.30231 18.2774 9.27404 18.3057C9.24577 18.3339 9.2075 18.3498 9.16752 18.3498C9.12761 18.3498 9.08928 18.3339 9.06101 18.3057C9.0328 18.2774 9.01689 18.239 9.01689 18.199V11.1488C9.01689 10.1262 8.67308 9.26923 8.02295 8.67071C7.44546 8.13958 6.66901 7.84713 5.83605 7.84713C5.01344 7.84713 4.24863 8.13353 3.68247 8.65335C3.04532 9.23794 2.70848 10.078 2.70848 11.0807V18.2207C2.70848 18.2607 2.69261 18.2991 2.66436 18.3273C2.63612 18.3556 2.5978 18.3715 2.55785 18.3715Z" fill="black"/>
<path d="M8.2042 18.3002C8.16429 18.3002 8.12596 18.2844 8.09775 18.256C8.06948 18.2278 8.05363 18.1894 8.05363 18.1494V11.405C8.05363 10.5665 7.81411 9.86804 7.36069 9.38477C7.16851 9.17766 6.93556 9.01263 6.67658 8.90006C6.41758 8.7875 6.13813 8.72984 5.8558 8.73069C5.57368 8.72997 5.29441 8.78704 5.0351 8.89835C4.7758 9.0096 4.54193 9.1728 4.34784 9.3778C3.89445 9.85186 3.65477 10.529 3.65477 11.336V18.143C3.65477 18.183 3.6389 18.2214 3.61065 18.2496C3.5824 18.2779 3.54409 18.2938 3.50414 18.2938C3.46419 18.2938 3.42588 18.2779 3.39763 18.2496C3.36939 18.2214 3.35352 18.183 3.35352 18.143V11.336C3.35352 10.4498 3.6222 9.70024 4.13037 9.16905C4.3525 8.93458 4.62012 8.74799 4.91681 8.62069C5.21351 8.4934 5.53303 8.42818 5.8558 8.42897C6.17931 8.42798 6.49953 8.49399 6.79632 8.62299C7.09309 8.75193 7.35997 8.94103 7.58023 9.17832C8.0871 9.71832 8.35484 10.4884 8.35484 11.405V18.1494C8.35484 18.1894 8.33899 18.2278 8.31072 18.256C8.28251 18.2844 8.24418 18.3002 8.2042 18.3002Z" fill="black"/>
</g>
</g>
</g>
<defs>
<clipPath id="clip0_2_3851">
<rect width="68.38" height="18.41" fill="white" transform="translate(0.359863 0.379883)"/>
</clipPath>
<clipPath id="clip1_2_3851">
<rect width="68.38" height="18.41" fill="white" transform="translate(0.359863 0.379883)"/>
</clipPath>
</defs>
</svg>
