<svg width="69" height="10" viewBox="0 0 69 10" fill="none" xmlns="http://www.w3.org/2000/svg">
<g clip-path="url(#clip0_2_3797)">
<mask id="mask0_2_3797" style="mask-type:luminance" maskUnits="userSpaceOnUse" x="0" y="0" width="69" height="10">
<path d="M68.7027 0.655396H0.397461V9.48795H68.7027V0.655396Z" fill="white"/>
</mask>
<g mask="url(#mask0_2_3797)">
<path d="M14.1277 7.5335C15.4416 7.5335 16.376 6.51087 16.376 5.07196C16.376 3.63306 15.441 2.61043 14.1277 2.61043C12.8146 2.61043 11.8795 3.63306 11.8795 5.07196C11.8795 6.51087 12.8146 7.5335 14.1277 7.5335ZM18.3995 5.07196C18.3995 7.58161 16.5654 9.48796 14.1277 9.48796C11.6901 9.48796 9.85596 7.58161 9.85596 5.07196C9.85596 2.56231 11.6901 0.655396 14.1277 0.655396C16.5654 0.655396 18.3995 2.56171 18.3995 5.07196Z" fill="black"/>
<path d="M21.1006 0.848633V4.27566L24.0591 0.848633H26.7687L23.1004 4.85494L27.1358 9.29498H24.3782L21.1006 5.61469V9.29498H19.0889V0.848633H21.1006Z" fill="black"/>
<path d="M32.4106 5.81985L31.6041 3.56343L30.8013 5.81985H32.4106ZM33.0968 7.72674H30.1146L29.5589 9.29498H27.4155L30.6472 0.848633H32.5647L35.7927 9.29498H33.6531L33.0968 7.72674Z" fill="black"/>
<path d="M45.3653 5.88024L47.1049 6.63999C46.4183 8.41398 45.0697 9.48774 43.0933 9.48774C40.3831 9.48774 38.9277 7.49659 38.9277 5.22812C38.9277 2.94767 40.3955 0.656372 43.271 0.656372C44.9039 0.656372 46.0754 1.35658 46.8448 2.63547L45.2709 3.8163C44.845 3.04452 44.0993 2.61321 43.1877 2.61321C41.6853 2.61321 40.9514 3.8163 40.9514 5.06271C40.9514 6.46191 41.8627 7.52425 43.2355 7.52425C44.2767 7.52425 44.9983 6.90887 45.3653 5.88322V5.88024Z" fill="black"/>
<path d="M36.8124 7.17772C36.6762 7.27813 36.3653 7.42372 36.2574 7.55486C36.1353 7.70406 36.1311 7.7588 36.1223 7.95308C36.1029 8.36277 36.2497 8.79529 36.5641 9.04792C36.6356 9.10305 36.7102 9.15369 36.7877 9.19951C36.8625 9.24869 36.9416 9.29094 37.0236 9.32582C37.1249 9.36178 37.2309 9.38208 37.3381 9.38598C37.6198 9.41491 37.9036 9.35866 38.154 9.22419C38.3982 9.08222 38.5882 8.82773 38.6117 8.54202C38.6237 8.39882 38.5947 8.25509 38.5905 8.11131C38.5858 7.94469 38.6153 7.77744 38.6064 7.61082C38.5976 7.44416 38.5399 7.26671 38.4047 7.17226C38.3372 7.13078 38.2631 7.10088 38.1858 7.08385C37.9369 7.01588 37.6549 6.92684 37.3978 6.93709C37.1724 6.94612 36.9848 7.04657 36.8124 7.17772Z" fill="black" fill-opacity="0.32"/>
<path d="M58.9037 4.44529C59.4838 4.44529 59.8976 4.14453 59.8976 3.552C59.8976 2.98474 59.5312 2.73148 58.9745 2.73148H57.7201V4.44529H58.9037ZM61.9126 3.395C61.9126 4.37251 61.3564 5.2899 60.3386 5.72417L62.3619 9.29561H60.0303L58.3831 6.23007H57.7201V9.298H55.7085V0.848633H59.155C61.0607 0.848633 61.9126 2.05534 61.9126 3.39439V3.395Z" fill="black"/>
<path d="M65.2133 2.80367V4.08257H68.0884V6.03701H65.2133V7.34057H68.7036V9.29498H63.2017V0.848633H68.6095V2.80367H65.2133Z" fill="black"/>
<path d="M7.16646 4.54624V9.31234H9.17815V0.865967H6.68096L4.7878 5.40284L2.8941 0.865967H0.397461V9.31234H2.40917V4.54624L3.6327 7.35125C3.65984 7.40482 4.01026 8.14349 4.79371 8.14349C5.57715 8.14349 5.94585 7.35247 5.94585 7.35247" fill="black"/>
<path d="M51.8707 5.81985L51.0662 3.56343L50.2612 5.81985H51.8707ZM52.5567 7.72674H49.5752L49.019 9.29498H46.877L50.1075 0.848633H52.0249L55.2553 9.29498H53.1129L52.5567 7.72674Z" fill="black"/>
</g>
</g>
<defs>
<clipPath id="clip0_2_3797">
<rect width="68.3053" height="9.27" fill="white" transform="translate(0.397461 0.339966)"/>
</clipPath>
</defs>
</svg>
