<svg width="69" height="16" viewBox="0 0 69 16" fill="none" xmlns="http://www.w3.org/2000/svg">
<g clip-path="url(#clip0_2_3756)">
<mask id="mask0_2_3756" style="mask-type:luminance" maskUnits="userSpaceOnUse" x="0" y="0" width="69" height="16">
<path d="M68.6275 0.389893H0.272461V15.4041H68.6275V0.389893Z" fill="white"/>
</mask>
<g mask="url(#mask0_2_3756)">
<path fill-rule="evenodd" clip-rule="evenodd" d="M4.98373 0.452048C3.65863 0.644899 2.65507 1.08864 1.86463 1.8312C1.35243 2.31236 1.06329 2.77878 0.846187 3.47398C0.731728 3.84042 0.723412 3.91746 0.725513 4.58981C0.727745 5.31057 0.784077 5.66865 0.969968 6.14364C1.15612 6.61934 1.61239 7.1772 2.07057 7.48932C2.66707 7.89564 3.68472 8.27844 4.83346 8.52862C4.92976 8.54958 5.09718 8.58626 5.20551 8.61004C5.31384 8.63389 5.52065 8.67627 5.66509 8.70422C5.80954 8.73216 6.0065 8.77219 6.10279 8.79315C6.19909 8.81412 6.38621 8.85475 6.51861 8.88346C7.71292 9.14237 8.45326 9.46387 8.78706 9.8686C9.02775 10.1605 9.11182 10.4552 9.09291 10.9414C9.07818 11.3203 9.06063 11.3942 8.91641 11.6855C8.8283 11.8633 8.68119 12.0815 8.58944 12.1702C8.07336 12.6696 7.19609 12.9498 6.14919 12.9499C4.73919 12.9499 3.72118 12.4678 3.27809 11.5899C3.20784 11.4508 3.10188 11.1552 3.04261 10.933C2.98334 10.7109 2.90898 10.5128 2.87742 10.4928C2.84587 10.4727 2.26604 10.4561 1.58888 10.4556C0.555685 10.4551 0.349134 10.4654 0.304095 10.5196C0.242116 10.5944 0.274594 11.0564 0.371983 11.4847C0.744772 13.1247 1.78519 14.3207 3.38905 14.9532C4.69353 15.4675 6.56037 15.5493 8.10397 15.1597C9.84087 14.7214 11.154 13.603 11.6193 12.1656C11.9994 10.9913 11.9011 9.59815 11.3728 8.67482C10.9623 7.95739 10.3598 7.48472 9.3213 7.06531C8.61709 6.78094 7.97721 6.61912 6.36541 6.3179C5.03625 6.0695 4.40644 5.87617 3.9673 5.58181C3.60878 5.34148 3.4488 5.05806 3.4214 4.61458C3.37233 3.82007 3.94099 3.20361 4.97515 2.93031C5.48363 2.79594 6.4808 2.79392 6.98253 2.92624C7.93901 3.17853 8.44354 3.66175 8.66668 4.5393C8.71362 4.72357 8.78501 4.89896 8.82542 4.92903C8.88003 4.96965 9.20578 4.98374 10.0911 4.98374C11.4253 4.98374 11.4209 4.98475 11.4209 4.68208C11.4209 4.44458 11.2721 3.78536 11.1382 3.42991C10.893 2.77895 10.5204 2.23283 9.98973 1.7465C9.26646 1.08382 8.28511 0.639078 7.14676 0.458088C6.62169 0.374618 5.53659 0.371598 4.98373 0.452048ZM44.314 0.442155C42.5588 0.720052 41.0142 1.55181 39.9036 2.81712C38.2778 4.66956 37.6683 7.14419 38.2315 9.60529C38.5928 11.1838 39.4765 12.652 40.6374 13.6031C41.6324 14.4182 42.6551 14.8902 43.8594 15.0904C44.3394 15.1702 44.5948 15.1821 45.815 15.1821C47.0326 15.1821 47.2276 15.173 47.2873 15.1134C47.3463 15.0543 47.3561 14.8814 47.3561 13.8909C47.3561 12.9005 47.3463 12.7276 47.2873 12.6685C47.2277 12.609 47.0336 12.5996 45.832 12.5992C44.5143 12.5987 44.4243 12.5935 44.0219 12.4933C43.5392 12.3731 43.3344 12.2894 42.8928 12.0314C41.8162 11.4027 41.0231 10.2162 40.7275 8.79171C40.6458 8.39836 40.6346 7.23234 40.7094 6.92118C40.9063 6.10277 41.1642 5.48697 41.547 4.92062C41.7923 4.55768 42.3652 3.9993 42.7571 3.74124C43.6963 3.12281 44.6899 2.88129 45.9075 2.97553C48.2929 3.16015 49.7751 4.28596 50.1785 6.21976C50.2351 6.49109 50.2448 7.1631 50.2448 10.813C50.2449 14.6413 50.252 15.0956 50.3136 15.1572C50.3729 15.2163 50.5498 15.226 51.5815 15.226C52.7221 15.226 52.7827 15.2219 52.8258 15.1413C52.8561 15.0845 52.8711 13.6484 52.8711 10.7933C52.8711 6.34626 52.8666 6.22007 52.6796 5.41575C52.372 4.09219 51.6182 2.89687 50.5311 2.00877C49.8096 1.41941 48.872 0.95803 47.8715 0.700181C47.4048 0.5799 47.1964 0.540769 46.4504 0.43327C46.0703 0.378469 44.6797 0.384291 44.314 0.442155ZM62.1504 0.436027C61.3724 0.589222 60.8613 0.745352 60.4339 0.960394C60.1494 1.10352 59.6215 1.46909 59.3223 1.73017C59.1752 1.85855 59.0347 1.96361 59.0101 1.96361C58.9375 1.96361 58.9126 1.79526 58.912 1.29922C58.9115 0.933256 58.8964 0.816915 58.8426 0.763033C58.7833 0.703769 58.6026 0.694271 57.5326 0.694271C56.4626 0.694271 56.2819 0.703769 56.2226 0.763033C56.1606 0.825012 56.1539 1.52428 56.1539 7.80691C56.1539 14.0895 56.1606 14.7888 56.2226 14.8508C56.3238 14.9519 58.7389 14.9544 58.8398 14.8535C58.8975 14.7959 58.908 14.229 58.923 10.3343L58.9403 5.88102L59.0566 5.50898C59.4948 4.10729 60.4719 3.25377 61.956 2.97618C62.3146 2.90908 62.7144 2.91386 63.1352 2.99019C63.5997 3.07444 63.6902 3.10399 64.0916 3.30245C64.8957 3.7001 65.424 4.33936 65.7042 5.25384L65.8026 5.57463L65.8257 10.2049C65.846 14.2562 65.8572 14.8404 65.9146 14.8767C65.9519 14.9004 66.5213 14.9185 67.2355 14.9189C68.3189 14.9194 68.5002 14.9102 68.5596 14.8508C68.6212 14.7891 68.6282 14.3178 68.6274 10.3096C68.6263 5.18478 68.6165 4.99748 68.3002 4.04269C67.6621 2.11715 66.1796 0.840332 64.1595 0.476559C63.6322 0.381622 62.5388 0.35956 62.1504 0.436027ZM13.8563 0.93505C13.7979 0.993439 13.8 1.03226 13.8751 1.28521C14.0183 1.76778 14.1195 2.09452 14.3089 2.68581C14.4091 2.99877 14.5668 3.49118 14.6593 3.78007C14.7518 4.06895 14.949 4.68938 15.0974 5.15882C15.2459 5.62826 15.4034 6.12067 15.4474 6.25307C15.5438 6.54323 16.0963 8.27305 16.4121 9.27323C16.6811 10.1246 16.9775 11.0518 17.3289 12.1401C17.4688 12.5735 17.6945 13.2826 17.8304 13.7159C18.1518 14.7404 18.2445 15.0077 18.3201 15.1275L18.3823 15.226H19.9283C21.3459 15.226 21.48 15.2196 21.5418 15.1493C21.5789 15.1072 21.8202 14.4228 22.0782 13.6284C22.3362 12.8339 22.6221 11.9574 22.7136 11.6805C22.8052 11.4037 23.071 10.5863 23.3042 9.86412C23.5375 9.14192 23.8034 8.32446 23.8952 8.04763C23.987 7.7708 24.2422 6.98294 24.4624 6.29684C24.9419 4.80253 24.9264 4.84245 25.0229 4.86026C25.102 4.87488 25.1831 5.10004 25.7756 6.95339C25.9256 7.42283 26.104 7.97434 26.1719 8.17895C26.2398 8.38355 26.4758 9.11237 26.6964 9.79843C28.2383 14.5947 28.4014 15.0861 28.4754 15.1601C28.5314 15.2162 28.7656 15.226 30.051 15.226C30.9822 15.226 31.5925 15.209 31.6433 15.1818C31.7263 15.1373 31.7396 15.0989 32.6357 12.2933C32.8165 11.7276 33.0196 11.0973 33.0871 10.8927C33.1546 10.6881 33.2721 10.3237 33.348 10.0829C33.424 9.84225 33.6542 9.12331 33.8595 8.48533C34.0649 7.8474 34.347 6.9709 34.4865 6.53758C34.626 6.10426 34.8529 5.39518 34.9908 4.96185C35.1287 4.52853 35.2866 4.03612 35.3417 3.86761C35.6723 2.85717 36.194 1.22328 36.219 1.12046C36.2794 0.871015 36.2698 0.869352 34.7858 0.869352C33.9965 0.869352 33.3984 0.887035 33.3523 0.911722C33.2587 0.961839 33.2679 0.934482 32.655 2.97211C32.391 3.84979 32.103 4.80428 32.0151 5.09316C31.9272 5.38205 31.7596 5.93355 31.6426 6.31873C31.5257 6.70391 31.3577 7.25541 31.2694 7.54429C31.1811 7.83318 31.0425 8.29606 30.9613 8.5729C30.8803 8.84974 30.6505 9.60802 30.4507 10.258C30.1396 11.2705 30.0755 11.4399 30.0032 11.4399C29.9308 11.4399 29.8388 11.1944 29.3549 9.71093C29.0448 8.76004 28.5172 7.14489 28.1825 6.12176C27.2912 3.39756 26.7607 1.7708 26.6302 1.36198C26.5578 1.13491 26.4802 0.97672 26.4211 0.935226C26.3423 0.880075 26.111 0.869352 25.0017 0.869352C23.7668 0.869352 23.6709 0.87491 23.5948 0.950982C23.5488 0.997029 23.3167 1.6317 23.0626 2.40633C22.8149 3.1619 22.4208 4.36111 22.187 5.07128C21.9532 5.78145 21.4126 7.42611 20.9857 8.72609C20.0596 11.546 20.0893 11.4617 20.0211 11.4617C19.9345 11.4617 19.8897 11.3754 19.7828 11.0022C19.6737 10.6216 19.3505 9.54194 18.7017 7.39109C18.473 6.63278 18.2069 5.74643 18.1105 5.42144C17.9171 4.76922 17.8633 4.58946 17.2922 2.68581C17.0756 1.96361 16.8737 1.28767 16.8436 1.18367C16.7513 0.864363 16.7762 0.869352 15.266 0.869352C14.1295 0.869352 13.9119 0.879505 13.8563 0.93505Z" fill="black"/>
</g>
</g>
<defs>
<clipPath id="clip0_2_3756">
<rect width="68.355" height="15.19" fill="white" transform="translate(0.272461 0.389893)"/>
</clipPath>
</defs>
</svg>
