<svg width="70" height="10" viewBox="0 0 70 10" fill="none" xmlns="http://www.w3.org/2000/svg">
<g clip-path="url(#clip0_2_3762)">
<g clip-path="url(#clip1_2_3762)">
<mask id="mask0_2_3762" style="mask-type:luminance" maskUnits="userSpaceOnUse" x="1" y="0" width="69" height="10">
<path d="M69.0764 0.169312H1.20264V9.80004H69.0764V0.169312Z" fill="white"/>
</mask>
<g mask="url(#mask0_2_3762)">
<path d="M13.7207 8.54046V3.2245H15.3987V3.99469C15.5452 3.70744 15.7686 3.48483 16.0688 3.32682C16.369 3.16883 16.7281 3.08984 17.1463 3.08984C17.5108 3.08984 17.811 3.14729 18.0468 3.2622C18.2828 3.3771 18.474 3.52253 18.6205 3.69847C18.7885 3.90313 18.8992 4.14012 18.9529 4.40942C19.0065 4.67872 19.0333 5.00367 19.0333 5.38428V8.54046H17.3554V5.81516C17.3554 5.44171 17.2874 5.13474 17.1517 4.89418C17.0158 4.64999 16.7763 4.52791 16.4333 4.52791C16.083 4.52791 15.8221 4.64999 15.6507 4.89418C15.4826 5.13474 15.3987 5.45969 15.3987 5.86904V8.54046H13.7207Z" fill="black"/>
<path d="M20.1416 5.88005C20.1416 5.49944 20.2077 5.14037 20.3401 4.80287C20.4758 4.46534 20.6706 4.1691 20.9244 3.91417C21.1781 3.65924 21.4854 3.45635 21.8464 3.30554C22.2074 3.15473 22.6183 3.07935 23.0795 3.07935C23.5404 3.07935 23.9515 3.15473 24.3124 3.30554C24.6769 3.45635 24.9842 3.65924 25.2345 3.91417C25.4881 4.1691 25.6812 4.46534 25.8134 4.80287C25.9457 5.14037 26.0118 5.49944 26.0118 5.88005C26.0118 6.26066 25.9457 6.62156 25.8134 6.96266C25.6812 7.30016 25.4881 7.59642 25.2345 7.85134C24.9842 8.10627 24.6769 8.30914 24.3124 8.45996C23.9515 8.61078 23.5404 8.68619 23.0795 8.68619C22.6183 8.68619 22.2074 8.61078 21.8464 8.45996C21.4854 8.30914 21.1781 8.10627 20.9244 7.85134C20.6706 7.59642 20.4758 7.30016 20.3401 6.96266C20.2077 6.62512 20.1416 6.26427 20.1416 5.88005ZM21.8196 5.88005C21.8196 6.07038 21.8482 6.24812 21.9054 6.41326C21.9661 6.57485 22.0501 6.71846 22.1574 6.84414C22.2682 6.96622 22.4003 7.06316 22.554 7.13502C22.7077 7.20322 22.8793 7.23734 23.0686 7.23734C23.2581 7.23734 23.4314 7.20322 23.5887 7.13502C23.7496 7.06316 23.8836 6.96622 23.9907 6.84414C24.1015 6.71846 24.1873 6.57485 24.2481 6.41326C24.3124 6.25167 24.3445 6.07394 24.3445 5.88005C24.3445 5.69693 24.3124 5.5228 24.2481 5.35761C24.1873 5.19242 24.1015 5.04881 23.9907 4.92673C23.8836 4.80465 23.7513 4.7077 23.594 4.63589C23.4369 4.56409 23.2617 4.52818 23.0686 4.52818C22.8793 4.52818 22.7077 4.56409 22.554 4.63589C22.4003 4.7077 22.2682 4.80465 22.1574 4.92673C22.0501 5.04881 21.9661 5.19242 21.9054 5.35761C21.8482 5.5228 21.8196 5.69693 21.8196 5.88005Z" fill="black"/>
<path d="M26.855 5.8801C26.855 5.48156 26.9176 5.11172 27.0426 4.77057C27.1712 4.42948 27.3483 4.13683 27.5733 3.89267C27.8021 3.64492 28.0683 3.44923 28.372 3.30559C28.676 3.16197 29.0048 3.09015 29.3584 3.09015C29.7553 3.09015 30.0983 3.17453 30.3878 3.34329C30.6809 3.51206 30.9007 3.7257 31.0471 3.98424V0.817261H32.7251V8.54079H31.0471V7.79212C30.915 8.03633 30.7022 8.24458 30.4093 8.41694C30.1162 8.58929 29.7659 8.67542 29.3584 8.67542C29.0083 8.67542 28.6795 8.60361 28.372 8.46C28.0683 8.31639 27.8021 8.12068 27.5733 7.87292C27.3483 7.6252 27.1712 7.33072 27.0426 6.98962C26.9176 6.64852 26.855 6.27868 26.855 5.8801ZM28.5221 5.8801C28.5221 6.06321 28.5526 6.23917 28.6133 6.40792C28.6777 6.57311 28.7635 6.71672 28.8707 6.8388C28.9814 6.95732 29.1137 7.05426 29.2674 7.12967C29.421 7.20148 29.5926 7.23738 29.782 7.23738C29.9714 7.23738 30.143 7.20148 30.2966 7.12967C30.454 7.05426 30.5861 6.95732 30.6934 6.8388C30.8041 6.71672 30.8899 6.57311 30.9506 6.40792C31.0149 6.24277 31.0471 6.06682 31.0471 5.8801C31.0471 5.69698 31.0149 5.52462 30.9506 5.36304C30.8899 5.2015 30.8041 5.05784 30.6934 4.93216C30.5861 4.80647 30.4557 4.70775 30.302 4.63593C30.1484 4.56413 29.9751 4.52822 29.782 4.52822C29.5926 4.52822 29.421 4.56413 29.2674 4.63593C29.1137 4.70775 28.9814 4.80647 28.8707 4.93216C28.7635 5.05784 28.6777 5.2015 28.6133 5.36304C28.5526 5.52462 28.5221 5.69698 28.5221 5.8801Z" fill="black"/>
<path d="M33.9336 5.8803C33.9336 5.48172 33.9962 5.11188 34.1213 4.77078C34.2499 4.42966 34.4269 4.13701 34.6519 3.89285C34.8807 3.64509 35.1469 3.4494 35.4507 3.30577C35.7546 3.16215 36.0834 3.09033 36.4371 3.09033C36.8339 3.09033 37.1769 3.17471 37.4664 3.34347C37.7595 3.51224 37.9793 3.72588 38.1258 3.98442V3.22498H39.8037V8.54096H38.1258V7.79233C37.9936 8.03649 37.7809 8.24474 37.4879 8.4171C37.1949 8.58945 36.8445 8.67563 36.4371 8.67563C36.087 8.67563 35.7581 8.60382 35.4507 8.46016C35.1469 8.31655 34.8807 8.12084 34.6519 7.87308C34.4269 7.62536 34.2499 7.33093 34.1213 6.98983C33.9962 6.64868 33.9336 6.27884 33.9336 5.8803ZM35.6008 5.8803C35.6008 6.06342 35.6312 6.23938 35.692 6.40813C35.7563 6.57327 35.8421 6.71688 35.9494 6.83901C36.0601 6.95748 36.1924 7.05442 36.346 7.12983C36.4997 7.20164 36.6713 7.23754 36.8606 7.23754C37.05 7.23754 37.2216 7.20164 37.3752 7.12983C37.5326 7.05442 37.6648 6.95748 37.7721 6.83901C37.8827 6.71688 37.9685 6.57327 38.0293 6.40813C38.0936 6.24293 38.1258 6.06702 38.1258 5.8803C38.1258 5.69714 38.0936 5.52483 38.0293 5.36324C37.9685 5.20166 37.8827 5.058 37.7721 4.93236C37.6648 4.80668 37.5343 4.70793 37.3807 4.63611C37.227 4.56431 37.0537 4.5284 36.8606 4.5284C36.6713 4.5284 36.4997 4.56431 36.346 4.63611C36.1924 4.70793 36.0601 4.80668 35.9494 4.93236C35.8421 5.058 35.7563 5.20166 35.692 5.36324C35.6312 5.52483 35.6008 5.69714 35.6008 5.8803Z" fill="black"/>
<path d="M41.3403 8.54055V0.817017H43.0182V8.54055H41.3403Z" fill="black"/>
<path d="M43.8242 3.22473H45.5826L46.864 6.56405L48.1613 3.22473H49.9194L47.5233 8.54072H46.183L43.8242 3.22473Z" fill="black"/>
<path d="M50.6729 1.45827C50.6729 1.15666 50.7744 0.903522 50.978 0.698847C51.1854 0.49418 51.4429 0.391846 51.7504 0.391846C51.9039 0.391846 52.0448 0.418776 52.1736 0.472636C52.306 0.526496 52.4221 0.6019 52.5223 0.698847C52.6225 0.792208 52.6992 0.905319 52.7526 1.03817C52.8064 1.17101 52.8331 1.31106 52.8331 1.45827C52.8331 1.60549 52.8064 1.74373 52.7526 1.873C52.6992 2.00227 52.6225 2.11717 52.5223 2.2177C52.4221 2.31465 52.306 2.39185 52.1736 2.4493C52.0448 2.50317 51.9039 2.53009 51.7504 2.53009C51.5964 2.53009 51.4555 2.50317 51.3268 2.4493C51.1981 2.39185 51.0838 2.31465 50.9837 2.2177C50.8872 2.11717 50.8105 2.00227 50.7529 1.873C50.6995 1.74373 50.6729 1.60549 50.6729 1.45827ZM50.9139 8.54087V3.22488H52.5916V8.54087H50.9139Z" fill="black"/>
<path d="M53.9922 5.88005C53.9922 5.48868 54.0512 5.12422 54.1691 4.78668C54.2908 4.44918 54.4692 4.15474 54.7051 3.90339C54.9448 3.64846 55.2359 3.44739 55.579 3.30016C55.9259 3.15294 56.3224 3.07935 56.7694 3.07935C57.1944 3.07935 57.5769 3.14576 57.9162 3.27862C58.2561 3.41148 58.5439 3.59459 58.7794 3.82798C59.0191 4.05779 59.203 4.33249 59.3317 4.65205C59.4605 4.97162 59.5246 5.31633 59.5246 5.68617C59.5246 5.79027 59.5213 5.88005 59.5143 5.95546C59.5068 6.03087 59.4928 6.14219 59.4712 6.2894H55.6811C55.6811 6.45099 55.7007 6.60359 55.7401 6.7472C55.7831 6.89081 55.8472 7.01649 55.9329 7.12425C56.0223 7.23196 56.1403 7.31636 56.2868 7.3774C56.4333 7.43844 56.6121 7.46891 56.8228 7.46891C57.1233 7.46891 57.3484 7.41147 57.4982 7.2966C57.6485 7.17808 57.7519 7.03447 57.8095 6.86567H59.4605C59.4174 7.11704 59.3266 7.35221 59.1871 7.57128C59.0514 7.7903 58.8744 7.98241 58.6563 8.14755C58.4382 8.31274 58.1774 8.44381 57.8736 8.54075C57.5698 8.6377 57.2267 8.68619 56.8443 8.68619C56.3832 8.68619 55.9741 8.61434 55.6169 8.47073C55.2631 8.32711 54.9644 8.12785 54.7215 7.87287C54.4818 7.61795 54.2997 7.31991 54.1747 6.97881C54.053 6.63767 53.9922 6.27143 53.9922 5.88005ZM55.6811 5.31993H57.8788C57.8788 4.99676 57.7772 4.74182 57.5736 4.5551C57.3732 4.36479 57.1088 4.26964 56.7802 4.26964C56.4656 4.26964 56.2025 4.36121 55.9919 4.54434C55.7845 4.72387 55.6811 4.98239 55.6811 5.31993Z" fill="black"/>
<path d="M59.915 3.2251H61.6517L62.6277 6.39208L63.5601 3.2251H65.1095L66.0424 6.39208L67.0179 3.2251H68.755L66.7768 8.54111H65.4152L64.3376 5.15327L63.2549 8.54111H61.8932L59.915 3.2251Z" fill="black"/>
<path d="M5.75868 0.5295V2.71985C5.75967 2.74023 5.75513 2.7605 5.74548 2.7785C5.73589 2.7965 5.72152 2.81157 5.70396 2.8221C5.68641 2.83263 5.66633 2.83822 5.64587 2.8383C5.62538 2.83836 5.60527 2.8329 5.58766 2.82249L1.68508 0.202077C1.64872 0.180977 1.60732 0.17004 1.56525 0.17042C1.52317 0.170799 1.48198 0.182482 1.446 0.204234C1.41004 0.225988 1.38063 0.257006 1.36087 0.294019C1.34112 0.331033 1.33175 0.372671 1.33376 0.414543V4.25945C1.3329 4.34286 1.35358 4.42509 1.39381 4.49825C1.43404 4.57141 1.49248 4.63303 1.56351 4.6772L9.06784 9.65526C9.10435 9.67708 9.1461 9.68859 9.1887 9.68859C9.23125 9.68859 9.27305 9.67708 9.30951 9.65526C9.34602 9.63345 9.37589 9.60213 9.39592 9.56473C9.41596 9.52729 9.42541 9.48516 9.42326 9.44279V0.458679C9.42424 0.427066 9.41886 0.395579 9.40749 0.366057C9.39606 0.336533 9.37893 0.309567 9.35693 0.286731C9.33498 0.263894 9.30867 0.245645 9.27956 0.233049C9.25044 0.220453 9.21908 0.213763 9.18734 0.213368H6.06056C6.01988 0.214299 5.97976 0.223224 5.94255 0.239631C5.90534 0.256038 5.87178 0.279603 5.84374 0.308975C5.81565 0.338347 5.7937 0.372948 5.77914 0.410791C5.76453 0.448634 5.75756 0.488975 5.75868 0.5295Z" fill="black"/>
<path d="M1.33358 5.24992V9.48178C1.33289 9.50299 1.33644 9.5241 1.34402 9.54395C1.35159 9.56375 1.36305 9.58186 1.37771 9.59722C1.39238 9.61262 1.40996 9.62493 1.42945 9.63349C1.44893 9.64201 1.46992 9.64665 1.49121 9.64702H4.83642C4.85766 9.64651 4.87859 9.64178 4.89802 9.63321C4.91744 9.6246 4.93497 9.61229 4.9496 9.59693C4.96425 9.58158 4.97571 9.56351 4.98333 9.54376C4.99096 9.52401 4.99461 9.50294 4.99406 9.48178V7.46799C4.99391 7.43986 4.98678 7.41219 4.9733 7.38748C4.95981 7.36276 4.9404 7.34175 4.91679 7.32635L1.57672 5.10828C1.55202 5.09358 1.52381 5.08571 1.49502 5.08557C1.46624 5.08543 1.43796 5.09302 1.41312 5.10748C1.38827 5.12194 1.36778 5.14282 1.35379 5.16786C1.3398 5.19291 1.33282 5.22127 1.33358 5.24992Z" fill="black"/>
</g>
</g>
</g>
<defs>
<clipPath id="clip0_2_3762">
<rect width="68.38" height="9.83" fill="white" transform="translate(0.949707 0.0699463)"/>
</clipPath>
<clipPath id="clip1_2_3762">
<rect width="68.3419" height="9.83" fill="white" transform="translate(0.96875 0.0699463)"/>
</clipPath>
</defs>
</svg>
