<svg width="70" height="18" viewBox="0 0 70 18" fill="none" xmlns="http://www.w3.org/2000/svg">
<g clip-path="url(#clip0_2_3914)">
<g clip-path="url(#clip1_2_3914)">
<mask id="mask0_2_3914" style="mask-type:luminance" maskUnits="userSpaceOnUse" x="0" y="1" width="70" height="17">
<path d="M69.3147 1.07056H0.964355V17.6791H69.3147V1.07056Z" fill="white"/>
</mask>
<g mask="url(#mask0_2_3914)">
<path d="M47.3442 14.9028C48.1669 14.9028 48.7047 12.8758 49.095 11.2583C49.3798 10.0762 49.6751 8.76979 50.1338 7.81585C50.7824 6.45238 51.6156 5.74731 52.9129 5.74731C53.8568 5.74731 54.8956 6.10503 55.676 7.80031C56.119 8.75425 56.3774 9.96218 56.6358 11.1286C57.0419 12.9691 57.258 14.9858 58.1598 14.9858C59.0615 14.9858 59.2776 12.9847 59.6837 11.1286C59.9421 9.96218 60.1952 8.75425 60.6435 7.80031C61.4239 6.10503 62.4786 5.74731 63.4066 5.74731C64.7145 5.74731 65.5372 6.43683 66.1859 7.81585C66.6444 8.78533 66.9404 10.0762 67.2241 11.2583C67.6148 12.8862 68.1526 14.9028 68.9754 14.9028V17.1166C67.747 17.1166 66.7766 16.5204 66.1014 15.1258C65.632 14.1304 65.3207 12.9639 65.0358 11.7611C64.6037 9.95702 64.3189 7.85737 63.4066 7.85737C62.5049 7.85737 62.2887 9.67182 61.8827 11.5175C61.6243 12.6839 61.3712 14.1149 60.9229 15.0688C60.1425 16.764 59.1986 17.1218 58.1598 17.1218C57.1209 17.1218 56.177 16.764 55.3966 15.0688C54.9536 14.1149 54.6952 12.6839 54.4368 11.5175C54.0308 9.67704 53.8146 7.85737 52.9129 7.85737C52.0112 7.85737 51.7105 9.9725 51.2834 11.7611C50.9881 12.9691 50.6928 14.1459 50.2182 15.1258C49.5433 16.5307 48.573 17.1166 47.3442 17.1166" fill="black"/>
<path d="M34.1075 11.1596C34.0021 7.883 31.5447 5.65894 28.5653 5.65894C25.4383 5.65894 22.8228 7.96599 22.8228 11.4239C22.8228 14.8819 25.4541 17.1526 28.4704 17.1526C30.643 17.1526 32.4201 16.2661 33.4432 14.4775C33.6171 14.1716 33.807 13.6947 33.8755 13.4562H31.6502C30.8698 14.8456 29.6675 15.1774 28.481 15.1774C26.8516 15.1774 25.3539 13.9695 25.1378 11.9579H34.1023V11.1647L34.1075 11.1596ZM25.2379 10.1382C25.6703 8.51035 27.168 7.67047 28.5548 7.67047C29.9417 7.67047 31.2495 8.47926 31.6555 10.1382H25.2379Z" fill="black"/>
<path d="M46.8473 11.1596C46.7418 7.883 44.2845 5.65894 41.3051 5.65894C38.1781 5.65894 35.5625 7.96599 35.5625 11.4239C35.5625 14.8819 38.1939 17.1526 41.2102 17.1526C43.3827 17.1526 45.1599 16.2661 46.1829 14.4775C46.3569 14.1716 46.5467 13.6947 46.6153 13.4562H44.39C43.6095 14.8456 42.4072 15.1774 41.2207 15.1774C39.5913 15.1774 38.0937 13.9695 37.8775 11.9579H46.8421V11.1647L46.8473 11.1596ZM37.9777 10.1382C38.4101 8.51035 39.9077 7.67047 41.2946 7.67047C42.6814 7.67047 43.9893 8.47926 44.3952 10.1382H37.9777Z" fill="black"/>
<path d="M10.4509 1.07056V7.21918C9.428 6.1875 8.09381 5.66908 6.44856 5.66908C4.96677 5.66908 3.68536 6.21342 2.5938 7.28656C1.50223 8.37533 0.964355 9.75433 0.964355 11.4082C0.964355 13.0619 1.50223 14.4462 2.5938 15.5297C3.67482 16.6184 4.96677 17.1472 6.44856 17.1472C8.07795 17.1472 9.41214 16.6288 10.4509 15.6074V17.1472H12.7817V1.07056H10.4509ZM9.34359 14.0885C8.61592 14.778 7.76689 15.1201 6.80714 15.1201C5.78412 15.1357 4.93513 14.7883 4.24433 14.1144C3.55353 13.4404 3.22132 12.5383 3.22132 11.4082C3.22132 10.2779 3.55881 9.40697 4.24433 8.71747C4.92985 8.02797 5.77885 7.68583 6.80714 7.68583C7.7774 7.68583 8.61592 8.02797 9.34359 8.71747C10.0713 9.40697 10.4351 10.3091 10.4351 11.3925C10.4351 12.4761 10.0713 13.3938 9.34359 14.0833V14.0885Z" fill="black"/>
<path d="M21.753 6.10973C19.823 6.10973 18.4889 6.78369 17.7348 7.96576V6.2186H15.4146V17.1472H17.7348V12.9168C17.7348 9.9721 19.0004 8.37012 21.7266 8.37012H22.0746V6.11492C21.9798 6.09937 21.8743 6.09937 21.753 6.09937V6.10973Z" fill="black"/>
</g>
</g>
</g>
<defs>
<clipPath id="clip0_2_3914">
<rect width="68.38" height="17.41" fill="white" transform="translate(0.949707 0.47998)"/>
</clipPath>
<clipPath id="clip1_2_3914">
<rect width="68.3504" height="17.41" fill="white" transform="translate(0.964355 0.47998)"/>
</clipPath>
</defs>
</svg>
