<svg width="33" height="33" viewBox="0 0 33 33" fill="none" xmlns="http://www.w3.org/2000/svg">
<g clip-path="url(#clip0_2_5046)">
<path fill-rule="evenodd" clip-rule="evenodd" d="M24.2018 21.1975C28.0308 16.094 27.6241 8.81985 22.9817 4.17744C17.8935 -0.91071 9.64401 -0.91071 4.55586 4.17744C-0.532292 9.26559 -0.532292 17.5151 4.55586 22.6033C9.19827 27.2457 16.4725 27.6523 21.5759 23.8234C21.6045 23.8561 21.6343 23.8882 21.6656 23.9194L29.5623 31.8162C30.2892 32.5431 31.4677 32.5431 32.1946 31.8162C32.9215 31.0893 32.9215 29.9108 32.1946 29.1839L24.2978 21.2872C24.2666 21.2559 24.2345 21.2261 24.2018 21.1975ZM20.3494 6.8097C23.9838 10.4441 23.9838 16.3366 20.3494 19.971C16.715 23.6054 10.8225 23.6054 7.18811 19.971C3.55372 16.3366 3.55372 10.4441 7.18811 6.8097C10.8225 3.1753 16.715 3.1753 20.3494 6.8097Z" fill="black"/>
</g>
<defs>
<clipPath id="clip0_2_5046">
<rect width="32" height="32" fill="white" transform="translate(0.739746 0.361328)"/>
</clipPath>
</defs>
</svg>
