<svg width="39" height="39" viewBox="0 0 39 39" fill="none" xmlns="http://www.w3.org/2000/svg">
<g opacity="0.3" clip-path="url(#clip0_2_1519)">
<path d="M18.047 3.41063C15.4758 10.1392 16.3034 16.3187 19.7947 20.664C23.265 24.9833 29.0681 27.1152 35.6915 26.4043C35.7539 26.3976 35.82 26.4081 35.8931 26.4453C35.9715 26.4851 36.0393 26.547 36.0822 26.6101C30.7638 32.704 25.3008 34.8719 20.6527 34.7975C15.949 34.7222 11.765 32.3506 9.02881 28.7839C6.2924 25.2169 5.07343 20.5447 6.20076 15.954C7.31411 11.4203 10.7912 6.67924 17.9931 3.0875C18.0223 3.12827 18.0469 3.18039 18.059 3.23596C18.0725 3.29836 18.0685 3.35437 18.047 3.41063ZM17.9353 3.02734L17.9366 3.02807L17.9353 3.02734Z" stroke="#222222" stroke-width="4" stroke-linejoin="round"/>
</g>
<defs>
<clipPath id="clip0_2_1519">
<rect width="38" height="38" fill="white" transform="translate(0.330078 0.280273)"/>
</clipPath>
</defs>
</svg>
