<svg width="50" height="51" viewBox="0 0 50 51" fill="none" xmlns="http://www.w3.org/2000/svg">
<g clip-path="url(#clip0_107_251)">
<g clip-path="url(#clip1_107_251)">
<path d="M4.56641 16.4542L40.6767 16.4541L26.9351 32.5832V42.0681L18.0444 46.8153V32.5832L4.56641 16.4542Z" fill="#FC6D26" stroke="black" stroke-width="4"/>
<path d="M36.9268 8.21899C36.9268 5.1941 34.4746 2.74194 31.4497 2.74194C28.4248 2.74194 25.9727 5.1941 25.9727 8.21899V21.8726C25.9727 24.8975 28.4248 27.3496 31.4497 27.3496C34.4746 27.3496 36.9268 24.8975 36.9268 21.8726V8.21899Z" fill="white" stroke="black" stroke-width="4"/>
<path d="M47.8838 8.21899C47.8838 5.1941 45.4316 2.74194 42.4067 2.74194C39.3818 2.74194 36.9297 5.1941 36.9297 8.21899V21.8726C36.9297 24.8975 39.3818 27.3496 42.4067 27.3496C45.4316 27.3496 47.8838 24.8975 47.8838 21.8726V8.21899Z" fill="white" stroke="black" stroke-width="4"/>
<path d="M28.9189 21.9182C30.8158 21.9182 32.3535 20.3805 32.3535 18.4836C32.3535 16.5868 30.8158 15.0491 28.9189 15.0491C27.0221 15.0491 25.4844 16.5868 25.4844 18.4836C25.4844 20.3805 27.0221 21.9182 28.9189 21.9182Z" fill="black"/>
<path d="M40.3643 21.9182C42.2611 21.9182 43.7988 20.3805 43.7988 18.4836C43.7988 16.5868 42.2611 15.0491 40.3643 15.0491C38.4674 15.0491 36.9297 16.5868 36.9297 18.4836C36.9297 20.3805 38.4674 21.9182 40.3643 21.9182Z" fill="black"/>
</g>
</g>
<defs>
<clipPath id="clip0_107_251">
<rect width="50" height="50" fill="white" transform="translate(0 0.582275)"/>
</clipPath>
<clipPath id="clip1_107_251">
<rect width="50" height="50" fill="white" transform="translate(0 0.582275)"/>
</clipPath>
</defs>
</svg>
