<svg width="28" height="28" viewBox="0 0 28 28" fill="none" xmlns="http://www.w3.org/2000/svg">
<g clip-path="url(#clip0_2_4897)">
<g clip-path="url(#clip1_2_4897)">
<g clip-path="url(#clip2_2_4897)">
<path d="M22.108 0.361328H5.902C2.91856 0.361328 0.5 2.77989 0.5 5.76333V21.9693C0.5 24.9528 2.91856 27.3713 5.902 27.3713H22.108C25.0914 27.3713 27.51 24.9528 27.51 21.9693V5.76333C27.51 2.77989 25.0914 0.361328 22.108 0.361328Z" fill="#5AA676" fill-opacity="0.2"/>
<path d="M19.8594 10.0376C20.0017 10.18 20.0816 10.3731 20.0816 10.5744C20.0816 10.7757 20.0017 10.9688 19.8594 11.1112L12.5161 18.4546C12.3737 18.5969 12.1806 18.6767 11.9793 18.6767C11.778 18.6767 11.5849 18.5969 11.4425 18.4546L8.15061 15.1627C8.01651 15.0186 7.94351 14.8281 7.94689 14.6313C7.95027 14.4345 8.02988 14.2467 8.16884 14.1073C8.30822 13.9683 8.49607 13.8887 8.69291 13.8854C8.88974 13.8819 9.08016 13.955 9.22426 14.0891L11.9793 16.8441L18.7858 10.0376C18.9283 9.89531 19.1213 9.81543 19.3226 9.81543C19.5239 9.81543 19.717 9.89531 19.8594 10.0376Z" fill="#08773A"/>
</g>
</g>
<g clip-path="url(#clip3_2_4897)">
<g clip-path="url(#clip4_2_4897)">
<path d="M22.108 0.361328H5.902C2.91856 0.361328 0.5 2.77989 0.5 5.76333V21.9693C0.5 24.9528 2.91856 27.3713 5.902 27.3713H22.108C25.0914 27.3713 27.51 24.9528 27.51 21.9693V5.76333C27.51 2.77989 25.0914 0.361328 22.108 0.361328Z" fill="#E2E6FD"/>
<path d="M14.0051 5.98828C13.7961 5.98828 13.5958 6.07128 13.448 6.21902C13.3003 6.36676 13.2173 6.56714 13.2173 6.77608V8.35169C13.2173 8.56061 13.3003 8.76096 13.448 8.9087C13.5958 9.05645 13.7961 9.13944 14.0051 9.13944C14.214 9.13944 14.4144 9.05645 14.5621 8.9087C14.7099 8.76096 14.7928 8.56061 14.7928 8.35169V6.77608C14.7928 6.56714 14.7099 6.36676 14.5621 6.21902C14.4144 6.07128 14.214 5.98828 14.0051 5.98828Z" fill="#081777"/>
<path d="M21.0953 13.0781H19.5197C19.3108 13.0781 19.1104 13.1611 18.9627 13.3089C18.8149 13.4566 18.7319 13.657 18.7319 13.8659C18.7319 14.0748 18.8149 14.2752 18.9627 14.423C19.1104 14.5707 19.3108 14.6537 19.5197 14.6537H21.0953C21.3042 14.6537 21.5046 14.5707 21.6524 14.423C21.8001 14.2752 21.8831 14.0748 21.8831 13.8659C21.8831 13.657 21.8001 13.4566 21.6524 13.3089C21.5046 13.1611 21.3042 13.0781 21.0953 13.0781Z" fill="#081777"/>
<path d="M9.27814 13.8659C9.27814 13.657 9.19509 13.4566 9.04741 13.3089C8.89966 13.1611 8.69925 13.0781 8.49033 13.0781H6.91474C6.7058 13.0781 6.50543 13.1611 6.35769 13.3089C6.20995 13.4566 6.12695 13.657 6.12695 13.8659C6.12695 14.0748 6.20995 14.2752 6.35769 14.423C6.50543 14.5707 6.7058 14.6537 6.91474 14.6537H8.49033C8.69925 14.6537 8.89966 14.5707 9.04741 14.423C9.19509 14.2752 9.27814 14.0748 9.27814 13.8659Z" fill="#081777"/>
<path d="M9.4517 8.35436C9.29687 8.21641 9.09443 8.14422 8.88719 8.15307C8.68002 8.16192 8.48447 8.25112 8.34199 8.40183C8.19952 8.55248 8.12139 8.75276 8.12409 8.96006C8.12686 9.16743 8.21025 9.36555 8.35665 9.51242L9.49107 10.6075C9.56724 10.6809 9.65738 10.7384 9.75617 10.7763C9.85496 10.8142 9.96043 10.8318 10.0662 10.828C10.1723 10.8276 10.2773 10.8058 10.3747 10.7638C10.4721 10.7219 10.5601 10.6606 10.6334 10.5838C10.7801 10.4362 10.8624 10.2366 10.8624 10.0284C10.8624 9.82026 10.7801 9.62066 10.6334 9.47305L9.4517 8.35436Z" fill="#081777"/>
<path d="M17.9439 10.8278C18.1467 10.827 18.3414 10.748 18.4875 10.6072L19.6219 9.51214C19.7602 9.36757 19.8384 9.17573 19.8405 8.97559C19.8425 8.77545 19.7683 8.58205 19.6329 8.43458C19.4976 8.28717 19.3111 8.19682 19.1116 8.1819C18.912 8.16691 18.7142 8.22849 18.5584 8.35409L17.4239 9.47278C17.2772 9.62039 17.1948 9.82006 17.1948 10.0282C17.1948 10.2363 17.2772 10.436 17.4239 10.5836C17.5603 10.7275 17.746 10.8147 17.9439 10.8278Z" fill="#081777"/>
<path d="M14.0051 18.5928C13.7961 18.5928 13.5958 18.6758 13.448 18.8235C13.3003 18.9713 13.2173 19.1716 13.2173 19.3806V20.9561C13.2173 21.1651 13.3003 21.3655 13.448 21.5132C13.5958 21.661 13.7961 21.744 14.0051 21.744C14.214 21.744 14.4144 21.661 14.5621 21.5132C14.7099 21.3655 14.7928 21.1651 14.7928 20.9561V19.3806C14.7928 19.1716 14.7099 18.9713 14.5621 18.8235C14.4144 18.6758 14.214 18.5928 14.0051 18.5928Z" fill="#081777"/>
<path d="M18.519 17.1274C18.3686 16.9822 18.1666 16.9027 17.9575 16.9064C17.7485 16.9101 17.5495 16.9967 17.4042 17.1471C17.2591 17.2975 17.1796 17.4995 17.1832 17.7086C17.1869 17.9176 17.2735 18.1166 17.424 18.2618L18.5584 19.3805C18.7081 19.5251 18.9089 19.6047 19.117 19.6017C19.3251 19.5988 19.5236 19.5136 19.6692 19.3648C19.7428 19.2914 19.8012 19.2042 19.8411 19.1082C19.881 19.0123 19.9015 18.9094 19.9015 18.8054C19.9015 18.7015 19.881 18.5985 19.8411 18.5026C19.8012 18.4066 19.7428 18.3194 19.6692 18.2461L18.519 17.1274Z" fill="#081777"/>
<path d="M9.49098 17.1282L8.35656 18.2232C8.28276 18.2964 8.22415 18.3835 8.18417 18.4795C8.14413 18.5756 8.12354 18.6785 8.12354 18.7825C8.12354 18.8865 8.14413 18.9895 8.18417 19.0855C8.22415 19.1815 8.28276 19.2686 8.35656 19.3418C8.4305 19.4172 8.51876 19.477 8.6162 19.5176C8.71364 19.5582 8.81823 19.5788 8.92377 19.5782C9.11798 19.5799 9.30597 19.5097 9.45162 19.3812L10.586 18.2862C10.6605 18.2143 10.7201 18.1284 10.7614 18.0335C10.8027 17.9385 10.8249 17.8364 10.8268 17.7329C10.8286 17.6294 10.81 17.5266 10.7721 17.4302C10.7342 17.3339 10.6777 17.2459 10.6058 17.1715C10.5338 17.097 10.4479 17.0374 10.353 16.9961C10.2581 16.9548 10.156 16.9326 10.0525 16.9308C9.94894 16.9289 9.8461 16.9475 9.74974 16.9854C9.65345 17.0234 9.56546 17.0799 9.49098 17.1518V17.1282Z" fill="#081777"/>
</g>
</g>
</g>
<defs>
<clipPath id="clip0_2_4897">
<rect width="27.01" height="27.01" fill="white" transform="translate(0.5 0.361328)"/>
</clipPath>
<clipPath id="clip1_2_4897">
<rect width="27.01" height="27.01" fill="white" transform="translate(0.5 0.361328)"/>
</clipPath>
<clipPath id="clip2_2_4897">
<rect width="27.01" height="27.01" fill="white" transform="translate(0.5 0.361328)"/>
</clipPath>
<clipPath id="clip3_2_4897">
<rect width="27.01" height="27.01" fill="white" transform="translate(0.5 0.361328)"/>
</clipPath>
<clipPath id="clip4_2_4897">
<rect width="27.01" height="27.01" fill="white" transform="translate(0.5 0.361328)"/>
</clipPath>
</defs>
</svg>
