<svg width="64" height="79" viewBox="0 0 64 79" fill="none" xmlns="http://www.w3.org/2000/svg">
<g clip-path="url(#clip0_2_4989)">
<g clip-path="url(#clip1_2_4989)">
<path d="M63.2646 78.0491H0.735302C0.524715 78.0491 0.354004 77.8783 0.354004 77.668V1.07368C0.354004 0.863095 0.524715 0.692383 0.735302 0.692383H51.3891C51.4896 0.692383 51.5861 0.732086 51.6575 0.802857L63.533 12.5723C63.6053 12.6439 63.6459 12.7414 63.6459 12.8432V77.668C63.6459 77.8783 63.4752 78.0491 63.2646 78.0491Z" fill="white" stroke="#171618" stroke-width="0.703243"/>
<path d="M63.2646 78.0491H0.735302C0.524717 78.0491 0.354004 77.8783 0.354004 77.668V1.07368C0.354004 0.863095 0.524715 0.692383 0.735302 0.692383H50.9578C51.1684 0.692383 51.3391 0.863096 51.3391 1.07368V11.8047C51.3391 12.4037 51.8247 12.8893 52.4237 12.8893H63.2646C63.4752 12.8893 63.6459 13.06 63.6459 13.2706V77.668C63.6459 77.8783 63.4752 78.0491 63.2646 78.0491Z" fill="white" stroke="#171618" stroke-width="0.703243"/>
<path d="M51.3394 20.7354H11.9578C11.181 20.7354 10.5513 21.3651 10.5513 22.1418V47.4586C10.5513 48.2354 11.181 48.8651 11.9578 48.8651H51.3394C52.1162 48.8651 52.7459 48.2354 52.7459 47.4586V22.1418C52.7459 21.3651 52.1162 20.7354 51.3394 20.7354Z" stroke="#171618" stroke-width="0.703243"/>
<path d="M18.99 33.393C21.3203 33.393 23.2094 31.5039 23.2094 29.1736C23.2094 26.8432 21.3203 24.9541 18.99 24.9541C16.6596 24.9541 14.7705 26.8432 14.7705 29.1736C14.7705 31.5039 16.6596 33.393 18.99 33.393Z" fill="#171618"/>
<path d="M19.6661 39.5057L10.9028 45.3479V47.4577L11.6061 48.5125H51.3393L52.0426 48.1609L52.3942 47.4577V39.0187L44.1775 32.0662C43.6457 31.6162 42.8645 31.6233 42.341 32.083L29.5969 43.2729C29.1422 43.6722 28.483 43.7358 27.9603 43.4309L21.155 39.4612C20.6909 39.1904 20.1131 39.2077 19.6661 39.5057Z" fill="#171618"/>
<path d="M14.1878 65.7421V61.9063H14.7771V65.7421H14.1878ZM14.4874 61.2669C14.3726 61.2669 14.2735 61.2278 14.1902 61.1496C14.1087 61.0713 14.0679 60.9772 14.0679 60.8674C14.0679 60.7574 14.1087 60.6634 14.1902 60.5851C14.2735 60.5069 14.3726 60.4678 14.4874 60.4678C14.6023 60.4678 14.7005 60.5069 14.7821 60.5851C14.8653 60.6634 14.907 60.7574 14.907 60.8674C14.907 60.9772 14.8653 61.0713 14.7821 61.1496C14.7005 61.2278 14.6023 61.2669 14.4874 61.2669Z" fill="#171618"/>
<path d="M15.8564 65.7423V61.9064H16.4259V62.5057H16.4758C16.5557 62.301 16.6847 62.142 16.8629 62.0288C17.041 61.9139 17.255 61.8564 17.5047 61.8564C17.7577 61.8564 17.9684 61.9139 18.1365 62.0288C18.3063 62.142 18.4387 62.301 18.5336 62.5057H18.5736C18.6717 62.3076 18.8191 62.1503 19.0156 62.0338C19.212 61.9156 19.4476 61.8564 19.7223 61.8564C20.0653 61.8564 20.3458 61.9638 20.5639 62.1786C20.782 62.3918 20.891 62.7239 20.891 63.175V65.7423H20.3016V63.175C20.3016 62.892 20.2243 62.6897 20.0694 62.5682C19.9146 62.4467 19.7323 62.3859 19.5225 62.3859C19.2528 62.3859 19.0439 62.4675 18.8957 62.6306C18.7475 62.7921 18.6734 62.9969 18.6734 63.245V65.7423H18.0741V63.1151C18.0741 62.897 18.0033 62.7214 17.8618 62.5882C17.7203 62.4534 17.538 62.3859 17.3149 62.3859C17.1617 62.3859 17.0186 62.4267 16.8854 62.5083C16.7539 62.5899 16.6472 62.7031 16.5657 62.8479C16.4858 62.9911 16.4458 63.1567 16.4458 63.3449V65.7423H15.8564Z" fill="#171618"/>
<path d="M23.5172 67.2607C23.2325 67.2607 22.9878 67.224 22.783 67.1507C22.5782 67.0791 22.4076 66.9843 22.2711 66.8661C22.1362 66.7495 22.0289 66.6246 21.9489 66.4914L22.4184 66.1618C22.4717 66.2317 22.5391 66.3117 22.6207 66.4016C22.7023 66.4931 22.8138 66.5723 22.9553 66.6389C23.0985 66.7071 23.2858 66.7412 23.5172 66.7412C23.8269 66.7412 24.0825 66.6663 24.2839 66.5165C24.4854 66.3666 24.5861 66.1319 24.5861 65.8122V65.0331H24.5361C24.4928 65.103 24.4312 65.1895 24.3513 65.2928C24.2731 65.3943 24.1599 65.485 24.0117 65.565C23.8652 65.6432 23.6671 65.6824 23.4174 65.6824C23.1076 65.6824 22.8297 65.6091 22.5832 65.4626C22.3385 65.316 22.1446 65.103 22.0014 64.8233C21.8599 64.5436 21.7891 64.2039 21.7891 63.8044C21.7891 63.4115 21.8582 63.0693 21.9964 62.778C22.1346 62.4849 22.3268 62.2586 22.5732 62.0987C22.8197 61.9372 23.1043 61.8564 23.4273 61.8564C23.6771 61.8564 23.8752 61.8981 24.0217 61.9813C24.1699 62.0629 24.283 62.1562 24.3613 62.261C24.4412 62.3643 24.5028 62.4491 24.5461 62.5157H24.606V61.9064H25.1755V65.8521C25.1755 66.1818 25.1005 66.4499 24.9507 66.6563C24.8025 66.8644 24.6027 67.0168 24.3513 67.1133C24.1016 67.2116 23.8235 67.2607 23.5172 67.2607ZM23.4972 65.1529C23.7337 65.1529 23.9335 65.0988 24.0966 64.9906C24.2598 64.8824 24.3838 64.7267 24.4687 64.5236C24.5536 64.3205 24.5961 64.0774 24.5961 63.7944C24.5961 63.518 24.5544 63.2741 24.4712 63.0626C24.388 62.8512 24.2648 62.6856 24.1016 62.5657C23.9385 62.4458 23.737 62.3859 23.4972 62.3859C23.2475 62.3859 23.0394 62.4491 22.8729 62.5757C22.7081 62.7022 22.5841 62.8721 22.5008 63.0852C22.4192 63.2982 22.3784 63.5347 22.3784 63.7944C22.3784 64.0608 22.4201 64.2963 22.5033 64.5011C22.5882 64.7042 22.7131 64.8641 22.8779 64.9806C23.0444 65.0955 23.2508 65.1529 23.4972 65.1529Z" fill="#171618"/>
<path d="M27.9124 65.812C27.5361 65.812 27.2157 65.7096 26.9509 65.5048C26.6862 65.2984 26.4839 64.9995 26.3441 64.6083C26.2043 64.2154 26.1343 63.7409 26.1343 63.1848C26.1343 62.6321 26.2043 62.1601 26.3441 61.7688C26.4855 61.3759 26.6887 61.0763 26.9534 60.8698C27.2198 60.6617 27.5394 60.5576 27.9124 60.5576C28.2853 60.5576 28.6041 60.6617 28.8688 60.8698C29.1352 61.0763 29.3383 61.3759 29.4782 61.7688C29.6197 62.1601 29.6904 62.6321 29.6904 63.1848C29.6904 63.7409 29.6205 64.2154 29.4807 64.6083C29.3409 64.9995 29.1385 65.2984 28.8738 65.5048C28.6091 65.7096 28.2887 65.812 27.9124 65.812ZM27.9124 65.2626C28.2853 65.2626 28.575 65.0828 28.7814 64.7231C28.9879 64.3636 29.0911 63.8508 29.0911 63.1848C29.0911 62.742 29.0437 62.3649 28.9487 62.0536C28.8555 61.7422 28.7207 61.505 28.5442 61.3418C28.3694 61.1786 28.1588 61.0971 27.9124 61.0971C27.5428 61.0971 27.2539 61.2794 27.0458 61.644C26.8377 62.0069 26.7337 62.5205 26.7337 63.1848C26.7337 63.6277 26.7803 64.0039 26.8735 64.3136C26.9667 64.6233 27.1007 64.8589 27.2756 65.0203C27.452 65.1819 27.6643 65.2626 27.9124 65.2626Z" fill="#171618"/>
<path d="M32.3079 65.812C31.9316 65.812 31.6112 65.7096 31.3464 65.5048C31.0817 65.2984 30.8794 64.9995 30.7396 64.6083C30.5998 64.2154 30.5298 63.7409 30.5298 63.1848C30.5298 62.6321 30.5998 62.1601 30.7396 61.7688C30.8811 61.3759 31.0842 61.0763 31.3489 60.8698C31.6153 60.6617 31.9349 60.5576 32.3079 60.5576C32.6808 60.5576 32.9996 60.6617 33.2643 60.8698C33.5307 61.0763 33.7338 61.3759 33.8737 61.7688C34.0152 62.1601 34.0859 62.6321 34.0859 63.1848C34.0859 63.7409 34.016 64.2154 33.8762 64.6083C33.7364 64.9995 33.534 65.2984 33.2693 65.5048C33.0046 65.7096 32.6842 65.812 32.3079 65.812ZM32.3079 65.2626C32.6808 65.2626 32.9705 65.0828 33.1769 64.7231C33.3834 64.3636 33.4866 63.8508 33.4866 63.1848C33.4866 62.742 33.4392 62.3649 33.3442 62.0536C33.2511 61.7422 33.1162 61.505 32.9397 61.3418C32.7649 61.1786 32.5543 61.0971 32.3079 61.0971C31.9383 61.0971 31.6494 61.2794 31.4413 61.644C31.2332 62.0069 31.1292 62.5205 31.1292 63.1848C31.1292 63.6277 31.1758 64.0039 31.269 64.3136C31.3622 64.6233 31.4963 64.8589 31.6711 65.0203C31.8475 65.1819 32.0598 65.2626 32.3079 65.2626Z" fill="#171618"/>
<path d="M36.833 60.6279V65.7424H36.2137V61.2772H36.1837L34.9351 62.1063V61.477L36.2137 60.6279H36.833Z" fill="#171618"/>
<path d="M38.4412 65.7828C38.318 65.7828 38.2123 65.7387 38.124 65.6505C38.0359 65.5622 37.9917 65.4565 37.9917 65.3333C37.9917 65.2101 38.0359 65.1044 38.124 65.0161C38.2123 64.9279 38.318 64.8838 38.4412 64.8838C38.5644 64.8838 38.6701 64.9279 38.7584 65.0161C38.8466 65.1044 38.8907 65.2101 38.8907 65.3333C38.8907 65.4149 38.8699 65.4898 38.8283 65.5581C38.7883 65.6263 38.7343 65.6813 38.666 65.7229C38.5994 65.7628 38.5245 65.7828 38.4412 65.7828Z" fill="#171618"/>
<path d="M39.9482 61.9063H40.5376V66.0218C40.5376 66.2582 40.4968 66.463 40.4152 66.6361C40.3353 66.8093 40.2137 66.9433 40.0506 67.0382C39.8891 67.1331 39.6852 67.1806 39.4388 67.1806C39.4188 67.1806 39.3988 67.1806 39.3788 67.1806C39.3589 67.1806 39.3389 67.1806 39.3188 67.1806V66.6311C39.3389 66.6311 39.3572 66.6311 39.3738 66.6311C39.3904 66.6311 39.4088 66.6311 39.4288 66.6311C39.6086 66.6311 39.7401 66.5778 39.8234 66.4713C39.9065 66.3664 39.9482 66.2166 39.9482 66.0218V61.9063ZM40.2379 61.2669C40.123 61.2669 40.0239 61.2278 39.9407 61.1496C39.8591 61.0713 39.8184 60.9772 39.8184 60.8674C39.8184 60.7574 39.8591 60.6634 39.9407 60.5851C40.0239 60.5069 40.123 60.4678 40.2379 60.4678C40.3528 60.4678 40.451 60.5069 40.5326 60.5851C40.6158 60.6634 40.6575 60.7574 40.6575 60.8674C40.6575 60.9772 40.6158 61.0713 40.5326 61.1496C40.451 61.2278 40.3528 61.2669 40.2379 61.2669Z" fill="#171618"/>
<path d="M41.6172 67.1808V61.9064H42.1865V62.5157H42.2565C42.2998 62.4491 42.3597 62.3643 42.4363 62.261C42.5145 62.1562 42.6261 62.0629 42.7709 61.9813C42.9174 61.8981 43.1156 61.8564 43.3653 61.8564C43.6883 61.8564 43.973 61.9372 44.2194 62.0987C44.4657 62.2602 44.6581 62.4892 44.7963 62.7855C44.9345 63.0818 45.0035 63.4314 45.0035 63.8343C45.0035 64.2406 44.9345 64.5927 44.7963 64.8907C44.6581 65.1871 44.4666 65.4168 44.2219 65.58C43.9771 65.7414 43.6949 65.8222 43.3753 65.8222C43.1289 65.8222 42.9316 65.7814 42.7834 65.6998C42.6353 65.6166 42.5212 65.5225 42.4413 65.4177C42.3614 65.3111 42.2998 65.2229 42.2565 65.1529H42.2065V67.1808H41.6172ZM42.1965 63.8243C42.1965 64.1141 42.239 64.3696 42.3239 64.591C42.4088 64.8108 42.5329 64.9831 42.696 65.108C42.8592 65.2312 43.059 65.2928 43.2953 65.2928C43.5418 65.2928 43.7474 65.2279 43.9122 65.098C44.0787 64.9665 44.2036 64.79 44.2868 64.5686C44.3717 64.3454 44.4141 64.0974 44.4141 63.8243C44.4141 63.5546 44.3726 63.3116 44.2893 63.0951C44.2077 62.8771 44.0837 62.7047 43.9172 62.5782C43.7524 62.45 43.5451 62.3859 43.2953 62.3859C43.0556 62.3859 42.8542 62.4467 42.691 62.5682C42.5279 62.6881 42.4047 62.8562 42.3214 63.0726C42.2382 63.2874 42.1965 63.538 42.1965 63.8243Z" fill="#171618"/>
<path d="M47.4508 67.2607C47.1661 67.2607 46.9214 67.224 46.7166 67.1507C46.5118 67.0791 46.3412 66.9843 46.2047 66.8661C46.0698 66.7495 45.9625 66.6246 45.8825 66.4914L46.352 66.1618C46.4053 66.2317 46.4727 66.3117 46.5543 66.4016C46.6359 66.4931 46.7474 66.5723 46.8889 66.6389C47.0321 66.7071 47.2194 66.7412 47.4508 66.7412C47.7605 66.7412 48.0161 66.6663 48.2175 66.5165C48.419 66.3666 48.5197 66.1319 48.5197 65.8122V65.0331H48.4697C48.4264 65.103 48.3648 65.1895 48.2849 65.2928C48.2067 65.3943 48.0935 65.485 47.9453 65.565C47.7988 65.6432 47.6007 65.6824 47.3509 65.6824C47.0412 65.6824 46.7632 65.6091 46.5168 65.4626C46.2721 65.316 46.0781 65.103 45.935 64.8233C45.7935 64.5436 45.7227 64.2039 45.7227 63.8044C45.7227 63.4115 45.7918 63.0693 45.93 62.778C46.0682 62.4849 46.2604 62.2586 46.5068 62.0987C46.7533 61.9372 47.0379 61.8564 47.3609 61.8564C47.6107 61.8564 47.8088 61.8981 47.9553 61.9813C48.1035 62.0629 48.2166 62.1562 48.2949 62.261C48.3749 62.3643 48.4364 62.4491 48.4797 62.5157H48.5396V61.9064H49.1091V65.8521C49.1091 66.1818 49.0342 66.4499 48.8843 66.6563C48.7361 66.8644 48.5363 67.0168 48.2849 67.1133C48.0352 67.2116 47.7571 67.2607 47.4508 67.2607ZM47.4308 65.1529C47.6673 65.1529 47.8671 65.0988 48.0302 64.9906C48.1934 64.8824 48.3174 64.7267 48.4023 64.5236C48.4872 64.3205 48.5297 64.0774 48.5297 63.7944C48.5297 63.518 48.488 63.2741 48.4048 63.0626C48.3216 62.8512 48.1984 62.6856 48.0352 62.5657C47.872 62.4458 47.6706 62.3859 47.4308 62.3859C47.1811 62.3859 46.973 62.4491 46.8065 62.5757C46.6417 62.7022 46.5177 62.8721 46.4344 63.0852C46.3528 63.2982 46.312 63.5347 46.312 63.7944C46.312 64.0608 46.3537 64.2963 46.4369 64.5011C46.5218 64.7042 46.6467 64.8641 46.8115 64.9806C46.978 65.0955 47.1844 65.1529 47.4308 65.1529Z" fill="#171618"/>
</g>
</g>
<defs>
<clipPath id="clip0_2_4989">
<rect width="64" height="78.06" fill="white" transform="translate(0 0.34082)"/>
</clipPath>
<clipPath id="clip1_2_4989">
<rect width="63.9951" height="78.06" fill="white" transform="translate(0.00244141 0.34082)"/>
</clipPath>
</defs>
</svg>
