<svg width="39" height="39" viewBox="0 0 39 39" fill="none" xmlns="http://www.w3.org/2000/svg">
<g clip-path="url(#clip0_2_1522)">
<path d="M26.3301 19.2803C26.3301 23.1463 23.1961 26.2803 19.3301 26.2803C15.4641 26.2803 12.3301 23.1463 12.3301 19.2803C12.3301 15.4143 15.4641 12.2803 19.3301 12.2803C23.1961 12.2803 26.3301 15.4143 26.3301 19.2803Z" stroke="#171618" stroke-width="4"/>
<path d="M19.3301 6.28027V2.28027M19.3301 36.2803V32.2803M32.3301 19.2803H36.3301M2.33008 19.2803H6.33008M28.5224 28.4727L31.3509 31.3012M7.3092 7.25951L10.1376 10.0879M10.1375 28.4727L7.30908 31.3012M31.3507 7.25951L28.5223 10.0879" stroke="#171618" stroke-width="4" stroke-linecap="round"/>
</g>
<defs>
<clipPath id="clip0_2_1522">
<rect width="38" height="38" fill="white" transform="translate(0.330078 0.280273)"/>
</clipPath>
</defs>
</svg>
